<?xml version="1.0" encoding="utf-8"?>
<!-- Generator: Adobe Illustrator 18.1.1, SVG Export Plug-In . SVG Version: 6.00 Build 0)  -->
<!DOCTYPE svg PUBLIC "-//W3C//DTD SVG 1.1//EN" "http://www.w3.org/Graphics/SVG/1.1/DTD/svg11.dtd">
<svg version="1.1" id="Layer_1" xmlns="http://www.w3.org/2000/svg" xmlns:xlink="http://www.w3.org/1999/xlink" x="0px" y="0px"
	 width="506.5px" height="341.9px" viewBox="0 0 506.5 341.9" enable-background="new 0 0 506.5 341.9" xml:space="preserve">
<polygon fill="#454545" points="493.9,166.9 493.9,7 304.3,7 304.3,0 293.6,0 293.6,0.2 293.5,0.2 293.5,13.4 6,13.4 6,0.8 0,0.8 
	0,26.6 0.3,26.6 0.3,63.8 0,63.8 0,320.4 39.8,320.4 39.8,341.9 45.8,341.9 45.8,320.4 487.2,320.4 487.2,292.3 501.3,292.3 
	506.5,166.9 "/>
<path fill="#B2A18E" d="M188.9,301.4h-9.2l-3.8-3.8l-0.3,0.4l4,3.9h9.4v12.5h-32.8v-25.2h-6v2.5h-4c-6.6,0-7.2-6.3-7.2-6.5v-80
	c0.6-0.9,8.3-11.8,21.1-11.8c12.8,0,20,10.3,20.6,11.2v83.9h8.2V301.4z"/>
<rect x="156.9" y="249.2" fill="#454545" width="22.5" height="31.4"/>
<rect x="157.4" y="249.7" fill="#FFFFFF" width="21.5" height="30.4"/>
<polygon fill="#FFFFFF" points="299.5,0.5 303.8,0.5 303.8,7.5 493.4,7.5 493.4,50 489.3,50 489.3,10.9 299.5,10.9 "/>
<polygon fill="#FFFFFF" points="480.8,113.3 480.8,50.5 493.4,50.5 493.4,166.9 489.3,166.9 489.3,113.3 "/>
<path fill="#F3CF9A" d="M480.3,168.5v14.8h-62.7v-14.8h1.2V168h-1.2v-14.6h15v-3l0.2,0c0-0.1,0.2-10.3,4.9-20.4
	c4.2-9.1,12.9-19.8,30.9-20.3v38.7h1.2v4.9h10.5V168h-3.2v0.5H480.3z"/>
<path fill="#F3CF9A" d="M471.1,147.5v-37.9h-1.2v-0.2c-19.1,0-28.3,11.2-32.6,20.6c-3.2,6.9-4.3,13.8-4.7,17.6h-15v-11.1h-46.9
	c-0.7-17.2-10.1-26.2-18.1-30.8c-9-5.1-18-6-18.1-6l0,0.2h-1.2v36.5h-3.4v-117h150.5v30.9h0v63h0v34.2H471.1z"/>
<path fill="#EDDBC3" d="M396.2,176.5v6.8h-11.1v-1h-3l0-0.2c-0.1,0-10.1-0.4-19.9-5.1c-8.9-4.3-19.4-13-19.9-30.6h37.4V145h5.4v-2.7
	h11.1v6.2h0.5v-6.2h14.9v40.9h-14.9v-6.8H396.2z"/>
<path fill="#F3CF9A" d="M370.2,136.4h-34.5v-36.1c2.8,0.4,9.7,1.8,16.6,5.7C360.2,110.5,369.5,119.4,370.2,136.4z"/>
<rect x="287.7" y="19.4" fill="#B2A28E" width="36.1" height="21.1"/>
<rect x="261.4" y="19.4" fill="#FFFFFF" width="1.6" height="1.2"/>
<path fill="#FFFFFF" d="M242.9,34.9l-0.7,0c0,0-2.6,0.2-4.7,1.4c0.1-0.6,0.4-1.6,0.5-2.6h9.1c0.2,1,0.4,2,0.5,2.6
	C245.5,35.1,243,34.9,242.9,34.9z"/>
<path fill="#FFFFFF" d="M250.1,41c0,5.1-2.7,12.5-7.5,12.5h0c-4.8,0-7.5-7.4-7.5-12.5c0-5.2,7.1-5.6,7.2-5.6l0.6,0
	C243,35.4,250.1,35.8,250.1,41z"/>
<path fill="#FFFFFF" d="M236.1,33.2c-3.2,0-3.4-2.7-3.4-2.8v-7.1l20,0l0,7c0,0.1-0.3,2.9-3.4,2.9H236.1z"/>
<path fill="#FFFFFF" d="M225.7,22.8c-0.1,0-0.8-0.3-0.8-0.9V21h0.8v1.2h35.6l0.1,0c0,0,0.5-0.3,0.6-1.2h0.8
	c-0.1,0.5-0.3,1.8-1.6,1.8H225.7z"/>
<path fill="#D4D5EB" d="M226.2,21h0.4v-1.7h34.3V21h0.5c-0.1,0.4-0.2,0.7-0.3,0.8h-34.9V21z"/>
<rect x="224.5" y="19.4" fill="#FFFFFF" width="1.6" height="1.2"/>
<path fill="#FFFFFF" d="M220.7,26.1c1.4,0.1,1.5,1,1.5,1v33.1h-0.9v-33c0-0.5-0.3-0.7-0.6-0.7V26.1z"/>
<path fill="#EDDBC3" d="M220.7,27c0,0,0.1,0.1,0.1,0.2v33h-0.1V27z"/>
<rect x="220.7" y="60.7" fill="#FFFFFF" width="1.5" height="0.9"/>
<rect x="220.7" y="62.1" fill="#EDDBC3" width="0.1" height="6.2"/>
<path fill="#FFFFFF" d="M220.7,68.8h0.6v-6.7h0.9v6.2c0,1-0.8,1.4-1,1.4h-0.5V68.8z"/>
<path fill="#D4D5EB" d="M220.7,70.2h0.6l0,0c0.5-0.2,1.3-0.8,1.3-1.9l0-41.2c0,0-0.2-1.4-2-1.5v-6.2h3.3V21h0.4v0.9
	c0,0.9,0.8,1.3,1.2,1.4l6.6,0l0,7.1c0,0,0.3,3.3,3.9,3.3h1.5c-0.2,1.3-0.6,2.7-0.6,3c-1.3,0.9-2.3,2.3-2.3,4.3c0,5.4,2.8,13,8,13h0
	c5.2,0,8-7.5,8-13c0-2.1-1-3.4-2.3-4.3c-0.1-0.3-0.4-1.6-0.6-3h1.5c3.6,0,3.9-3.3,3.9-3.3v-7.1l8,0c1.5,0,2-1.4,2.1-2.3h0.3v-1.7
	h23.7v21.6h36.6v13.2c-17.1,0.6-26.1,10.1-30.7,18c-5.1,8.9-5.9,18-5.9,18.1l0.2,0v1.2h36.3v14.8h-60.7v-3.5h-8.6
	c-1-14-8.6-21.2-15.1-24.9c-7.5-4.2-15.1-4.6-15.2-4.6l0,0.2h-1.2v29.2h-2.2V70.2z"/>
<path fill="#D4D5EB" d="M323.8,54.6v34.4h-35.9c0.4-2.8,1.7-9.7,5.7-16.6C298,64.5,306.9,55.2,323.8,54.6z"/>
<rect x="263.1" y="106.8" fill="#FFFFFF" width="60.7" height="29.6"/>
<path fill="#D4D5EB" d="M220.7,108.8h2.6v-0.2h5.3V108h-5.3v-3.8h2.2V73.9c2.5,0.3,8.1,1.3,13.7,4.4c6.8,3.8,14.9,11.7,14.9,27.4
	h0.2v2.2H247v0.5h7.3v0.2h2.8v9h-36.4V108.8z"/>
<path fill="#EDDBC3" d="M220.7,123.8h36.4v12.6h-2.8v0.2h-6.8v0.5h6.8v4.5H252v30.9c-8.2-0.2-14.7-2.9-19.5-7.9
	c-9.3-9.7-8.9-25-8.9-25.2l-0.2,0V137h5.8v-0.5h-5.8v-0.2h-2.6V123.8z"/>
<rect x="153.2" y="19.4" fill="#FFFFFF" width="61.5" height="31.2"/>
<path fill="#D4D5EB" d="M209.6,99.9v-0.2c-10.8,0-19.4,3.3-25.8,9.7c-8.5,8.6-10.7,20.9-11.3,27h-3.9V99.6h-21.9V50.7h0V51h67.8
	v85.3h-3.8V99.9H209.6z"/>
<path fill="#D4D5EB" d="M184.2,109.7c6-6.1,14.1-9.3,24.2-9.6v37.1h1.2v4h-37v-1l0.2,0C172.8,140,172.6,121.4,184.2,109.7z"/>
<rect x="146.8" y="100.1" fill="#EDDBC3" width="21.4" height="36.3"/>
<path fill="#EDDBC3" d="M102.3,29.5h5.4V19.4h39.5v25.4h-6.4v1.5h-4.6v0.5h4.6v47.7h-15.6v-9.2h-0.5v9.2h-17v-2.7h-5.3v-2.2H72.6
	c0.2-13.7,8-20.8,14.6-24.3c7.4-3.9,15-4.4,15.1-4.4l0-0.5c-15.4-1.3-22.9-9.5-26.4-16C73.1,39,72.2,33.8,72,31.5h30.3V29.5z"/>
<path fill="#EDDBC3" d="M0.8,26.6h5.1v1.2h36c-0.2,10.9-3.6,19.5-10,25.7c-8.5,8.2-20.4,10-25.8,10.4v-0.1H0.8V26.6z"/>
<path fill="#EDDBC3" d="M365,210.1c-0.2,1.6-1.2,9.9-5.5,18.2c-4.3,8.2-12.8,17.9-29.1,18.4v-36.6H365z"/>
<path fill="#EDDBC3" d="M268.3,232.3V198h7v-3h0.2c0-18.4,9.9-28.1,18.2-33.1c7-4.2,14.2-5.7,17-6.2v37.1h2.3v5.2h2.2v34.2H268.3z"
	/>
<rect x="263.3" y="238.3" fill="#B2A18E" width="12" height="5.2"/>
<rect x="189.4" y="311.7" fill="#FFFFFF" width="30.4" height="2.7"/>
<polygon fill="#FFFFFF" points="219.8,301.4 213.6,301.4 213.6,301.9 219.8,301.9 219.8,311.2 189.4,311.2 189.4,301.9 195.3,301.9 
	195.3,301.4 189.4,301.4 189.4,286.7 219.8,286.7 "/>
<polygon fill="#B2A18E" points="287.1,314.4 220.3,314.4 220.3,301.9 227.4,301.9 227.4,301.4 220.3,301.4 220.3,288.4 260.7,288.4 
	260.7,281.3 273.2,281.3 273.2,289 269.3,293.2 269.7,293.5 273.7,289.3 273.7,289.2 273.7,281.3 287.1,281.3 "/>
<rect x="254.2" y="244" fill="#FFFFFF" width="32.9" height="36.8"/>
<rect x="275.8" y="238.3" fill="#B2A18E" width="11.2" height="5.2"/>
<path fill="#F3CF9A" d="M495.5,286.3h-14.3v28H322.3v-12.8h-6v12.8h-6.6v-4.2h-0.5v4.2h-16.2v-76.1h16.2v5.6h0.5v-5.6h5.6V252h6
	v-41.8h6.6V247h1.2v0.2c17.3,0,26.3-10.2,30.8-18.7c4.3-8.2,5.4-16.4,5.6-18.3h19.5v-21h114.5L495.5,286.3z"/>
<polygon fill="#888888" points="499.8,183.3 486.3,183.3 486.3,172.9 500.3,172.9 "/>
<path fill="#454545" d="M178.4,73.7c-2.6-1.6-7.2-3.4-9.7-3.5c-1.4-0.1-3.1,0.6-4.4,2.1l-3.3,0.6v-0.2c0-2.9-2.4-4.6-2.5-4.7l-0.1,0
	h-9.7v20.9h8.2c3.2,0,4-3.7,4.1-3.8v-1.7l2.8,0.5c1.3,1.9,3.1,2.7,4.6,2.7c0.1,0,0.1,0,0.2,0c2.5-0.1,7.1-2,9.7-3.5
	c2.8-1.7,3.1-4.5,3.2-4.7C181.6,78.2,181.2,75.4,178.4,73.7z"/>
<path fill="#FFFFFF" d="M157.1,88.3h-7.7V68.4h9c0.4,0.3,2.2,1.9,2.2,4.2l0,12.3C160.6,85.1,159.9,88.3,157.1,88.3z"/>
<path fill="#FFFFFF" d="M161.1,82.8v-9.5l2.8-0.5c-0.8,1.2-1.4,2.9-1.4,5v1c0,1.8,0.4,3.2,1,4.4L161.1,82.8z"/>
<path fill="#FFFFFF" d="M178.2,82.6c-2.6,1.5-7.1,3.3-9.5,3.5c-2.3,0.1-5.7-2.1-5.7-7.2v-1c0-4.9,3.2-7.2,5.5-7.2c0.1,0,0.1,0,0.2,0
	c2.3,0.1,6.9,1.9,9.5,3.5c2.5,1.5,2.9,4.2,2.9,4.2h0C181.1,78.4,180.8,81,178.2,82.6z"/>
<path fill="#454545" d="M132.6,43.9c-5.5,0-10-4.5-10-10c0-5.5,4.5-10,10-10c5.5,0,10,4.5,10,10C142.6,39.5,138.1,43.9,132.6,43.9z"
	/>
<path fill="#FFFFFF" d="M132.6,24.4c-5.2,0-9.5,4.3-9.5,9.5c0,5.2,4.3,9.5,9.5,9.5s9.5-4.3,9.5-9.5
	C142.1,28.7,137.8,24.4,132.6,24.4z"/>
<path fill="#454545" d="M207.1,48h-40.6c-0.1,0-10.9-1.6-10.9-11.3v-2.8c0-9.6,10.7-11.3,10.8-11.3l40.6,0c2.3,0,4.2,1.9,4.2,4.2
	v16.9C211.3,46.1,209.4,48,207.1,48z M166.5,23.2c-0.1,0-10.4,1.6-10.4,10.8v2.8c0,9.2,10.3,10.8,10.4,10.8l40.5,0
	c2.1,0,3.8-1.7,3.8-3.8V26.9c0-2.1-1.7-3.8-3.8-3.8H166.5z"/>
<path fill="#454545" d="M206.1,36.7c-0.7,0-1.2-0.6-1.2-1.2c0-0.7,0.6-1.2,1.2-1.2s1.2,0.6,1.2,1.2
	C207.4,36.1,206.8,36.7,206.1,36.7z M206.1,34.7c-0.4,0-0.8,0.3-0.8,0.8c0,0.4,0.3,0.8,0.8,0.8s0.8-0.3,0.8-0.8
	C206.9,35,206.5,34.7,206.1,34.7z"/>
<path fill="#454545" d="M317.2,134.1h-40.6c-0.1,0-10.9-1.6-10.9-11.3V120c0-9.6,10.7-11.3,10.8-11.3l40.6,0c2.3,0,4.2,1.9,4.2,4.2
	v16.9C321.4,132.2,319.5,134.1,317.2,134.1z M276.6,109.3c-0.1,0-10.4,1.6-10.4,10.8v2.8c0,9.2,10.3,10.8,10.4,10.8l40.5,0
	c2.1,0,3.8-1.7,3.8-3.8V113c0-2.1-1.7-3.8-3.8-3.8H276.6z"/>
<path fill="#454545" d="M316.2,122.7c-0.7,0-1.2-0.6-1.2-1.2c0-0.7,0.6-1.2,1.2-1.2c0.7,0,1.2,0.6,1.2,1.2
	C317.5,122.2,316.9,122.7,316.2,122.7z M316.2,120.7c-0.4,0-0.8,0.3-0.8,0.8c0,0.4,0.3,0.8,0.8,0.8c0.4,0,0.8-0.3,0.8-0.8
	C317,121.1,316.6,120.7,316.2,120.7z"/>
<path fill="#454545" d="M306,23.3c-4.6,0-8.3,3.7-8.3,8.3c0,4.6,3.7,8.3,8.3,8.3c4.6,0,8.3-3.7,8.3-8.3
	C314.3,27,310.5,23.3,306,23.3z"/>
<path fill="#FFFFFF" d="M306,23.8c2.8,0,5.2,1.4,6.6,3.6c-2.6-1.3-4.8-1.5-5.7-1.5v-1.6h-1.6v1.6c-0.8,0-3.1,0.1-5.8,1.5
	C300.8,25.2,303.2,23.8,306,23.8z"/>
<rect x="305.7" y="24.8" fill="#FFFFFF" width="0.6" height="4.7"/>
<path fill="#FFFFFF" d="M306,39.4c-4.3,0-7.8-3.5-7.8-7.8c0-1.2,0.3-2.4,0.8-3.4c2.9-1.7,5.5-1.8,6.3-1.8v3.5h1.6v-3.5
	c0.9,0,3.5,0.2,6.2,1.9c0.5,1,0.8,2.2,0.8,3.4C313.8,35.9,310.3,39.4,306,39.4z"/>
<path fill="#454545" d="M305.9,32.4c-0.7,0-1.2-0.5-1.2-1c0-0.6,0.6-1,1.2-1c0.7,0,1.2,0.5,1.2,1C307.2,31.9,306.6,32.4,305.9,32.4z
	 M305.9,30.8c-0.4,0-0.8,0.2-0.8,0.5c0,0.3,0.3,0.5,0.8,0.5c0.4,0,0.8-0.2,0.8-0.5C306.7,31.1,306.3,30.8,305.9,30.8z"/>
<path fill="#454545" d="M303.9,25.7c-0.5,0-0.9-0.3-0.9-0.7c0-0.4,0.4-0.7,0.9-0.7c0.5,0,0.9,0.3,0.9,0.7
	C304.8,25.4,304.4,25.7,303.9,25.7z M303.9,24.8c-0.2,0-0.4,0.1-0.4,0.2s0.2,0.2,0.4,0.2c0.2,0,0.4-0.1,0.4-0.2
	S304.1,24.8,303.9,24.8z"/>
<path fill="#454545" d="M308.1,25.7c-0.5,0-0.9-0.3-0.9-0.7c0-0.4,0.4-0.7,0.9-0.7c0.5,0,0.9,0.3,0.9,0.7
	C309,25.4,308.6,25.7,308.1,25.7z M308.1,24.8c-0.2,0-0.4,0.1-0.4,0.2s0.2,0.2,0.4,0.2c0.2,0,0.4-0.1,0.4-0.2S308.4,24.8,308.1,24.8
	z"/>
<path fill="#454545" d="M165.2,112.4c-1.6-1.6-3.6-2.4-5.8-2.4c-4.6,0-8.3,3.7-8.3,8.3c0,2.2,0.9,4.3,2.4,5.9
	c1.6,1.6,3.6,2.4,5.8,2.4h0c2.2,0,4.3-0.9,5.8-2.4c1.6-1.6,2.4-3.7,2.4-5.9S166.8,114,165.2,112.4z"/>
<path fill="#FFFFFF" d="M151.6,118.3c0-2.8,1.4-5.2,3.6-6.6c-1.3,2.6-1.5,4.8-1.5,5.7h-1.6v1.6h1.6c0,0.8,0.1,3.1,1.5,5.8
	c-0.5-0.3-0.9-0.6-1.3-1C152.4,122.4,151.6,120.4,151.6,118.3z"/>
<rect x="152.6" y="117.9" fill="#FFFFFF" width="4.7" height="0.6"/>
<path fill="#FFFFFF" d="M164.9,123.8c-1.5,1.5-3.4,2.3-5.5,2.3c-1.2,0-2.3-0.3-3.4-0.8c-1.7-2.9-1.8-5.5-1.8-6.3h3.5v-1.6l-3.5,0
	c0-0.9,0.2-3.5,1.9-6.2c1-0.5,2.2-0.8,3.4-0.8c2.1,0,4,0.8,5.5,2.3c1.5,1.5,2.3,3.4,2.3,5.5C167.2,120.4,166.4,122.4,164.9,123.8z"
	/>
<path fill="#454545" d="M159.2,119.6L159.2,119.6c-0.6,0-1-0.6-1-1.3c0-0.7,0.5-1.2,1-1.2c0.6,0,1,0.6,1,1.2
	C160.2,119,159.8,119.6,159.2,119.6z M159.2,117.6c-0.3,0-0.5,0.3-0.5,0.8c0,0.4,0.2,0.8,0.5,0.8c0.3,0,0.5-0.3,0.5-0.8
	C159.7,117.9,159.5,117.6,159.2,117.6z"/>
<path fill="#454545" d="M152.8,121.2c-0.4,0-0.7-0.4-0.7-0.9c0-0.5,0.3-0.9,0.7-0.9c0.4,0,0.7,0.4,0.7,0.9
	C153.5,120.8,153.2,121.2,152.8,121.2z M152.8,120c-0.1,0-0.2,0.2-0.2,0.4c0,0.2,0.1,0.4,0.2,0.4h0c0.1,0,0.2-0.2,0.2-0.4
	C153,120.2,152.9,120,152.8,120z"/>
<path fill="#454545" d="M152.8,117L152.8,117c-0.4,0-0.7-0.4-0.7-0.9c0-0.5,0.3-0.9,0.7-0.9c0.4,0,0.7,0.4,0.7,0.9
	C153.5,116.6,153.2,117,152.8,117z M152.8,115.8c-0.1,0-0.2,0.2-0.2,0.4c0,0.2,0.1,0.4,0.2,0.4c0.1,0,0.2-0.2,0.2-0.4
	C153,115.9,152.9,115.8,152.8,115.8z"/>
<path fill="#454545" d="M168.4,266.2c-0.7,0-1.3-0.6-1.3-1.3s0.6-1.3,1.3-1.3s1.3,0.6,1.3,1.3S169.1,266.2,168.4,266.2z M168.4,264
	c-0.4,0-0.8,0.4-0.8,0.8c0,0.4,0.4,0.8,0.8,0.8c0.4,0,0.8-0.4,0.8-0.8C169.2,264.4,168.9,264,168.4,264z"/>
<path fill="#454545" d="M159.6,262c-0.7,0-1.3-0.6-1.3-1.3c0-0.7,0.6-1.3,1.3-1.3s1.3,0.6,1.3,1.3C160.9,261.5,160.3,262,159.6,262z
	 M159.6,260c-0.4,0-0.8,0.3-0.8,0.8c0,0.4,0.3,0.8,0.8,0.8c0.4,0,0.8-0.3,0.8-0.8C160.4,260.3,160.1,260,159.6,260z"/>
<path fill="#454545" d="M159.6,270.1c-0.7,0-1.3-0.6-1.3-1.3c0-0.7,0.6-1.3,1.3-1.3s1.3,0.6,1.3,1.3
	C160.9,269.5,160.3,270.1,159.6,270.1z M159.6,268.1c-0.4,0-0.8,0.3-0.8,0.8c0,0.4,0.3,0.8,0.8,0.8c0.4,0,0.8-0.3,0.8-0.8
	C160.4,268.4,160.1,268.1,159.6,268.1z"/>
<path fill="#454545" d="M167.5,265.5h-8.7v-1.4h8.7V265.5z M159.3,265h7.7v-0.4h-7.7V265z"/>
<path fill="#454545" d="M175.6,279.2h-11.8c-1.2,0-2.2-1-2.2-2.2V265h5.4v-0.4h-5.4v-12.1c0-1.2,1-2.2,2.2-2.2h11.8
	c1.2,0,2.2,1,2.2,2.2v24.4C177.9,278.1,176.9,279.2,175.6,279.2z M162.1,265.5v11.4c0,1,0.8,1.8,1.8,1.8h11.8c1,0,1.8-0.8,1.8-1.8
	v-24.4c0-1-0.8-1.8-1.8-1.8h-11.8c-1,0-1.8,0.8-1.8,1.8v11.6h5.4v1.4H162.1z"/>
<rect x="109.1" y="56.4" fill="#454545" width="29.6" height="29.6"/>
<rect x="109.6" y="56.9" fill="#FFFFFF" width="28.6" height="28.6"/>
<rect x="124.7" y="61" fill="#454545" width="0.5" height="6.5"/>
<rect x="124.7" y="73.2" fill="#454545" width="0.5" height="6.5"/>
<rect x="275.3" y="250.4" fill="#454545" width="0.5" height="6.2"/>
<rect x="275.3" y="263.4" fill="#454545" width="0.5" height="6.2"/>
<rect x="275.3" y="274.8" fill="#454545" width="0.5" height="6.2"/>
<rect x="285.1" y="201.4" fill="#454545" width="22.5" height="30"/>
<rect x="285.6" y="201.9" fill="#FFFFFF" width="21.5" height="29"/>
<rect x="396.2" y="153.3" fill="#454545" width="0.5" height="6.9"/>
<rect x="451.9" y="168" fill="#454545" width="6.2" height="0.5"/>
<rect x="438.8" y="168" fill="#454545" width="6.2" height="0.5"/>
<rect x="425.7" y="168" fill="#454545" width="6.2" height="0.5"/>
<rect x="396.2" y="164.9" fill="#454545" width="0.5" height="6.9"/>
<rect x="465.1" y="168" fill="#454545" width="6.2" height="0.5"/>
<rect x="235.4" y="136.5" fill="#454545" width="6.4" height="0.5"/>
<polygon fill="#454545" points="125.2,46.8 130.4,46.8 130.4,46.3 124.7,46.3 124.7,54.9 125.2,54.9 "/>
<rect x="233.6" y="301.4" fill="#454545" width="6.2" height="0.5"/>
<rect x="309.2" y="285.7" fill="#454545" width="0.5" height="7.2"/>
<rect x="309.2" y="297.9" fill="#454545" width="0.5" height="7.2"/>
<polygon fill="#454545" points="261.4,301.4 246.1,301.4 246.1,301.9 261.6,301.9 265.7,298 265.4,297.6 "/>
<polygon fill="#454545" points="172.6,224.3 178.9,224.3 178.9,230.5 179.4,230.5 179.4,223.8 172.6,223.8 "/>
<rect x="201.5" y="301.4" fill="#454545" width="6.2" height="0.5"/>
<rect x="234.9" y="108" fill="#454545" width="6.4" height="0.5"/>
<rect x="178.9" y="232.8" fill="#454545" width="0.5" height="2.3"/>
<rect x="309.2" y="248.9" fill="#454545" width="0.5" height="7.2"/>
<rect x="309.2" y="273.4" fill="#454545" width="0.5" height="7.2"/>
<rect x="309.2" y="261.2" fill="#454545" width="0.5" height="7.2"/>
<path fill="#454545" d="M324.9,277c20.3-2.2,22.7-24.7,22.7-24.9l-0.2,0v-1.2h-25.7v2.5h25.2c-0.9,5-5.4,23.4-25.2,23.4l0,0.5
	c0.2,0,24.4,0.9,25.4,21.6h-25.4v2.5h25.7V300h0.2C347.6,282.4,331.8,278.1,324.9,277z"/>
<rect x="164.3" y="223.8" fill="#454545" width="2.1" height="0.5"/>
<rect x="164.3" y="248.3" fill="#454545" width="2.1" height="0.5"/>
<polygon fill="#454545" points="156,224.3 162.2,224.3 162.2,223.8 155.5,223.8 155.5,230.5 156,230.5 "/>
<rect x="155.5" y="232.8" fill="#454545" width="0.5" height="2.3"/>
<rect x="168.5" y="248.3" fill="#454545" width="2.1" height="0.5"/>
<rect x="168.5" y="223.8" fill="#454545" width="2.1" height="0.5"/>
<polygon fill="#454545" points="164.4,288.9 164.4,289.4 167.3,289.4 171.7,293.7 172.1,293.4 167.5,288.9 "/>
<polygon fill="#454545" points="178.9,248.3 172.6,248.3 172.6,248.8 179.4,248.8 179.4,242 178.9,242 "/>
<polygon fill="#454545" points="162.2,248.3 156,248.3 156,242 155.5,242 155.5,248.8 162.2,248.8 "/>
<rect x="178.9" y="237.4" fill="#454545" width="0.5" height="2.3"/>
<rect x="155.5" y="237.4" fill="#454545" width="0.5" height="2.3"/>
<path fill="#EDDBC3" d="M188.9,287.9h-7.8v-83.6l0-0.1c-0.1-0.1-7.5-11.5-21.1-11.5c-13.6,0-21.5,12-21.6,12.1l0,0.1l0,80.2
	c0,0.1,0.6,7,7.7,7h4v22.2H6L6,64.4c5.5-0.4,17.5-2.2,26.2-10.5c6.5-6.3,9.9-15.1,10.2-26h0.5v-2.5H6v-6h95.6V29h-30v1.2l-0.2,0
	c0,0.3,0.8,26.7,28.7,30.4c-7,1.1-28.4,6.3-28,30.1l0.2,0V92h29.3v8.4h39.2v41.9h31.8v-0.7h37v0.7h13.5c0.4,5,2,15.3,9,22.5
	c5.2,5.3,12.3,8,21.2,8v-0.2h1.2v-30.3h124.6v1.4H342v1.2h-0.2c0,18.7,11,27.9,20.2,32.4c6.8,3.2,13.6,4.5,17.3,4.9h-0.1v22h-13.8
	v5.3h-36.2v-5.3h-7.8V192h-8.1v-36.7H312l0-0.2c-0.1,0-9.3,1-18.4,6.4c-8,4.7-17.3,13.8-18.4,30.5h-12.8v46.2h0.5v5.2h-9.1v37.8h6.5
	v6.6h-39.9v-1.8h-31.4V287.9z"/>
<path fill="#454545" d="M71.8,320.4h61.5v-6H71.8V320.4z M499.2,198.8l-2.6,62.4h6l2.6-62.4H499.2z"/>
<path fill="#FFFFFF" d="M499.7,199.3l-2.6,61.4h5l2.6-61.4H499.7z M72.3,319.9h60.5v-5H72.3V319.9z"/>
<g>
	<g>
		<text transform="matrix(1.0622 0 0 1 287.437 218.7079)"><tspan x="0" y="0" font-family="'CenturyGothic'" font-size="5.7304">HV</tspan><tspan x="7.8" y="0" font-family="'CenturyGothic'" font-size="5.7304">A</tspan><tspan x="12" y="0" font-family="'CenturyGothic'" font-size="5.7304">C</tspan></text>
	</g>
</g>
<g>
	<path fill="#454545" d="M18.9,73.5h3.9l-3.3,6.6L19,79.8l2.8-5.7h-2.9V73.5z"/>
	<path fill="#454545" d="M24.4,75.7l-0.3-0.2c0.1-0.2,0.2-0.4,0.2-0.5c0-0.1,0.1-0.3,0.1-0.5H24v-1.2h0.8v0.7c0,0.4,0,0.7-0.1,0.9
		C24.7,75.2,24.6,75.4,24.4,75.7z"/>
	<path fill="#454545" d="M26.2,77.2h2.3v0.5h-2.3V77.2z"/>
	<path fill="#454545" d="M30.3,73.5h1.2v6.4h-0.6v-5.8h-1L30.3,73.5z"/>
	<path fill="#454545" d="M33.6,76.7c0-0.8,0.1-1.5,0.3-2c0.2-0.5,0.4-0.8,0.7-1c0.3-0.2,0.7-0.4,1.1-0.4c0.4,0,0.8,0.1,1.1,0.4
		c0.3,0.2,0.6,0.6,0.8,1.1c0.2,0.5,0.3,1.1,0.3,1.9c0,0.8-0.1,1.4-0.3,1.9c-0.2,0.5-0.4,0.8-0.8,1.1c-0.3,0.2-0.7,0.4-1.1,0.4
		c-0.4,0-0.7-0.1-1.1-0.4c-0.3-0.2-0.6-0.6-0.7-1.1C33.7,78.2,33.6,77.5,33.6,76.7z M34.2,76.7c0,0.7,0.1,1.3,0.2,1.6
		c0.1,0.4,0.3,0.7,0.5,0.8c0.2,0.2,0.5,0.3,0.8,0.3c0.3,0,0.5-0.1,0.8-0.3c0.2-0.2,0.4-0.5,0.5-0.8c0.2-0.5,0.2-1,0.2-1.6
		c0-0.6-0.1-1.2-0.2-1.6c-0.1-0.4-0.3-0.7-0.6-0.9c-0.2-0.2-0.5-0.3-0.8-0.3c-0.3,0-0.5,0.1-0.8,0.3c-0.2,0.2-0.4,0.5-0.5,0.8
		C34.3,75.4,34.2,76,34.2,76.7z"/>
	<path fill="#454545" d="M39.2,75.7l-0.3-0.2c0.1-0.2,0.2-0.4,0.2-0.5c0-0.1,0.1-0.3,0.1-0.5h-0.4v-1.2h0.8v0.7c0,0.4,0,0.7-0.1,0.9
		S39.3,75.4,39.2,75.7z M41.1,75.7l-0.3-0.2c0.1-0.2,0.2-0.4,0.2-0.5c0-0.1,0.1-0.3,0.1-0.5h-0.4v-1.2h0.8v0.7c0,0.4,0,0.7-0.1,0.9
		C41.3,75.2,41.2,75.4,41.1,75.7z"/>
	<path fill="#454545" d="M42.3,75.2H43l1.2,1.7l1.2-1.7h0.7l-1.5,2.2l1.7,2.5h-0.7l-1.4-2l-1.4,2h-0.7l1.7-2.5L42.3,75.2z"/>
	<path fill="#454545" d="M49.3,73.3l0.5,0.3l-1.7,2.6c0.2-0.1,0.4-0.1,0.6-0.1c0.5,0,0.9,0.2,1.2,0.6c0.3,0.4,0.5,0.8,0.5,1.4
		c0,0.4-0.1,0.7-0.2,1c-0.2,0.3-0.4,0.5-0.7,0.7c-0.3,0.2-0.6,0.3-1,0.3c-0.3,0-0.7-0.1-0.9-0.3c-0.3-0.2-0.5-0.4-0.7-0.7
		c-0.2-0.3-0.2-0.6-0.2-1c0-0.3,0.1-0.5,0.2-0.8c0.1-0.3,0.3-0.6,0.5-1L49.3,73.3z M48.6,76.7c-0.4,0-0.7,0.1-0.9,0.4
		c-0.3,0.3-0.4,0.6-0.4,1c0,0.4,0.1,0.7,0.4,1c0.3,0.3,0.6,0.4,0.9,0.4s0.7-0.1,0.9-0.4c0.3-0.3,0.4-0.6,0.4-1c0-0.4-0.1-0.7-0.4-1
		C49.3,76.9,49,76.7,48.6,76.7z"/>
	<path fill="#454545" d="M52.3,75.7L52,75.5c0.1-0.2,0.2-0.4,0.2-0.5c0-0.1,0.1-0.3,0.1-0.5h-0.4v-1.2h0.8v0.7c0,0.4,0,0.7-0.1,0.9
		C52.5,75.2,52.4,75.4,52.3,75.7z"/>
	<path fill="#454545" d="M54.1,77.2h2.3v0.5h-2.3V77.2z"/>
	<path fill="#454545" d="M59.7,73.3l0.5,0.3l-1.7,2.6c0.2-0.1,0.4-0.1,0.6-0.1c0.5,0,0.9,0.2,1.2,0.6c0.3,0.4,0.5,0.8,0.5,1.4
		c0,0.4-0.1,0.7-0.2,1c-0.2,0.3-0.4,0.5-0.7,0.7c-0.3,0.2-0.6,0.3-1,0.3c-0.3,0-0.7-0.1-0.9-0.3c-0.3-0.2-0.5-0.4-0.7-0.7
		c-0.2-0.3-0.2-0.6-0.2-1c0-0.3,0.1-0.5,0.2-0.8c0.1-0.3,0.3-0.6,0.5-1L59.7,73.3z M59,76.7c-0.4,0-0.7,0.1-0.9,0.4
		c-0.3,0.3-0.4,0.6-0.4,1c0,0.4,0.1,0.7,0.4,1c0.3,0.3,0.6,0.4,0.9,0.4c0.4,0,0.7-0.1,0.9-0.4c0.3-0.3,0.4-0.6,0.4-1
		c0-0.4-0.1-0.7-0.4-1C59.7,76.9,59.4,76.7,59,76.7z"/>
	<path fill="#454545" d="M62.4,75.7l-0.3-0.2c0.1-0.2,0.2-0.4,0.2-0.5c0-0.1,0.1-0.3,0.1-0.5H62v-1.2h0.8v0.7c0,0.4,0,0.7-0.1,0.9
		C62.6,75.2,62.5,75.4,62.4,75.7z M64.2,75.7l-0.3-0.2c0.1-0.2,0.2-0.4,0.2-0.5c0-0.1,0.1-0.3,0.1-0.5h-0.4v-1.2h0.8v0.7
		c0,0.4,0,0.7-0.1,0.9C64.5,75.2,64.4,75.4,64.2,75.7z"/>
	<path fill="#454545" d="M25.3,135.3h3.9l-3.3,6.6l-0.5-0.3l2.8-5.7h-2.9V135.3z"/>
	<path fill="#454545" d="M30.8,137.5l-0.3-0.2c0.1-0.2,0.2-0.4,0.2-0.5c0-0.1,0.1-0.3,0.1-0.5h-0.4v-1.2h0.8v0.7
		c0,0.4,0,0.7-0.1,0.9C31.1,137,31,137.2,30.8,137.5z"/>
	<path fill="#454545" d="M32.6,139h2.3v0.5h-2.3V139z"/>
	<path fill="#454545" d="M36.7,135.3h1.2v6.4h-0.6v-5.8h-1L36.7,135.3z"/>
	<path fill="#454545" d="M40,138.5c0-0.8,0.1-1.5,0.3-2c0.2-0.5,0.4-0.8,0.7-1c0.3-0.2,0.7-0.4,1.1-0.4c0.4,0,0.8,0.1,1.1,0.4
		c0.3,0.2,0.6,0.6,0.8,1.1c0.2,0.5,0.3,1.1,0.3,1.9c0,0.8-0.1,1.4-0.3,1.9c-0.2,0.5-0.4,0.8-0.8,1.1c-0.3,0.2-0.7,0.4-1.1,0.4
		c-0.4,0-0.7-0.1-1.1-0.4c-0.3-0.2-0.6-0.6-0.7-1.1C40.1,140,40,139.3,40,138.5z M40.6,138.5c0,0.7,0.1,1.3,0.2,1.6
		c0.1,0.4,0.3,0.7,0.5,0.8c0.2,0.2,0.5,0.3,0.8,0.3c0.3,0,0.5-0.1,0.8-0.3c0.2-0.2,0.4-0.5,0.5-0.8c0.2-0.5,0.2-1,0.2-1.6
		c0-0.6-0.1-1.2-0.2-1.6c-0.1-0.4-0.3-0.7-0.6-0.9c-0.2-0.2-0.5-0.3-0.8-0.3c-0.3,0-0.5,0.1-0.8,0.3c-0.2,0.2-0.4,0.5-0.5,0.8
		S40.6,137.8,40.6,138.5z"/>
	<path fill="#454545" d="M45.6,137.5l-0.3-0.2c0.1-0.2,0.2-0.4,0.2-0.5c0-0.1,0.1-0.3,0.1-0.5h-0.4v-1.2H46v0.7c0,0.4,0,0.7-0.1,0.9
		C45.8,137,45.7,137.2,45.6,137.5z M47.5,137.5l-0.3-0.2c0.1-0.2,0.2-0.4,0.2-0.5c0-0.1,0.1-0.3,0.1-0.5h-0.4v-1.2h0.8v0.7
		c0,0.4,0,0.7-0.1,0.9C47.7,137,47.6,137.2,47.5,137.5z"/>
	<path fill="#454545" d="M48.7,137h0.7l1.2,1.7l1.2-1.7h0.7l-1.5,2.2l1.7,2.5h-0.7l-1.4-2l-1.4,2h-0.7l1.7-2.5L48.7,137z"/>
	<path fill="#454545" d="M53.2,135.3h3.9l-3.3,6.6l-0.5-0.3l2.8-5.7h-2.9V135.3z"/>
	<path fill="#454545" d="M58.7,137.5l-0.3-0.2c0.1-0.2,0.2-0.4,0.2-0.5c0-0.1,0.1-0.3,0.1-0.5h-0.4v-1.2H59v0.7c0,0.4,0,0.7-0.1,0.9
		C58.9,137,58.8,137.2,58.7,137.5z"/>
	<path fill="#454545" d="M60.4,139h2.3v0.5h-2.3V139z"/>
	<path fill="#454545" d="M66.1,135.1l0.5,0.3l-1.7,2.6c0.2-0.1,0.4-0.1,0.6-0.1c0.5,0,0.9,0.2,1.2,0.6c0.3,0.4,0.5,0.8,0.5,1.4
		c0,0.4-0.1,0.7-0.2,1c-0.2,0.3-0.4,0.5-0.7,0.7c-0.3,0.2-0.6,0.3-1,0.3c-0.3,0-0.7-0.1-0.9-0.3c-0.3-0.2-0.5-0.4-0.7-0.7
		c-0.2-0.3-0.2-0.6-0.2-1c0-0.3,0.1-0.5,0.2-0.8c0.1-0.3,0.3-0.6,0.5-1L66.1,135.1z M65.4,138.5c-0.4,0-0.7,0.1-0.9,0.4
		c-0.3,0.3-0.4,0.6-0.4,1c0,0.4,0.1,0.7,0.4,1c0.3,0.3,0.6,0.4,0.9,0.4s0.7-0.1,0.9-0.4c0.3-0.3,0.4-0.6,0.4-1c0-0.4-0.1-0.7-0.4-1
		C66.1,138.7,65.8,138.5,65.4,138.5z"/>
	<path fill="#454545" d="M68.8,137.5l-0.3-0.2c0.1-0.2,0.2-0.4,0.2-0.5c0-0.1,0.1-0.3,0.1-0.5h-0.4v-1.2h0.8v0.7
		c0,0.4,0,0.7-0.1,0.9C69,137,68.9,137.2,68.8,137.5z M70.6,137.5l-0.3-0.2c0.1-0.2,0.2-0.4,0.2-0.5c0-0.1,0.1-0.3,0.1-0.5h-0.4
		v-1.2H71v0.7c0,0.4,0,0.7-0.1,0.9C70.9,137,70.8,137.2,70.6,137.5z"/>
	<path fill="#454545" d="M174.8,89.4v0.6h-2.2l-0.3,1.7c0.3-0.1,0.5-0.1,0.7-0.1c0.6,0,1,0.2,1.4,0.6c0.4,0.4,0.5,0.9,0.5,1.5
		c0,0.4-0.1,0.8-0.3,1.2c-0.2,0.4-0.4,0.6-0.8,0.8c-0.3,0.2-0.7,0.3-1.1,0.3c-0.5,0-0.9-0.2-1.3-0.5c-0.3-0.3-0.5-0.7-0.6-1.2h0.6
		c0,0.2,0.1,0.4,0.2,0.6c0.1,0.2,0.3,0.3,0.5,0.4c0.2,0.1,0.4,0.1,0.6,0.1c0.4,0,0.8-0.2,1-0.5c0.3-0.3,0.4-0.7,0.4-1.2
		c0-0.4-0.1-0.8-0.4-1.1c-0.3-0.3-0.6-0.4-1-0.4c-0.4,0-0.8,0.1-1.3,0.3l0.6-3.2H174.8z"/>
	<path fill="#454545" d="M176.7,91.7l-0.3-0.2c0.1-0.2,0.2-0.4,0.2-0.5c0-0.1,0.1-0.3,0.1-0.5h-0.4v-1.2h0.8V90c0,0.4,0,0.7-0.1,0.9
		C176.9,91.1,176.8,91.4,176.7,91.7z"/>
	<path fill="#454545" d="M178.5,93.2h2.3v0.5h-2.3V93.2z"/>
	<path fill="#454545" d="M185.2,89.4v0.6H183l-0.3,1.7c0.3-0.1,0.5-0.1,0.7-0.1c0.6,0,1,0.2,1.4,0.6c0.4,0.4,0.5,0.9,0.5,1.5
		c0,0.4-0.1,0.8-0.3,1.2c-0.2,0.4-0.4,0.6-0.8,0.8c-0.3,0.2-0.7,0.3-1.1,0.3c-0.5,0-0.9-0.2-1.3-0.5c-0.3-0.3-0.5-0.7-0.6-1.2h0.6
		c0,0.2,0.1,0.4,0.2,0.6c0.1,0.2,0.3,0.3,0.5,0.4c0.2,0.1,0.4,0.1,0.6,0.1c0.4,0,0.8-0.2,1-0.5c0.3-0.3,0.4-0.7,0.4-1.2
		c0-0.4-0.1-0.8-0.4-1.1c-0.3-0.3-0.6-0.4-1-0.4c-0.4,0-0.8,0.1-1.3,0.3l0.6-3.2H185.2z"/>
	<path fill="#454545" d="M186.8,91.7l-0.3-0.2c0.1-0.2,0.2-0.4,0.2-0.5c0-0.1,0.1-0.3,0.1-0.5h-0.4v-1.2h0.8V90c0,0.4,0,0.7-0.1,0.9
		C187,91.1,186.9,91.4,186.8,91.7z M188.6,91.7l-0.3-0.2c0.1-0.2,0.2-0.4,0.2-0.5c0-0.1,0.1-0.3,0.1-0.5h-0.4v-1.2h0.8V90
		c0,0.4,0,0.7-0.1,0.9C188.9,91.1,188.8,91.4,188.6,91.7z"/>
	<path fill="#454545" d="M189.8,91.1h0.7l1.2,1.7l1.2-1.7h0.7l-1.5,2.2l1.7,2.5h-0.7l-1.4-2l-1.4,2h-0.7l1.7-2.5L189.8,91.1z"/>
	<path fill="#454545" d="M194.4,89.4h3.9L195,96l-0.5-0.3l2.8-5.7h-2.9V89.4z"/>
	<path fill="#454545" d="M199.9,91.7l-0.3-0.2c0.1-0.2,0.2-0.4,0.2-0.5c0-0.1,0.1-0.3,0.1-0.5h-0.4v-1.2h0.8V90c0,0.4,0,0.7-0.1,0.9
		C200.1,91.1,200,91.4,199.9,91.7z"/>
	<path fill="#454545" d="M201.6,93.2h2.3v0.5h-2.3V93.2z"/>
	<path fill="#454545" d="M204.4,92.6c0-0.8,0.1-1.5,0.3-2c0.2-0.5,0.4-0.8,0.7-1c0.3-0.2,0.7-0.4,1.1-0.4c0.4,0,0.8,0.1,1.1,0.4
		c0.3,0.2,0.6,0.6,0.8,1.1c0.2,0.5,0.3,1.1,0.3,1.9c0,0.8-0.1,1.4-0.3,1.9c-0.2,0.5-0.4,0.8-0.8,1.1c-0.3,0.2-0.7,0.4-1.1,0.4
		c-0.4,0-0.7-0.1-1.1-0.4c-0.3-0.2-0.6-0.6-0.7-1.1C204.5,94.1,204.4,93.5,204.4,92.6z M205,92.7c0,0.7,0.1,1.3,0.2,1.6
		c0.1,0.4,0.3,0.7,0.5,0.8c0.2,0.2,0.5,0.3,0.8,0.3c0.3,0,0.5-0.1,0.8-0.3c0.2-0.2,0.4-0.5,0.5-0.8c0.2-0.5,0.2-1,0.2-1.6
		c0-0.6-0.1-1.2-0.2-1.6c-0.1-0.4-0.3-0.7-0.6-0.9c-0.2-0.2-0.5-0.3-0.8-0.3c-0.3,0-0.5,0.1-0.8,0.3c-0.2,0.2-0.4,0.5-0.5,0.8
		C205.1,91.4,205,91.9,205,92.7z"/>
	<path fill="#454545" d="M210,91.7l-0.3-0.2c0.1-0.2,0.2-0.4,0.2-0.5c0-0.1,0.1-0.3,0.1-0.5h-0.4v-1.2h0.8V90c0,0.4,0,0.7-0.1,0.9
		C210.2,91.1,210.1,91.4,210,91.7z M211.8,91.7l-0.3-0.2c0.1-0.2,0.2-0.4,0.2-0.5c0-0.1,0.1-0.3,0.1-0.5h-0.4v-1.2h0.8V90
		c0,0.4,0,0.7-0.1,0.9C212.1,91.1,212,91.4,211.8,91.7z"/>
	<path fill="#454545" d="M246.5,74.4c0.4,0.2,0.7,0.5,0.9,0.7c0.2,0.3,0.3,0.6,0.3,0.9c0,0.5-0.2,0.9-0.5,1.3
		c-0.4,0.5-0.9,0.7-1.6,0.7c-0.7,0-1.2-0.2-1.5-0.6c-0.4-0.4-0.5-0.9-0.5-1.3c0-0.4,0.1-0.7,0.3-1c0.2-0.3,0.5-0.5,0.9-0.8
		c-0.3-0.2-0.5-0.4-0.7-0.6c-0.2-0.2-0.2-0.5-0.2-0.8c0-0.3,0.1-0.6,0.2-0.8c0.2-0.3,0.4-0.5,0.7-0.6s0.6-0.2,0.9-0.2
		c0.3,0,0.6,0.1,0.9,0.2c0.3,0.2,0.5,0.4,0.6,0.6c0.2,0.3,0.2,0.5,0.2,0.8c0,0.3-0.1,0.5-0.2,0.8C247,74.1,246.8,74.3,246.5,74.4z
		 M245.6,74.8c-0.4,0-0.8,0.1-1.1,0.4c-0.3,0.3-0.4,0.6-0.4,1c0,0.2,0.1,0.5,0.2,0.7c0.1,0.2,0.3,0.4,0.5,0.5
		c0.2,0.1,0.5,0.2,0.8,0.2c0.4,0,0.8-0.1,1.1-0.4c0.3-0.3,0.4-0.6,0.4-1c0-0.4-0.1-0.7-0.4-1C246.3,74.9,246,74.8,245.6,74.8z
		 M245.6,72c-0.3,0-0.6,0.1-0.8,0.3c-0.2,0.2-0.3,0.5-0.3,0.7c0,0.3,0.1,0.5,0.4,0.8c0.2,0.2,0.5,0.3,0.8,0.3c0.2,0,0.4-0.1,0.6-0.2
		c0.2-0.1,0.3-0.2,0.4-0.4c0.1-0.2,0.2-0.4,0.2-0.5c0-0.3-0.1-0.5-0.3-0.7C246.2,72.1,245.9,72,245.6,72z"/>
	<path fill="#454545" d="M249.3,73.8l-0.3-0.2c0.1-0.2,0.2-0.4,0.2-0.5c0-0.1,0.1-0.3,0.1-0.5h-0.4v-1.2h0.8v0.7
		c0,0.4,0,0.7-0.1,0.9C249.6,73.2,249.5,73.5,249.3,73.8z"/>
	<path fill="#454545" d="M251.1,75.3h2.3v0.5h-2.3V75.3z"/>
	<path fill="#454545" d="M254.2,71.6h3.9l-3.3,6.6l-0.5-0.3l2.8-5.7h-2.9V71.6z"/>
	<path fill="#454545" d="M259.4,73.8l-0.3-0.2c0.1-0.2,0.2-0.4,0.2-0.5c0-0.1,0.1-0.3,0.1-0.5H259v-1.2h0.8v0.7c0,0.4,0,0.7-0.1,0.9
		C259.6,73.2,259.6,73.5,259.4,73.8z M261.3,73.8l-0.3-0.2c0.1-0.2,0.2-0.4,0.2-0.5c0-0.1,0.1-0.3,0.1-0.5h-0.4v-1.2h0.8v0.7
		c0,0.4,0,0.7-0.1,0.9C261.5,73.2,261.4,73.5,261.3,73.8z"/>
	<path fill="#454545" d="M262.5,73.2h0.7l1.2,1.7l1.2-1.7h0.7l-1.5,2.2l1.7,2.5h-0.7l-1.4-2l-1.4,2h-0.7l1.7-2.5L262.5,73.2z"/>
	<path fill="#454545" d="M269.5,71.4l0.5,0.3l-1.7,2.6c0.2-0.1,0.4-0.1,0.6-0.1c0.5,0,0.9,0.2,1.2,0.6c0.3,0.4,0.5,0.8,0.5,1.4
		c0,0.4-0.1,0.7-0.2,1c-0.2,0.3-0.4,0.5-0.7,0.7c-0.3,0.2-0.6,0.3-1,0.3c-0.3,0-0.7-0.1-0.9-0.3c-0.3-0.2-0.5-0.4-0.7-0.7
		c-0.2-0.3-0.2-0.6-0.2-1c0-0.3,0.1-0.5,0.2-0.8c0.1-0.3,0.3-0.6,0.5-1L269.5,71.4z M268.8,74.8c-0.4,0-0.7,0.1-0.9,0.4
		c-0.3,0.3-0.4,0.6-0.4,1c0,0.4,0.1,0.7,0.4,1c0.3,0.3,0.6,0.4,0.9,0.4c0.4,0,0.7-0.1,0.9-0.4c0.3-0.3,0.4-0.6,0.4-1
		c0-0.4-0.1-0.7-0.4-1C269.5,74.9,269.2,74.8,268.8,74.8z"/>
	<path fill="#454545" d="M272.5,73.8l-0.3-0.2c0.1-0.2,0.2-0.4,0.2-0.5c0-0.1,0.1-0.3,0.1-0.5h-0.4v-1.2h0.8v0.7
		c0,0.4,0,0.7-0.1,0.9C272.7,73.2,272.6,73.5,272.5,73.8z"/>
	<path fill="#454545" d="M274.3,75.3h2.3v0.5h-2.3V75.3z"/>
	<path fill="#454545" d="M278.4,78.1l-0.5-0.3l1.7-2.6c-0.2,0.1-0.4,0.1-0.6,0.1c-0.5,0-0.9-0.2-1.2-0.6c-0.3-0.4-0.5-0.8-0.5-1.4
		c0-0.4,0.1-0.7,0.2-1c0.2-0.3,0.4-0.5,0.7-0.7c0.3-0.2,0.6-0.3,1-0.3c0.3,0,0.7,0.1,0.9,0.3c0.3,0.2,0.5,0.4,0.7,0.7
		c0.2,0.3,0.2,0.6,0.2,1c0,0.3-0.1,0.5-0.2,0.8c-0.1,0.3-0.3,0.6-0.5,1L278.4,78.1z M279.1,74.7c0.4,0,0.7-0.1,0.9-0.4
		c0.2-0.3,0.4-0.6,0.4-1c0-0.4-0.1-0.7-0.4-1c-0.3-0.3-0.6-0.4-0.9-0.4c-0.4,0-0.7,0.1-0.9,0.4c-0.3,0.3-0.4,0.6-0.4,1
		c0,0.4,0.1,0.7,0.4,1C278.4,74.6,278.7,74.7,279.1,74.7z"/>
	<path fill="#454545" d="M282.6,73.8l-0.3-0.2c0.1-0.2,0.2-0.4,0.2-0.5c0-0.1,0.1-0.3,0.1-0.5h-0.4v-1.2h0.8v0.7
		c0,0.4,0,0.7-0.1,0.9C282.8,73.2,282.7,73.5,282.6,73.8z M284.5,73.8l-0.3-0.2c0.1-0.2,0.2-0.4,0.2-0.5c0-0.1,0.1-0.3,0.1-0.5h-0.4
		v-1.2h0.8v0.7c0,0.4,0,0.7-0.1,0.9C284.7,73.2,284.6,73.5,284.5,73.8z"/>
	<path fill="#454545" d="M382.9,85.3h1.2v6.4h-0.6v-5.8h-1L382.9,85.3z"/>
	<path fill="#454545" d="M387,87.3h-0.6c0-0.6,0.2-1.1,0.6-1.6c0.4-0.4,0.9-0.6,1.4-0.6c0.6,0,1,0.2,1.4,0.6
		c0.3,0.4,0.5,0.8,0.5,1.3c0,0.4-0.1,0.7-0.2,1c-0.2,0.3-0.5,0.7-1,1.3l-1.5,1.7h2.8v0.6h-4.2l2.3-2.6c0.5-0.5,0.8-0.9,0.9-1.2
		c0.1-0.3,0.2-0.5,0.2-0.8c0-0.4-0.1-0.7-0.4-0.9c-0.3-0.3-0.6-0.4-0.9-0.4c-0.4,0-0.7,0.1-1,0.4C387.1,86.4,387,86.8,387,87.3z"/>
	<path fill="#454545" d="M392.1,87.5l-0.3-0.2c0.1-0.2,0.2-0.4,0.2-0.5c0-0.1,0.1-0.3,0.1-0.5h-0.4v-1.2h0.8v0.7
		c0,0.4,0,0.7-0.1,0.9C392.3,87,392.2,87.2,392.1,87.5z"/>
	<path fill="#454545" d="M393.9,89h2.3v0.5h-2.3V89z"/>
	<path fill="#454545" d="M400,85.1h0.1v4.5h0.7v0.6h-0.7v1.5h-0.6v-1.5h-2.9L400,85.1z M399.5,89.6v-2.7l-1.8,2.7H399.5z"/>
	<path fill="#454545" d="M402.2,87.5l-0.3-0.2c0.1-0.2,0.2-0.4,0.2-0.5c0-0.1,0.1-0.3,0.1-0.5h-0.4v-1.2h0.8v0.7
		c0,0.4,0,0.7-0.1,0.9C402.4,87,402.3,87.2,402.2,87.5z M404,87.5l-0.3-0.2c0.1-0.2,0.2-0.4,0.2-0.5c0-0.1,0.1-0.3,0.1-0.5h-0.4
		v-1.2h0.8v0.7c0,0.4,0,0.7-0.1,0.9C404.3,87,404.2,87.2,404,87.5z"/>
	<path fill="#454545" d="M405.2,87h0.7l1.2,1.7l1.2-1.7h0.7l-1.5,2.2l1.7,2.5h-0.7l-1.4-2l-1.4,2h-0.7l1.7-2.5L405.2,87z"/>
	<path fill="#454545" d="M410.8,91.9l-0.5-0.3l1.7-2.6c-0.2,0.1-0.4,0.1-0.6,0.1c-0.5,0-0.9-0.2-1.2-0.6c-0.3-0.4-0.5-0.8-0.5-1.4
		c0-0.4,0.1-0.7,0.2-1c0.2-0.3,0.4-0.5,0.7-0.7c0.3-0.2,0.6-0.3,1-0.3c0.3,0,0.7,0.1,0.9,0.3c0.3,0.2,0.5,0.4,0.7,0.7
		c0.2,0.3,0.2,0.6,0.2,1c0,0.3-0.1,0.5-0.2,0.8c-0.1,0.3-0.3,0.6-0.5,1L410.8,91.9z M411.5,88.4c0.4,0,0.7-0.1,0.9-0.4
		c0.3-0.3,0.4-0.6,0.4-1c0-0.4-0.1-0.7-0.4-1c-0.3-0.3-0.6-0.4-0.9-0.4c-0.4,0-0.7,0.1-0.9,0.4c-0.3,0.3-0.4,0.6-0.4,1
		c0,0.4,0.1,0.7,0.4,1C410.8,88.3,411.1,88.4,411.5,88.4z"/>
	<path fill="#454545" d="M415.3,87.5l-0.3-0.2c0.1-0.2,0.2-0.4,0.2-0.5c0-0.1,0.1-0.3,0.1-0.5h-0.4v-1.2h0.8v0.7
		c0,0.4,0,0.7-0.1,0.9C415.5,87,415.4,87.2,415.3,87.5z"/>
	<path fill="#454545" d="M417,89h2.3v0.5H417V89z"/>
	<path fill="#454545" d="M422.7,85.1l0.5,0.3l-1.7,2.6c0.2-0.1,0.4-0.1,0.6-0.1c0.5,0,0.9,0.2,1.2,0.6c0.3,0.4,0.5,0.8,0.5,1.4
		c0,0.4-0.1,0.7-0.2,1c-0.2,0.3-0.4,0.5-0.7,0.7c-0.3,0.2-0.6,0.3-1,0.3c-0.3,0-0.7-0.1-0.9-0.3c-0.3-0.2-0.5-0.4-0.7-0.7
		c-0.2-0.3-0.2-0.6-0.2-1c0-0.3,0.1-0.5,0.2-0.8c0.1-0.3,0.3-0.6,0.5-1L422.7,85.1z M422,88.5c-0.4,0-0.7,0.1-0.9,0.4
		c-0.3,0.3-0.4,0.6-0.4,1c0,0.4,0.1,0.7,0.4,1c0.3,0.3,0.6,0.4,0.9,0.4c0.4,0,0.7-0.1,0.9-0.4c0.3-0.3,0.4-0.6,0.4-1
		c0-0.4-0.1-0.7-0.4-1C422.7,88.7,422.4,88.5,422,88.5z"/>
	<path fill="#454545" d="M425.4,87.5l-0.3-0.2c0.1-0.2,0.2-0.4,0.2-0.5c0-0.1,0.1-0.3,0.1-0.5H425v-1.2h0.8v0.7c0,0.4,0,0.7-0.1,0.9
		C425.6,87,425.5,87.2,425.4,87.5z M427.2,87.5l-0.3-0.2c0.1-0.2,0.2-0.4,0.2-0.5c0-0.1,0.1-0.3,0.1-0.5h-0.4v-1.2h0.8v0.7
		c0,0.4,0,0.7-0.1,0.9C427.5,87,427.4,87.2,427.2,87.5z"/>
	<path fill="#454545" d="M227.7,127.6h0.9c0.5,0,0.8,0,1,0.1c0.2,0.1,0.5,0.2,0.6,0.4c0.2,0.2,0.2,0.4,0.2,0.7
		c0,0.3-0.1,0.5-0.2,0.7c-0.2,0.2-0.4,0.3-0.6,0.4c-0.2,0-0.6,0.1-1.1,0.1h-0.3v1.9h-0.4V127.6z M228.2,128v1.4l0.7,0
		c0.3,0,0.5,0,0.7-0.1s0.2-0.1,0.3-0.2c0.1-0.1,0.1-0.2,0.1-0.4c0-0.1,0-0.3-0.1-0.4c-0.1-0.1-0.2-0.2-0.3-0.2
		c-0.1,0-0.3-0.1-0.6-0.1H228.2z"/>
	<path fill="#454545" d="M233.1,127.6l2,4.1h-0.5l-0.7-1.4h-1.9l-0.7,1.4h-0.5l2.1-4.1H233.1z M233,128.5l-0.7,1.5h1.5L233,128.5z"
		/>
	<path fill="#454545" d="M235.7,131.7v-4.1h0.1l2.9,3.2v-3.2h0.4v4.1h-0.1l-2.9-3.1v3.1H235.7z"/>
	<path fill="#454545" d="M239.7,128v-0.4h2.4v0.4h-1v3.7h-0.4V128H239.7z"/>
	<path fill="#454545" d="M242.7,127.6h0.9c0.5,0,0.8,0,1,0.1c0.3,0.1,0.5,0.2,0.6,0.4c0.2,0.2,0.2,0.4,0.2,0.7
		c0,0.2-0.1,0.4-0.2,0.6c-0.1,0.2-0.3,0.3-0.5,0.4c-0.2,0.1-0.5,0.1-0.9,0.1l1.6,1.9H245l-1.6-1.9h-0.2v1.9h-0.4V127.6z M243.2,128
		v1.4l0.8,0c0.3,0,0.5,0,0.6-0.1c0.1-0.1,0.2-0.1,0.3-0.3c0.1-0.1,0.1-0.2,0.1-0.4c0-0.1,0-0.3-0.1-0.4c-0.1-0.1-0.2-0.2-0.3-0.2
		c-0.1,0-0.3-0.1-0.6-0.1H243.2z"/>
	<path fill="#454545" d="M246,127.6h0.5l1.1,1.7l1.1-1.7h0.5l-1.4,2.1v2h-0.4v-2L246,127.6z"/>
	<path fill="#454545" d="M112.7,65.5c0.7,0,1.2,0.2,1.7,0.6c0.4,0.4,0.7,0.9,0.7,1.5c0,0.6-0.2,1.1-0.7,1.5c-0.4,0.4-1,0.6-1.6,0.6
		c-0.6,0-1.2-0.2-1.6-0.6c-0.4-0.4-0.7-0.9-0.7-1.5c0-0.4,0.1-0.8,0.3-1.1c0.2-0.3,0.5-0.6,0.8-0.8
		C111.9,65.6,112.3,65.5,112.7,65.5z M112.7,65.9c-0.3,0-0.6,0.1-0.9,0.2c-0.3,0.2-0.5,0.4-0.7,0.6c-0.2,0.3-0.2,0.6-0.2,0.9
		c0,0.5,0.2,0.9,0.5,1.2c0.4,0.3,0.8,0.5,1.3,0.5c0.3,0,0.7-0.1,0.9-0.2c0.3-0.2,0.5-0.4,0.7-0.6c0.2-0.3,0.2-0.6,0.2-0.9
		c0-0.3-0.1-0.6-0.2-0.9c-0.2-0.3-0.4-0.5-0.7-0.6C113.4,66,113.1,65.9,112.7,65.9z"/>
	<path fill="#454545" d="M115.9,65.6h0.9c0.5,0,0.8,0,1,0.1c0.2,0.1,0.5,0.2,0.6,0.4c0.2,0.2,0.2,0.4,0.2,0.7c0,0.3-0.1,0.5-0.2,0.7
		c-0.2,0.2-0.4,0.3-0.6,0.4c-0.2,0-0.6,0.1-1.1,0.1h-0.3v1.9h-0.4V65.6z M116.3,66v1.4l0.7,0c0.3,0,0.5,0,0.7-0.1
		c0.1-0.1,0.2-0.1,0.3-0.2c0.1-0.1,0.1-0.2,0.1-0.4c0-0.1,0-0.3-0.1-0.4c-0.1-0.1-0.2-0.2-0.3-0.2c-0.1,0-0.3-0.1-0.6-0.1H116.3z"/>
	<path fill="#454545" d="M119,66v-0.4h2.4V66h-1v3.7H120V66H119z"/>
	<path fill="#454545" d="M122.4,69.1c0.1,0,0.2,0,0.3,0.1c0.1,0.1,0.1,0.1,0.1,0.2c0,0.1,0,0.2-0.1,0.2c-0.1,0.1-0.2,0.1-0.3,0.1
		c-0.1,0-0.2,0-0.3-0.1c-0.1-0.1-0.1-0.1-0.1-0.2c0-0.1,0-0.2,0.1-0.2C122.2,69.2,122.3,69.1,122.4,69.1z"/>
	<path fill="#454545" d="M110.9,72.8h0.4v3.7h1.7v0.4h-2.1V72.8z"/>
	<path fill="#454545" d="M115.4,72.8l2,4.1H117l-0.7-1.4h-1.9l-0.7,1.4h-0.5l2.1-4.1H115.4z M115.4,73.7l-0.7,1.5h1.5L115.4,73.7z"
		/>
	<path fill="#454545" d="M118.1,72.8h0.4v2.5c0,0.3,0,0.5,0,0.6c0,0.2,0.1,0.3,0.2,0.4c0.1,0.1,0.2,0.2,0.4,0.3
		c0.2,0.1,0.3,0.1,0.5,0.1c0.1,0,0.3,0,0.4-0.1c0.1-0.1,0.2-0.1,0.3-0.2c0.1-0.1,0.2-0.2,0.2-0.4c0-0.1,0-0.3,0-0.6v-2.5h0.4v2.5
		c0,0.4,0,0.7-0.1,0.9c-0.1,0.2-0.2,0.4-0.5,0.6c-0.2,0.2-0.5,0.3-0.8,0.3c-0.4,0-0.7-0.1-0.9-0.2s-0.4-0.4-0.5-0.6
		c-0.1-0.2-0.1-0.4-0.1-0.9V72.8z"/>
	<path fill="#454545" d="M122.1,76.9v-4.1h0.1l2.9,3.2v-3.2h0.4v4.1h-0.1l-2.9-3.1v3.1H122.1z"/>
	<path fill="#454545" d="M126.5,76.9v-4.1h0.9c0.7,0,1.1,0,1.4,0.1c0.4,0.1,0.8,0.4,1,0.7c0.2,0.3,0.4,0.8,0.4,1.2
		c0,0.4-0.1,0.8-0.3,1.1c-0.2,0.3-0.4,0.5-0.7,0.7c-0.3,0.1-0.7,0.2-1.3,0.2H126.5z M126.9,76.5h0.5c0.6,0,1,0,1.3-0.1
		c0.3-0.1,0.6-0.3,0.8-0.5c0.2-0.3,0.3-0.6,0.3-1c0-0.4-0.1-0.7-0.3-1c-0.2-0.3-0.5-0.5-0.9-0.6c-0.3-0.1-0.7-0.1-1.4-0.1h-0.3V76.5
		z"/>
	<path fill="#454545" d="M131,72.8h0.9c0.5,0,0.8,0,1,0.1c0.3,0.1,0.5,0.2,0.6,0.4c0.2,0.2,0.2,0.4,0.2,0.7c0,0.2-0.1,0.4-0.2,0.6
		c-0.1,0.2-0.3,0.3-0.5,0.4c-0.2,0.1-0.5,0.1-0.9,0.1l1.6,1.9h-0.5l-1.6-1.9h-0.2v1.9H131V72.8z M131.4,73.2v1.4l0.8,0
		c0.3,0,0.5,0,0.6-0.1c0.1-0.1,0.2-0.1,0.3-0.3c0.1-0.1,0.1-0.2,0.1-0.4c0-0.1,0-0.3-0.1-0.4c-0.1-0.1-0.2-0.2-0.3-0.2
		c-0.1,0-0.3-0.1-0.6-0.1H131.4z"/>
	<path fill="#454545" d="M134.3,72.8h0.5l1.1,1.7l1.1-1.7h0.5l-1.4,2.1v2h-0.4v-2L134.3,72.8z"/>
	<path fill="#454545" d="M198.2,257.5h1.2v6.5h-0.6v-5.8h-1L198.2,257.5z"/>
	<path fill="#454545" d="M201.5,260.8c0-0.9,0.1-1.5,0.3-2c0.2-0.5,0.4-0.8,0.7-1.1c0.3-0.2,0.7-0.4,1.1-0.4c0.4,0,0.8,0.1,1.1,0.4
		c0.3,0.2,0.6,0.6,0.8,1.1c0.2,0.5,0.3,1.1,0.3,1.9c0,0.8-0.1,1.5-0.3,1.9c-0.2,0.5-0.4,0.8-0.8,1.1c-0.3,0.2-0.7,0.4-1.1,0.4
		c-0.4,0-0.7-0.1-1.1-0.4c-0.3-0.2-0.6-0.6-0.7-1.1C201.6,262.3,201.5,261.6,201.5,260.8z M202.1,260.8c0,0.7,0.1,1.3,0.2,1.7
		c0.1,0.4,0.3,0.7,0.6,0.8c0.2,0.2,0.5,0.3,0.8,0.3c0.3,0,0.5-0.1,0.8-0.3c0.2-0.2,0.4-0.5,0.5-0.8c0.2-0.5,0.2-1,0.2-1.7
		c0-0.6-0.1-1.2-0.2-1.6c-0.1-0.4-0.3-0.7-0.6-0.9c-0.2-0.2-0.5-0.3-0.8-0.3c-0.3,0-0.5,0.1-0.8,0.3c-0.2,0.2-0.4,0.5-0.5,0.8
		C202.2,259.5,202.1,260,202.1,260.8z"/>
	<path fill="#454545" d="M207.3,259.8l-0.3-0.2c0.1-0.2,0.2-0.4,0.2-0.5c0-0.1,0.1-0.3,0.1-0.5h-0.4v-1.2h0.8v0.8
		c0,0.4,0,0.7-0.1,0.9C207.6,259.2,207.5,259.5,207.3,259.8z"/>
	<path fill="#454545" d="M209.1,261.3h2.3v0.5h-2.3V261.3z"/>
	<path fill="#454545" d="M214.8,260.4c0.4,0.2,0.7,0.5,0.9,0.7c0.2,0.3,0.3,0.6,0.3,0.9c0,0.5-0.2,0.9-0.5,1.3
		c-0.4,0.5-0.9,0.7-1.6,0.7c-0.7,0-1.2-0.2-1.6-0.6c-0.4-0.4-0.5-0.9-0.5-1.3c0-0.4,0.1-0.7,0.3-1c0.2-0.3,0.5-0.5,0.9-0.8
		c-0.3-0.2-0.5-0.4-0.7-0.6c-0.2-0.2-0.2-0.5-0.2-0.8c0-0.3,0.1-0.6,0.2-0.8c0.2-0.3,0.4-0.5,0.7-0.6c0.3-0.2,0.6-0.2,0.9-0.2
		c0.3,0,0.6,0.1,0.9,0.2c0.3,0.2,0.5,0.4,0.6,0.6c0.2,0.3,0.2,0.5,0.2,0.8c0,0.3-0.1,0.6-0.2,0.8
		C215.3,260.1,215.1,260.3,214.8,260.4z M213.9,260.8c-0.4,0-0.8,0.1-1.1,0.4c-0.3,0.3-0.4,0.6-0.4,1c0,0.2,0.1,0.5,0.2,0.7
		c0.1,0.2,0.3,0.4,0.5,0.5c0.2,0.1,0.5,0.2,0.8,0.2c0.4,0,0.8-0.1,1.1-0.4c0.3-0.3,0.4-0.6,0.4-1c0-0.4-0.1-0.7-0.4-1
		C214.7,260.9,214.3,260.8,213.9,260.8z M213.9,258c-0.3,0-0.6,0.1-0.8,0.3c-0.2,0.2-0.3,0.5-0.3,0.7c0,0.3,0.1,0.5,0.4,0.8
		c0.2,0.2,0.5,0.3,0.8,0.3c0.2,0,0.4-0.1,0.6-0.2c0.2-0.1,0.3-0.2,0.4-0.4c0.1-0.2,0.2-0.4,0.2-0.6c0-0.3-0.1-0.5-0.3-0.7
		C214.6,258.1,214.3,258,213.9,258z"/>
	<path fill="#454545" d="M217.3,259.8l-0.3-0.2c0.1-0.2,0.2-0.4,0.2-0.5c0-0.1,0.1-0.3,0.1-0.5h-0.4v-1.2h0.8v0.8
		c0,0.4,0,0.7-0.1,0.9C217.6,259.2,217.5,259.5,217.3,259.8z M219.2,259.8l-0.3-0.2c0.1-0.2,0.2-0.4,0.2-0.5c0-0.1,0.1-0.3,0.1-0.5
		h-0.4v-1.2h0.8v0.8c0,0.4,0,0.7-0.1,0.9C219.4,259.2,219.3,259.5,219.2,259.8z"/>
	<path fill="#454545" d="M220.3,259.2h0.7l1.2,1.7l1.2-1.7h0.7l-1.6,2.3l1.8,2.5h-0.7l-1.4-2l-1.4,2h-0.7l1.7-2.5L220.3,259.2z"/>
	<path fill="#454545" d="M225.8,264.1l-0.5-0.3l1.7-2.6c-0.2,0.1-0.4,0.1-0.6,0.1c-0.5,0-0.9-0.2-1.2-0.6c-0.3-0.4-0.5-0.8-0.5-1.4
		c0-0.4,0.1-0.7,0.2-1c0.2-0.3,0.4-0.5,0.7-0.7c0.3-0.2,0.6-0.3,1-0.3c0.3,0,0.7,0.1,0.9,0.3c0.3,0.2,0.5,0.4,0.7,0.7
		c0.2,0.3,0.2,0.6,0.2,1c0,0.3-0.1,0.5-0.2,0.8c-0.1,0.3-0.3,0.6-0.5,1.1L225.8,264.1z M226.5,260.7c0.4,0,0.7-0.1,0.9-0.4
		c0.3-0.3,0.4-0.6,0.4-1c0-0.4-0.1-0.7-0.4-1c-0.3-0.3-0.6-0.4-0.9-0.4c-0.4,0-0.7,0.1-0.9,0.4c-0.3,0.3-0.4,0.6-0.4,1
		c0,0.4,0.1,0.7,0.4,1C225.9,260.6,226.2,260.7,226.5,260.7z"/>
	<path fill="#454545" d="M230.3,259.8l-0.3-0.2c0.1-0.2,0.2-0.4,0.2-0.5c0-0.1,0.1-0.3,0.1-0.5h-0.4v-1.2h0.8v0.8
		c0,0.4,0,0.7-0.1,0.9C230.5,259.2,230.4,259.5,230.3,259.8z"/>
	<path fill="#454545" d="M232,261.3h2.3v0.5H232V261.3z"/>
	<path fill="#454545" d="M236.1,264.1l-0.5-0.3l1.7-2.6c-0.2,0.1-0.4,0.1-0.6,0.1c-0.5,0-0.9-0.2-1.2-0.6c-0.3-0.4-0.5-0.8-0.5-1.4
		c0-0.4,0.1-0.7,0.2-1c0.2-0.3,0.4-0.5,0.7-0.7c0.3-0.2,0.6-0.3,1-0.3c0.3,0,0.7,0.1,0.9,0.3c0.3,0.2,0.5,0.4,0.7,0.7
		c0.2,0.3,0.2,0.6,0.2,1c0,0.3-0.1,0.5-0.2,0.8c-0.1,0.3-0.3,0.6-0.5,1.1L236.1,264.1z M236.8,260.7c0.4,0,0.7-0.1,0.9-0.4
		c0.3-0.3,0.4-0.6,0.4-1c0-0.4-0.1-0.7-0.4-1c-0.3-0.3-0.6-0.4-0.9-0.4c-0.4,0-0.7,0.1-0.9,0.4c-0.3,0.3-0.4,0.6-0.4,1
		c0,0.4,0.1,0.7,0.4,1C236.1,260.6,236.4,260.7,236.8,260.7z"/>
	<path fill="#454545" d="M240.3,259.8l-0.3-0.2c0.1-0.2,0.2-0.4,0.2-0.5c0-0.1,0.1-0.3,0.1-0.5h-0.4v-1.2h0.8v0.8
		c0,0.4,0,0.7-0.1,0.9C240.5,259.2,240.4,259.5,240.3,259.8z M242.1,259.8l-0.3-0.2c0.1-0.2,0.2-0.4,0.2-0.5c0-0.1,0.1-0.3,0.1-0.5
		h-0.4v-1.2h0.8v0.8c0,0.4,0,0.7-0.1,0.9C242.4,259.2,242.3,259.5,242.1,259.8z"/>
	<path fill="#454545" d="M48.7,248.8h1.2v6.5h-0.6v-5.8h-1L48.7,248.8z"/>
	<path fill="#454545" d="M53.4,248.8h1.2v6.5H54v-5.8h-1L53.4,248.8z"/>
	<path fill="#454545" d="M57.9,251l-0.3-0.2c0.1-0.2,0.2-0.4,0.2-0.5c0-0.1,0.1-0.3,0.1-0.5h-0.4v-1.2h0.8v0.8c0,0.4,0,0.7-0.1,0.9
		C58.1,250.5,58,250.7,57.9,251z"/>
	<path fill="#454545" d="M59.6,252.5h2.3v0.5h-2.3V252.5z"/>
	<path fill="#454545" d="M65.3,251.7c0.4,0.2,0.7,0.5,0.9,0.7c0.2,0.3,0.3,0.6,0.3,0.9c0,0.5-0.2,0.9-0.5,1.3
		c-0.4,0.5-0.9,0.7-1.6,0.7c-0.7,0-1.2-0.2-1.6-0.6c-0.4-0.4-0.5-0.9-0.5-1.3c0-0.4,0.1-0.7,0.3-1c0.2-0.3,0.5-0.5,0.9-0.8
		c-0.3-0.2-0.5-0.4-0.7-0.6c-0.2-0.2-0.2-0.5-0.2-0.8c0-0.3,0.1-0.6,0.2-0.8c0.2-0.3,0.4-0.5,0.7-0.6c0.3-0.2,0.6-0.2,0.9-0.2
		c0.3,0,0.6,0.1,0.9,0.2c0.3,0.2,0.5,0.4,0.6,0.6c0.2,0.3,0.2,0.5,0.2,0.8c0,0.3-0.1,0.6-0.2,0.8C65.9,251.3,65.6,251.5,65.3,251.7z
		 M64.5,252c-0.4,0-0.8,0.1-1.1,0.4c-0.3,0.3-0.4,0.6-0.4,1c0,0.2,0.1,0.5,0.2,0.7c0.1,0.2,0.3,0.4,0.5,0.5c0.2,0.1,0.5,0.2,0.8,0.2
		c0.4,0,0.8-0.1,1.1-0.4c0.3-0.3,0.4-0.6,0.4-1c0-0.4-0.1-0.7-0.4-1C65.2,252.1,64.9,252,64.5,252z M64.4,249.2
		c-0.3,0-0.6,0.1-0.8,0.3c-0.2,0.2-0.3,0.5-0.3,0.7c0,0.3,0.1,0.5,0.4,0.8c0.2,0.2,0.5,0.3,0.8,0.3c0.2,0,0.4-0.1,0.6-0.2
		c0.2-0.1,0.3-0.2,0.4-0.4c0.1-0.2,0.2-0.4,0.2-0.6c0-0.3-0.1-0.5-0.3-0.7C65.1,249.3,64.8,249.2,64.4,249.2z"/>
	<path fill="#454545" d="M67.8,251l-0.3-0.2c0.1-0.2,0.2-0.4,0.2-0.5c0-0.1,0.1-0.3,0.1-0.5h-0.4v-1.2h0.8v0.8c0,0.4,0,0.7-0.1,0.9
		C68.1,250.5,68,250.7,67.8,251z M69.7,251l-0.3-0.2c0.1-0.2,0.2-0.4,0.2-0.5c0-0.1,0.1-0.3,0.1-0.5h-0.4v-1.2h0.8v0.8
		c0,0.4,0,0.7-0.1,0.9C69.9,250.5,69.9,250.7,69.7,251z"/>
	<path fill="#454545" d="M70.9,250.4h0.7l1.2,1.7l1.2-1.7h0.7l-1.6,2.3l1.8,2.5h-0.7l-1.4-2l-1.4,2h-0.7l1.7-2.5L70.9,250.4z"/>
	<path fill="#454545" d="M76.4,255.4l-0.5-0.3l1.7-2.6c-0.2,0.1-0.4,0.1-0.6,0.1c-0.5,0-0.9-0.2-1.2-0.6c-0.3-0.4-0.5-0.8-0.5-1.4
		c0-0.4,0.1-0.7,0.2-1c0.2-0.3,0.4-0.5,0.7-0.7c0.3-0.2,0.6-0.3,1-0.3c0.3,0,0.7,0.1,0.9,0.3c0.3,0.2,0.5,0.4,0.7,0.7
		c0.2,0.3,0.2,0.6,0.2,1c0,0.3-0.1,0.5-0.2,0.8c-0.1,0.3-0.3,0.6-0.5,1.1L76.4,255.4z M77.1,251.9c0.4,0,0.7-0.1,0.9-0.4
		c0.3-0.3,0.4-0.6,0.4-1c0-0.4-0.1-0.7-0.4-1c-0.3-0.3-0.6-0.4-0.9-0.4c-0.4,0-0.7,0.1-0.9,0.4c-0.3,0.3-0.4,0.6-0.4,1
		c0,0.4,0.1,0.7,0.4,1C76.4,251.8,76.7,251.9,77.1,251.9z"/>
	<path fill="#454545" d="M80.8,251l-0.3-0.2c0.1-0.2,0.2-0.4,0.2-0.5c0-0.1,0.1-0.3,0.1-0.5h-0.4v-1.2h0.8v0.8c0,0.4,0,0.7-0.1,0.9
		C81.1,250.5,81,250.7,80.8,251z"/>
	<path fill="#454545" d="M82.5,252.5h2.3v0.5h-2.3V252.5z"/>
	<path fill="#454545" d="M86.6,248.8h1.2v6.5h-0.6v-5.8h-1L86.6,248.8z"/>
	<path fill="#454545" d="M89.9,252c0-0.9,0.1-1.5,0.3-2c0.2-0.5,0.4-0.8,0.7-1.1c0.3-0.2,0.7-0.4,1.1-0.4c0.4,0,0.8,0.1,1.1,0.4
		c0.3,0.2,0.6,0.6,0.8,1.1c0.2,0.5,0.3,1.1,0.3,1.9c0,0.8-0.1,1.5-0.3,1.9c-0.2,0.5-0.4,0.8-0.8,1.1c-0.3,0.2-0.7,0.4-1.1,0.4
		c-0.4,0-0.7-0.1-1.1-0.4c-0.3-0.2-0.6-0.6-0.7-1.1C90,253.5,89.9,252.8,89.9,252z M90.5,252c0,0.7,0.1,1.3,0.2,1.7
		c0.1,0.4,0.3,0.7,0.6,0.8c0.2,0.2,0.5,0.3,0.8,0.3c0.3,0,0.5-0.1,0.8-0.3c0.2-0.2,0.4-0.5,0.5-0.8c0.2-0.5,0.2-1,0.2-1.7
		c0-0.6-0.1-1.2-0.2-1.6c-0.1-0.4-0.3-0.7-0.6-0.9c-0.2-0.2-0.5-0.3-0.8-0.3c-0.3,0-0.5,0.1-0.8,0.3c-0.2,0.2-0.4,0.5-0.5,0.8
		C90.6,250.7,90.5,251.3,90.5,252z"/>
	<path fill="#454545" d="M95.4,251l-0.3-0.2c0.1-0.2,0.2-0.4,0.2-0.5c0-0.1,0.1-0.3,0.1-0.5H95v-1.2h0.8v0.8c0,0.4,0,0.7-0.1,0.9
		C95.7,250.5,95.6,250.7,95.4,251z M97.3,251l-0.3-0.2c0.1-0.2,0.2-0.4,0.2-0.5c0-0.1,0.1-0.3,0.1-0.5h-0.4v-1.2h0.8v0.8
		c0,0.4,0,0.7-0.1,0.9C97.5,250.5,97.4,250.7,97.3,251z"/>
	<path fill="#454545" d="M386.2,258.7h1.2v6.5h-0.6v-5.8h-1L386.2,258.7z"/>
	<path fill="#454545" d="M390.3,260.7h-0.6c0-0.6,0.2-1.2,0.6-1.6c0.4-0.4,0.9-0.6,1.4-0.6c0.6,0,1,0.2,1.4,0.6
		c0.4,0.4,0.5,0.8,0.5,1.4c0,0.4-0.1,0.7-0.2,1c-0.2,0.3-0.5,0.8-1,1.3l-1.5,1.7h2.8v0.6h-4.2l2.4-2.7c0.5-0.5,0.8-0.9,0.9-1.2
		c0.1-0.3,0.2-0.5,0.2-0.8c0-0.4-0.1-0.7-0.4-0.9c-0.3-0.3-0.6-0.4-1-0.4c-0.4,0-0.7,0.1-1,0.4C390.5,259.9,390.3,260.2,390.3,260.7
		z"/>
	<path fill="#454545" d="M395.4,261l-0.3-0.2c0.1-0.2,0.2-0.4,0.2-0.5c0-0.1,0.1-0.3,0.1-0.5H395v-1.2h0.8v0.8c0,0.4,0,0.7-0.1,0.9
		C395.6,260.4,395.5,260.7,395.4,261z"/>
	<path fill="#454545" d="M397.1,262.5h2.3v0.5h-2.3V262.5z"/>
	<path fill="#454545" d="M401.1,258.7h1.2v6.5h-0.6v-5.8h-1L401.1,258.7z"/>
	<path fill="#454545" d="M405.8,258.7h1.2v6.5h-0.6v-5.8h-1L405.8,258.7z"/>
	<path fill="#454545" d="M410,261l-0.3-0.2c0.1-0.2,0.2-0.4,0.2-0.5c0-0.1,0.1-0.3,0.1-0.5h-0.4v-1.2h0.8v0.8c0,0.4,0,0.7-0.1,0.9
		C410.2,260.4,410.1,260.7,410,261z M411.9,261l-0.3-0.2c0.1-0.2,0.2-0.4,0.2-0.5c0-0.1,0.1-0.3,0.1-0.5h-0.4v-1.2h0.8v0.8
		c0,0.4,0,0.7-0.1,0.9C412.1,260.4,412,260.7,411.9,261z"/>
	<path fill="#454545" d="M413,260.4h0.7l1.2,1.7l1.2-1.7h0.7l-1.6,2.3l1.8,2.5h-0.7l-1.4-2l-1.4,2h-0.7l1.7-2.5L413,260.4z"/>
	<path fill="#454545" d="M418.5,258.7h1.2v6.5h-0.6v-5.8h-1L418.5,258.7z"/>
	<path fill="#454545" d="M421.8,262c0-0.9,0.1-1.5,0.3-2c0.2-0.5,0.4-0.8,0.7-1.1c0.3-0.2,0.7-0.4,1.1-0.4c0.4,0,0.8,0.1,1.1,0.4
		c0.3,0.2,0.6,0.6,0.8,1.1c0.2,0.5,0.3,1.1,0.3,1.9c0,0.8-0.1,1.5-0.3,1.9c-0.2,0.5-0.4,0.8-0.8,1.1c-0.3,0.2-0.7,0.4-1.1,0.4
		c-0.4,0-0.7-0.1-1.1-0.4c-0.3-0.2-0.6-0.6-0.7-1.1C421.9,263.5,421.8,262.8,421.8,262z M422.4,262c0,0.7,0.1,1.3,0.2,1.7
		c0.1,0.4,0.3,0.7,0.6,0.8c0.2,0.2,0.5,0.3,0.8,0.3c0.3,0,0.5-0.1,0.8-0.3c0.2-0.2,0.4-0.5,0.5-0.8c0.2-0.5,0.2-1,0.2-1.7
		c0-0.6-0.1-1.2-0.2-1.6c-0.1-0.4-0.3-0.7-0.6-0.9c-0.2-0.2-0.5-0.3-0.8-0.3c-0.3,0-0.5,0.1-0.8,0.3c-0.2,0.2-0.4,0.5-0.5,0.8
		C422.4,260.7,422.4,261.2,422.4,262z"/>
	<path fill="#454545" d="M427.6,261l-0.3-0.2c0.1-0.2,0.2-0.4,0.2-0.5c0-0.1,0.1-0.3,0.1-0.5h-0.4v-1.2h0.8v0.8c0,0.4,0,0.7-0.1,0.9
		C427.9,260.4,427.8,260.7,427.6,261z"/>
	<path fill="#454545" d="M429.3,262.5h2.3v0.5h-2.3V262.5z"/>
	<path fill="#454545" d="M432.8,260.7h-0.6c0-0.6,0.2-1.2,0.6-1.6c0.4-0.4,0.9-0.6,1.4-0.6c0.6,0,1,0.2,1.4,0.6
		c0.4,0.4,0.5,0.8,0.5,1.4c0,0.4-0.1,0.7-0.3,1c-0.2,0.3-0.5,0.8-1,1.3l-1.5,1.7h2.8v0.6h-4.2l2.4-2.7c0.5-0.5,0.8-0.9,0.9-1.2
		c0.1-0.3,0.2-0.5,0.2-0.8c0-0.4-0.1-0.7-0.4-0.9c-0.3-0.3-0.6-0.4-1-0.4c-0.4,0-0.7,0.1-1,0.4C433,259.9,432.8,260.2,432.8,260.7z"
		/>
	<path fill="#454545" d="M437.6,261l-0.3-0.2c0.1-0.2,0.2-0.4,0.2-0.5c0-0.1,0.1-0.3,0.1-0.5h-0.4v-1.2h0.8v0.8c0,0.4,0,0.7-0.1,0.9
		C437.8,260.4,437.7,260.7,437.6,261z M439.5,261l-0.3-0.2c0.1-0.2,0.2-0.4,0.2-0.5c0-0.1,0.1-0.3,0.1-0.5h-0.4v-1.2h0.8v0.8
		c0,0.4,0,0.7-0.1,0.9C439.7,260.4,439.6,260.7,439.5,261z"/>
	<path fill="#454545" d="M230.7,111.4h0.4v3.7h1.7v0.4h-2.1V111.4z"/>
	<path fill="#454545" d="M233.4,111.4h0.4v4.1h-0.4V111.4z"/>
	<path fill="#454545" d="M234.8,115.5v-4.1h0.1l2.9,3.2v-3.2h0.4v4.1h-0.1l-2.9-3.1v3.1H234.8z"/>
	<path fill="#454545" d="M239.2,111.4h2.5v0.4h-2.1v1.3h2.1v0.4h-2.1v1.6h2.1v0.4h-2.5V111.4z"/>
	<path fill="#454545" d="M242.4,115.5v-4.1h0.1l2.9,3.2v-3.2h0.4v4.1h-0.1l-2.9-3.1v3.1H242.4z"/>
	<path fill="#454545" d="M27,62.1h4v1.4h-2.5v1.4H31v1.4h-2.5v3.5H27V62.1z"/>
	<path fill="#454545" d="M36,61.9c1.1,0,2.1,0.4,2.9,1.2c0.8,0.8,1.2,1.7,1.2,2.9c0,1.1-0.4,2.1-1.2,2.8c-0.8,0.8-1.8,1.2-2.9,1.2
		c-1.2,0-2.2-0.4-3-1.2c-0.8-0.8-1.2-1.7-1.2-2.8c0-0.7,0.2-1.4,0.6-2c0.4-0.6,0.9-1.1,1.5-1.5C34.5,62,35.2,61.9,36,61.9z M36,63.3
		c-0.7,0-1.4,0.2-1.9,0.7c-0.5,0.5-0.8,1.1-0.8,1.9c0,0.8,0.3,1.5,1,2c0.5,0.4,1.1,0.6,1.7,0.6c0.7,0,1.3-0.3,1.9-0.8
		c0.5-0.5,0.8-1.1,0.8-1.9c0-0.7-0.3-1.3-0.8-1.9C37.3,63.5,36.7,63.3,36,63.3z"/>
	<path fill="#454545" d="M40.8,62.1h1.6l1.5,2.8l1.5-2.8h1.6l-2.3,4.4v3.3h-1.5v-3.3L40.8,62.1z"/>
	<path fill="#454545" d="M48.2,62.1h4.4v1.4h-2.9v1.4h2.9v1.4h-2.9v2h2.9v1.4h-4.4V62.1z"/>
	<path fill="#454545" d="M54,62.1h1.6c0.9,0,1.5,0.1,1.9,0.2c0.4,0.2,0.7,0.4,0.9,0.8c0.2,0.4,0.3,0.8,0.3,1.2
		c0,0.5-0.1,0.9-0.4,1.3c-0.3,0.3-0.6,0.6-1.1,0.8l1.9,3.4h-1.7l-1.8-3.3h-0.1v3.3H54V62.1z M55.5,65.1H56c0.5,0,0.8-0.1,1-0.2
		c0.2-0.1,0.3-0.3,0.3-0.6c0-0.2,0-0.3-0.1-0.4c-0.1-0.1-0.2-0.2-0.4-0.3c-0.2-0.1-0.4-0.1-0.8-0.1h-0.4V65.1z"/>
	<path fill="#454545" d="M28.5,124h1.8c1.2,0,2,0.1,2.6,0.4c0.6,0.3,1,0.7,1.4,1.3c0.4,0.6,0.6,1.4,0.6,2.2c0,0.6-0.1,1.1-0.3,1.6
		c-0.2,0.5-0.5,0.9-0.9,1.2c-0.4,0.3-0.8,0.6-1.2,0.7c-0.4,0.1-1.2,0.2-2.2,0.2h-1.8V124z M30,125.4v4.8h0.7c0.7,0,1.2-0.1,1.5-0.2
		c0.3-0.2,0.6-0.4,0.8-0.8c0.2-0.4,0.3-0.8,0.3-1.3c0-0.8-0.2-1.4-0.7-1.9c-0.4-0.4-1.1-0.6-2.1-0.6H30z"/>
	<path fill="#454545" d="M36,124h1.5v7.7H36V124z"/>
	<path fill="#454545" d="M39.1,124h1.5l3.4,5.1V124h1.5v7.7h-1.5l-3.4-5v5h-1.5V124z"/>
	<path fill="#454545" d="M47.1,124h1.5v7.7h-1.5V124z"/>
	<path fill="#454545" d="M50.2,124h1.5l3.4,5.1V124h1.5v7.7h-1.5l-3.4-5v5h-1.5V124z"/>
	<path fill="#454545" d="M65.7,125.3l-1.1,1c-0.7-0.7-1.5-1-2.4-1c-0.8,0-1.5,0.3-2,0.8c-0.5,0.5-0.8,1.1-0.8,1.8
		c0,0.7,0.3,1.4,0.8,1.9c0.6,0.5,1.2,0.8,2,0.8c0.5,0,1-0.1,1.3-0.3s0.7-0.5,0.9-1h-2.3v-1.4h4l0,0.3c0,0.7-0.2,1.3-0.5,1.9
		c-0.4,0.6-0.8,1.1-1.4,1.4c-0.6,0.3-1.3,0.5-2,0.5c-0.8,0-1.6-0.2-2.2-0.5c-0.7-0.3-1.2-0.8-1.5-1.5c-0.4-0.6-0.6-1.3-0.6-2.1
		c0-1,0.4-1.9,1.1-2.7c0.8-0.9,1.9-1.3,3.3-1.3c0.7,0,1.4,0.1,2,0.4C64.7,124.4,65.2,124.8,65.7,125.3z"/>
	<path fill="#454545" d="M177.5,85.6v-7.7h1.3c0.7,0,1.3,0,1.6,0.1c0.5,0.1,0.9,0.3,1.1,0.7c0.3,0.3,0.4,0.7,0.4,1.2
		c0,0.3-0.1,0.6-0.2,0.8c-0.1,0.2-0.3,0.5-0.6,0.7c0.5,0.2,0.8,0.5,1.1,0.8c0.2,0.3,0.3,0.7,0.3,1.2c0,0.4-0.1,0.8-0.3,1.2
		c-0.2,0.4-0.5,0.6-0.9,0.8c-0.4,0.2-0.9,0.3-1.5,0.3H177.5z M179,79.3v1.6h0.3c0.4,0,0.6-0.1,0.8-0.2c0.2-0.1,0.3-0.4,0.3-0.6
		c0-0.2-0.1-0.4-0.3-0.6c-0.2-0.1-0.4-0.2-0.8-0.2H179z M179,82.2v2h0.4c0.6,0,1.1-0.1,1.3-0.2c0.2-0.2,0.3-0.4,0.3-0.7
		c0-0.3-0.1-0.6-0.4-0.8c-0.3-0.2-0.7-0.3-1.3-0.3H179z"/>
	<path fill="#454545" d="M186.3,77.9h1.5l3.1,7.7h-1.6l-0.6-1.6h-3.3l-0.7,1.6h-1.6L186.3,77.9z M187.1,79.9l-1.1,2.6h2.1
		L187.1,79.9z"/>
	<path fill="#454545" d="M192.6,84.1c0.2,0,0.4,0.1,0.6,0.2c0.2,0.2,0.3,0.4,0.3,0.6c0,0.2-0.1,0.4-0.3,0.6
		c-0.2,0.2-0.4,0.2-0.6,0.2c-0.2,0-0.4-0.1-0.6-0.2c-0.2-0.2-0.3-0.4-0.3-0.6c0-0.2,0.1-0.4,0.3-0.6
		C192.2,84.1,192.4,84.1,192.6,84.1z"/>
	<path fill="#454545" d="M198.9,80.3h-1.5c0-0.8,0.3-1.5,0.8-2c0.5-0.5,1.2-0.7,1.9-0.7c0.5,0,0.9,0.1,1.3,0.3
		c0.4,0.2,0.7,0.5,0.9,0.9c0.2,0.4,0.3,0.7,0.3,1.1c0,0.5-0.1,0.9-0.4,1.5c-0.3,0.5-0.8,1.1-1.5,1.9l-0.9,0.9h2.9v1.4h-5.6v-0.7
		l2.5-2.4c0.6-0.6,1-1,1.2-1.4c0.2-0.4,0.3-0.7,0.3-1c0-0.3-0.1-0.5-0.3-0.7c-0.2-0.2-0.5-0.3-0.8-0.3c-0.3,0-0.6,0.1-0.8,0.4
		C199.1,79.6,198.9,79.9,198.9,80.3z"/>
	<path fill="#454545" d="M235.3,59.8h1.5l1.9,5.4l1.9-5.4h1.5l1.3,7.7h-1.5l-0.9-4.9l-1.7,4.9H238l-1.7-4.9l-0.9,4.9h-1.5
		L235.3,59.8z"/>
	<path fill="#454545" d="M246.9,59.8h1.5l3.1,7.7h-1.6l-0.6-1.6H246l-0.7,1.6h-1.6L246.9,59.8z M247.7,61.9l-1.1,2.6h2.1L247.7,61.9
		z"/>
	<path fill="#454545" d="M256.7,60.9l-1.1,1c-0.4-0.5-0.8-0.8-1.2-0.8c-0.2,0-0.4,0.1-0.5,0.2c-0.1,0.1-0.2,0.2-0.2,0.3
		c0,0.1,0,0.3,0.1,0.4c0.1,0.2,0.5,0.5,1.1,1c0.6,0.5,0.9,0.8,1.1,0.9c0.3,0.3,0.5,0.6,0.7,0.9c0.1,0.3,0.2,0.6,0.2,0.9
		c0,0.6-0.2,1.2-0.7,1.6c-0.5,0.4-1,0.6-1.8,0.6c-0.6,0-1.1-0.1-1.5-0.4c-0.4-0.3-0.8-0.7-1.1-1.3l1.3-0.7c0.4,0.7,0.8,1,1.3,1
		c0.3,0,0.5-0.1,0.7-0.2c0.2-0.1,0.3-0.3,0.3-0.5c0-0.2-0.1-0.3-0.2-0.5c-0.1-0.2-0.4-0.4-0.9-0.8c-0.9-0.7-1.4-1.2-1.7-1.6
		c-0.3-0.4-0.4-0.7-0.4-1.1c0-0.5,0.2-1,0.6-1.4c0.4-0.4,0.9-0.6,1.6-0.6c0.4,0,0.8,0.1,1.1,0.3C255.9,60.1,256.3,60.4,256.7,60.9z"
		/>
	<path fill="#454545" d="M257.4,59.8h4.4v1.4h-1.5v6.2h-1.5v-6.2h-1.4V59.8z"/>
	<path fill="#454545" d="M262.7,59.8h4.4v1.4h-2.9v1.4h2.9v1.4h-2.9v2h2.9v1.4h-4.4V59.8z"/>
	<path fill="#454545" d="M268.5,59.8h1.6c0.9,0,1.5,0.1,1.9,0.2c0.4,0.2,0.7,0.4,0.9,0.8c0.2,0.4,0.3,0.8,0.3,1.2
		c0,0.5-0.1,0.9-0.4,1.3c-0.3,0.3-0.6,0.6-1.1,0.8l1.9,3.4H272l-1.8-3.3H270v3.3h-1.5V59.8z M270,62.8h0.5c0.5,0,0.8-0.1,1-0.2
		c0.2-0.1,0.3-0.3,0.3-0.6c0-0.2,0-0.3-0.1-0.4c-0.1-0.1-0.2-0.2-0.4-0.3c-0.2-0.1-0.4-0.1-0.8-0.1H270V62.8z"/>
	<path fill="#454545" d="M277.7,67.5v-7.7h1.3c0.7,0,1.3,0,1.6,0.1c0.5,0.1,0.9,0.3,1.1,0.7c0.3,0.3,0.4,0.7,0.4,1.2
		c0,0.3-0.1,0.6-0.2,0.8c-0.1,0.2-0.3,0.5-0.6,0.7c0.5,0.2,0.8,0.5,1.1,0.8c0.2,0.3,0.3,0.7,0.3,1.2c0,0.4-0.1,0.8-0.3,1.2
		c-0.2,0.4-0.5,0.6-0.9,0.8c-0.4,0.2-0.9,0.3-1.5,0.3H277.7z M279.2,61.2v1.6h0.3c0.4,0,0.6-0.1,0.8-0.2c0.2-0.1,0.3-0.4,0.3-0.6
		c0-0.2-0.1-0.4-0.3-0.6c-0.2-0.1-0.4-0.2-0.8-0.2H279.2z M279.2,64.2v2h0.4c0.6,0,1.1-0.1,1.3-0.2c0.2-0.2,0.3-0.4,0.3-0.7
		c0-0.3-0.1-0.6-0.4-0.8c-0.3-0.2-0.7-0.3-1.3-0.3H279.2z"/>
	<path fill="#454545" d="M286.4,59.8h1.5l3.1,7.7h-1.6l-0.6-1.6h-3.3l-0.7,1.6h-1.6L286.4,59.8z M287.2,61.9l-1.1,2.6h2.1
		L287.2,61.9z"/>
	<path fill="#454545" d="M292.8,66c0.2,0,0.4,0.1,0.6,0.2c0.2,0.2,0.2,0.4,0.2,0.6c0,0.2-0.1,0.4-0.2,0.6c-0.2,0.2-0.4,0.2-0.6,0.2
		c-0.2,0-0.4-0.1-0.6-0.2c-0.2-0.2-0.3-0.4-0.3-0.6c0-0.2,0.1-0.4,0.3-0.6C292.3,66.1,292.5,66,292.8,66z"/>
	<path fill="#454545" d="M370.8,74.1h1.5l1.9,5.4l1.9-5.4h1.5l1.3,7.7h-1.5l-0.9-4.9l-1.7,4.9h-1.3l-1.7-4.9l-0.9,4.9h-1.5
		L370.8,74.1z"/>
	<path fill="#454545" d="M382.4,74.1h1.5l3.1,7.7h-1.6l-0.6-1.6h-3.3l-0.7,1.6h-1.6L382.4,74.1z M383.2,76.1l-1.1,2.6h2.1
		L383.2,76.1z"/>
	<path fill="#454545" d="M392.2,75.1l-1.1,1c-0.4-0.5-0.8-0.8-1.2-0.8c-0.2,0-0.4,0.1-0.5,0.2c-0.1,0.1-0.2,0.2-0.2,0.3
		c0,0.1,0,0.3,0.1,0.4c0.1,0.2,0.5,0.5,1.1,1c0.6,0.5,0.9,0.8,1.1,0.9c0.3,0.3,0.5,0.6,0.7,0.9c0.1,0.3,0.2,0.6,0.2,0.9
		c0,0.6-0.2,1.2-0.7,1.6c-0.5,0.4-1,0.6-1.8,0.6c-0.6,0-1.1-0.1-1.5-0.4c-0.4-0.3-0.8-0.7-1.1-1.3l1.3-0.7c0.4,0.7,0.8,1,1.3,1
		c0.3,0,0.5-0.1,0.7-0.2c0.2-0.1,0.3-0.3,0.3-0.5c0-0.2-0.1-0.3-0.2-0.5c-0.1-0.2-0.4-0.4-0.9-0.8c-0.9-0.7-1.4-1.2-1.7-1.6
		c-0.3-0.4-0.4-0.7-0.4-1.1c0-0.5,0.2-1,0.6-1.4c0.4-0.4,0.9-0.6,1.6-0.6c0.4,0,0.8,0.1,1.1,0.3C391.4,74.3,391.8,74.7,392.2,75.1z"
		/>
	<path fill="#454545" d="M392.9,74.1h4.4v1.4h-1.5v6.2h-1.5v-6.2h-1.4V74.1z"/>
	<path fill="#454545" d="M398.2,74.1h4.4v1.4h-2.9v1.4h2.9v1.4h-2.9v2h2.9v1.4h-4.4V74.1z"/>
	<path fill="#454545" d="M404,74.1h1.6c0.9,0,1.5,0.1,1.9,0.2c0.4,0.2,0.7,0.4,0.9,0.8c0.2,0.4,0.3,0.8,0.3,1.2
		c0,0.5-0.1,0.9-0.4,1.3c-0.3,0.3-0.6,0.6-1.1,0.8l1.9,3.4h-1.7l-1.8-3.3h-0.1v3.3H404V74.1z M405.5,77.1h0.5c0.5,0,0.8-0.1,1-0.2
		c0.2-0.1,0.3-0.3,0.3-0.6c0-0.2,0-0.3-0.1-0.4c-0.1-0.1-0.2-0.2-0.4-0.3c-0.2-0.1-0.4-0.1-0.8-0.1h-0.4V77.1z"/>
	<path fill="#454545" d="M413.2,81.8v-7.7h1.3c0.7,0,1.3,0,1.6,0.1c0.5,0.1,0.9,0.3,1.1,0.7c0.3,0.3,0.4,0.7,0.4,1.2
		c0,0.3-0.1,0.6-0.2,0.8c-0.1,0.2-0.3,0.5-0.6,0.7c0.5,0.2,0.8,0.5,1.1,0.8c0.2,0.3,0.3,0.7,0.3,1.2c0,0.4-0.1,0.8-0.3,1.2
		c-0.2,0.4-0.5,0.6-0.9,0.8c-0.4,0.2-0.9,0.3-1.5,0.3H413.2z M414.7,75.5v1.6h0.3c0.4,0,0.6-0.1,0.8-0.2c0.2-0.1,0.3-0.4,0.3-0.6
		c0-0.2-0.1-0.4-0.3-0.6c-0.2-0.1-0.4-0.2-0.8-0.2H414.7z M414.7,78.4v2h0.4c0.6,0,1.1-0.1,1.3-0.2c0.2-0.2,0.3-0.4,0.3-0.7
		c0-0.3-0.1-0.6-0.4-0.8c-0.3-0.2-0.7-0.3-1.3-0.3H414.7z"/>
	<path fill="#454545" d="M419.5,74.1h1.8c1.2,0,2,0.1,2.6,0.4c0.6,0.3,1,0.7,1.4,1.3c0.4,0.6,0.6,1.4,0.6,2.2c0,0.6-0.1,1.1-0.3,1.6
		c-0.2,0.5-0.5,0.9-0.9,1.2c-0.4,0.3-0.8,0.6-1.2,0.7c-0.4,0.1-1.2,0.2-2.2,0.2h-1.8V74.1z M421,75.5v4.8h0.7c0.7,0,1.2-0.1,1.5-0.2
		c0.3-0.2,0.6-0.4,0.8-0.8c0.2-0.4,0.3-0.8,0.3-1.3c0-0.8-0.2-1.4-0.7-1.9c-0.4-0.4-1.1-0.6-2.1-0.6H421z"/>
	<path fill="#454545" d="M427.3,74.1h1.6c0.9,0,1.5,0.1,1.9,0.2c0.4,0.2,0.7,0.4,0.9,0.8c0.2,0.4,0.3,0.8,0.3,1.2
		c0,0.5-0.1,0.9-0.4,1.3c-0.3,0.3-0.6,0.6-1.1,0.8l1.9,3.4h-1.7l-1.8-3.3h-0.1v3.3h-1.5V74.1z M428.8,77.1h0.5c0.5,0,0.8-0.1,1-0.2
		c0.2-0.1,0.3-0.3,0.3-0.6c0-0.2,0-0.3-0.1-0.4c-0.1-0.1-0.2-0.2-0.4-0.3c-0.2-0.1-0.4-0.1-0.8-0.1h-0.4V77.1z"/>
	<path fill="#454545" d="M434.3,74.1h1.5l1.9,5.4l1.9-5.4h1.5l1.3,7.7h-1.5l-0.9-4.9l-1.7,4.9h-1.3l-1.7-4.9l-0.9,4.9h-1.5
		L434.3,74.1z"/>
	<path fill="#454545" d="M444,80.3c0.2,0,0.4,0.1,0.6,0.2c0.2,0.2,0.3,0.4,0.3,0.6c0,0.2-0.1,0.4-0.3,0.6c-0.2,0.2-0.4,0.2-0.6,0.2
		c-0.2,0-0.4-0.1-0.6-0.2c-0.2-0.2-0.2-0.4-0.2-0.6c0-0.2,0.1-0.4,0.2-0.6C443.6,80.4,443.8,80.3,444,80.3z"/>
	<path fill="#454545" d="M391.1,255.2v-7.7h1.3c0.7,0,1.3,0,1.6,0.1c0.5,0.1,0.9,0.3,1.1,0.7c0.3,0.3,0.4,0.7,0.4,1.2
		c0,0.3-0.1,0.6-0.2,0.8c-0.1,0.2-0.3,0.5-0.6,0.7c0.5,0.2,0.8,0.5,1.1,0.8c0.2,0.3,0.3,0.7,0.3,1.2c0,0.4-0.1,0.8-0.3,1.2
		c-0.2,0.4-0.5,0.6-0.9,0.8c-0.4,0.2-0.9,0.3-1.5,0.3H391.1z M392.6,248.9v1.6h0.3c0.4,0,0.6-0.1,0.8-0.2c0.2-0.1,0.3-0.4,0.3-0.6
		c0-0.2-0.1-0.4-0.3-0.6c-0.2-0.1-0.4-0.2-0.8-0.2H392.6z M392.6,251.9v2h0.4c0.6,0,1.1-0.1,1.3-0.2c0.2-0.2,0.3-0.4,0.3-0.7
		c0-0.3-0.1-0.6-0.4-0.8c-0.3-0.2-0.7-0.3-1.3-0.3H392.6z"/>
	<path fill="#454545" d="M397.4,247.5h1.8c1.2,0,2,0.1,2.6,0.4c0.6,0.3,1,0.7,1.4,1.3c0.4,0.6,0.6,1.4,0.6,2.2
		c0,0.6-0.1,1.1-0.3,1.6c-0.2,0.5-0.5,0.9-0.8,1.2c-0.4,0.3-0.8,0.6-1.2,0.7c-0.4,0.1-1.2,0.2-2.2,0.2h-1.8V247.5z M398.9,248.9v4.8
		h0.7c0.7,0,1.2-0.1,1.5-0.2c0.3-0.2,0.6-0.4,0.8-0.8c0.2-0.4,0.3-0.8,0.3-1.3c0-0.8-0.2-1.4-0.7-1.9c-0.4-0.4-1.1-0.6-2.1-0.6
		H398.9z"/>
	<path fill="#454545" d="M405.2,247.5h1.6c0.9,0,1.5,0.1,1.9,0.2c0.4,0.2,0.7,0.4,0.9,0.8c0.2,0.4,0.3,0.8,0.3,1.2
		c0,0.5-0.1,0.9-0.4,1.3c-0.3,0.3-0.6,0.6-1.1,0.8l1.9,3.4h-1.7l-1.8-3.3h-0.1v3.3h-1.5V247.5z M406.7,250.5h0.5
		c0.5,0,0.8-0.1,1-0.2c0.2-0.1,0.3-0.3,0.3-0.6c0-0.2,0-0.3-0.1-0.4c-0.1-0.1-0.2-0.2-0.4-0.3c-0.2-0.1-0.4-0.1-0.8-0.1h-0.4V250.5z
		"/>
	<path fill="#454545" d="M412.2,247.5h1.5l1.9,5.4l1.9-5.4h1.5l1.3,7.7h-1.5l-0.9-4.9l-1.7,4.9h-1.3l-1.7-4.9l-0.9,4.9h-1.5
		L412.2,247.5z"/>
	<path fill="#454545" d="M422,253.7c0.2,0,0.4,0.1,0.6,0.2c0.2,0.2,0.3,0.4,0.3,0.6c0,0.2-0.1,0.4-0.3,0.6c-0.2,0.2-0.4,0.2-0.6,0.2
		c-0.2,0-0.4-0.1-0.6-0.2c-0.2-0.2-0.2-0.4-0.2-0.6c0-0.2,0.1-0.4,0.2-0.6C421.5,253.8,421.7,253.7,422,253.7z"/>
	<path fill="#454545" d="M428.3,250h-1.5c0-0.8,0.3-1.5,0.8-2c0.5-0.5,1.2-0.7,1.9-0.7c0.5,0,0.9,0.1,1.3,0.3
		c0.4,0.2,0.7,0.5,0.9,0.9c0.2,0.4,0.3,0.7,0.3,1.1c0,0.5-0.1,0.9-0.4,1.5c-0.3,0.5-0.8,1.1-1.5,1.9l-0.9,0.9h2.9v1.4h-5.6v-0.7
		l2.5-2.4c0.6-0.6,1-1,1.2-1.4c0.2-0.4,0.3-0.7,0.3-1c0-0.3-0.1-0.5-0.3-0.7c-0.2-0.2-0.5-0.3-0.8-0.3c-0.3,0-0.6,0.1-0.8,0.3
		C428.4,249.3,428.3,249.6,428.3,250z"/>
	<path fill="#454545" d="M200.9,246.1h1.5v2.6l2.2-2.6h1.8l-2.8,3.4l3.1,4.3h-1.8l-2.5-3.4v3.4h-1.5V246.1z"/>
	<path fill="#454545" d="M207.5,246.1h1.5v7.7h-1.5V246.1z"/>
	<path fill="#454545" d="M209.8,246.1h4.4v1.4h-1.5v6.2h-1.5v-6.2h-1.4V246.1z"/>
	<path fill="#454545" d="M222.5,247.5l-1.1,1c-0.7-0.7-1.5-1.1-2.5-1.1c-0.8,0-1.4,0.3-1.9,0.8c-0.5,0.5-0.8,1.1-0.8,1.9
		c0,0.5,0.1,1,0.3,1.4c0.2,0.4,0.6,0.7,1,0.9c0.4,0.2,0.9,0.3,1.4,0.3c0.4,0,0.8-0.1,1.2-0.2c0.4-0.2,0.8-0.4,1.2-0.9l1,1
		c-0.6,0.6-1.2,0.9-1.7,1.2c-0.5,0.2-1.1,0.3-1.8,0.3c-1.2,0-2.3-0.4-3.1-1.1c-0.8-0.8-1.2-1.7-1.2-2.9c0-0.8,0.2-1.4,0.5-2
		c0.4-0.6,0.9-1.1,1.6-1.4c0.7-0.4,1.4-0.5,2.2-0.5c0.7,0,1.3,0.1,1.9,0.4C221.5,246.6,222.1,247,222.5,247.5z"/>
	<path fill="#454545" d="M223.7,246.1h1.5v2.9h2.7v-2.9h1.5v7.7h-1.5v-3.4h-2.7v3.4h-1.5V246.1z"/>
	<path fill="#454545" d="M231.1,246.1h4.4v1.4h-2.9v1.4h2.9v1.4h-2.9v2h2.9v1.4h-4.4V246.1z"/>
	<path fill="#454545" d="M236.8,246.1h1.5l3.4,5.1v-5.1h1.5v7.7h-1.5l-3.4-5v5h-1.5V246.1z"/>
	<path fill="#454545" d="M51.1,237.7h1.5v6.3h2.2v1.4h-3.8V237.7z"/>
	<path fill="#454545" d="M55.7,237.7h1.5v7.7h-1.5V237.7z"/>
	<path fill="#454545" d="M58.2,237.7h1.6l2,5.5l2-5.5h1.6l-2.9,7.7h-1.5L58.2,237.7z"/>
	<path fill="#454545" d="M66.4,237.7h1.5v7.7h-1.5V237.7z"/>
	<path fill="#454545" d="M69.5,237.7h1.5l3.4,5.1v-5.1h1.5v7.7h-1.5l-3.4-5v5h-1.5V237.7z"/>
	<path fill="#454545" d="M85,239l-1.1,1c-0.7-0.7-1.5-1-2.4-1c-0.8,0-1.5,0.3-2,0.8c-0.5,0.5-0.8,1.1-0.8,1.8c0,0.7,0.3,1.4,0.8,1.9
		c0.6,0.5,1.2,0.8,2,0.8c0.5,0,1-0.1,1.3-0.3c0.4-0.2,0.7-0.5,0.9-1h-2.3v-1.4h4l0,0.3c0,0.7-0.2,1.3-0.5,1.9
		c-0.4,0.6-0.8,1.1-1.4,1.4c-0.6,0.3-1.3,0.5-2,0.5c-0.8,0-1.6-0.2-2.2-0.5c-0.7-0.3-1.2-0.8-1.5-1.5c-0.4-0.6-0.6-1.3-0.6-2.1
		c0-1,0.4-1.9,1.1-2.7c0.8-0.9,1.9-1.3,3.3-1.3c0.7,0,1.4,0.1,2,0.4C84,238.1,84.5,238.5,85,239z"/>
</g>
<circle fill="none" stroke="#000000" stroke-width="0.25" stroke-miterlimit="10" cx="195.7" cy="292.9" r="3.6"/>
<circle fill="none" stroke="#000000" stroke-width="0.25" stroke-miterlimit="10" cx="213.5" cy="293.2" r="3.3"/>
<circle fill="none" stroke="#000000" stroke-width="0.25" stroke-miterlimit="10" cx="213.5" cy="305.3" r="3.3"/>
<circle fill="none" stroke="#000000" stroke-width="0.25" stroke-miterlimit="10" cx="195.6" cy="305.2" r="4.7"/>
<rect x="333.4" y="137.1" fill="#EDDBC3" width="36.8" height="5.2"/>
</svg>
