<svg width="410" height="264" viewBox="0 0 410 264" fill="none" xmlns="http://www.w3.org/2000/svg">
<g clip-path="url(#clip0_2996_2380)">
<path d="M0.00734711 241.543C0.0707779 248.771 0.600502 255.988 1.59315 263.148C1.62788 263.4 1.6657 263.651 1.70058 263.903L69.4215 263.524C69.6203 263.275 69.8161 263.022 70.0057 262.766C70.6379 261.92 71.2305 261.049 71.7745 260.149C74.3891 255.811 75.5861 250.732 74.3866 247.227L74.3651 247.173C74.1062 246.406 73.6981 245.697 73.1645 245.088C70.4296 242.01 64.9 242.523 59.882 245.007C64.3828 240.082 67.9667 233.868 68.239 228.321C68.506 222.911 65.6758 219.046 62.6061 215.761C62.5054 215.653 62.4047 215.547 62.304 215.441C62.2551 215.387 62.2033 215.336 62.1545 215.282C59.7595 212.778 56.9674 210.311 52.9259 210.609C48.4934 210.937 43.5792 214.649 40.1335 218.973C36.6878 223.295 34.3981 228.204 32.0771 232.995C29.7533 237.784 27.239 242.694 23.5099 246.787C28.5607 240.401 32.633 233.135 34.1373 226.068C35.6416 219.001 34.3177 212.214 29.8162 208.886C28.4496 207.907 26.8683 207.269 25.2045 207.026C25.0103 206.994 24.8131 206.967 24.6127 206.944C20.4456 206.47 15.4702 207.911 11.237 211.355C6.57513 215.146 3.34299 220.767 1.73484 226.103C0.126808 231.44 -0.0445557 236.577 0.00734711 241.543Z" fill="#E6D8E1"/>
<path d="M44.3146 263.665L45.6096 263.657C46.0208 263.4 46.4339 263.146 46.8489 262.895C47.1059 262.733 47.3658 262.577 47.6259 262.418C51.9212 259.796 56.2434 257.28 60.5925 254.872C64.9376 252.462 69.3046 250.162 73.6935 247.974C73.8098 247.923 73.9047 247.834 73.9617 247.72C74.0187 247.607 74.0342 247.477 74.0054 247.354C74.0007 247.338 73.9934 247.322 73.9839 247.308C73.9226 247.194 73.7858 247.146 73.5861 247.244C73.0478 247.514 72.5064 247.784 71.9681 248.059C67.5673 250.285 63.1854 252.622 58.8223 255.07C54.4623 257.517 50.1271 260.072 45.8168 262.734C45.7262 262.79 45.6354 262.848 45.5448 262.903C45.1337 263.157 44.7257 263.411 44.3146 263.665Z" fill="white"/>
<path d="M27.6179 263.758L28.4187 263.753C28.5993 263.501 28.7768 263.248 28.9574 262.995C33.2007 257.047 37.4431 251.099 41.6847 245.151C48.6306 235.413 55.5746 225.675 62.5164 215.938C62.5576 215.885 62.5882 215.825 62.6065 215.761C62.6659 215.546 62.5074 215.419 62.3044 215.442C62.2188 215.454 62.1367 215.484 62.0638 215.53C61.9908 215.577 61.9286 215.638 61.8813 215.711C57.987 221.172 54.0937 226.631 50.2013 232.088C43.2915 241.777 36.3826 251.465 29.4748 261.152C29.0354 261.767 28.596 262.385 28.1566 263C27.976 263.253 27.7954 263.505 27.6179 263.758Z" fill="white"/>
<path d="M9.77817 259.109C9.81903 260.458 9.90838 261.786 10.025 263.101C10.0476 263.352 10.0702 263.604 10.0929 263.855L10.933 263.851C10.9074 263.599 10.8817 263.348 10.8591 263.096C10.6816 261.196 10.5556 259.275 10.5385 257.301C10.5161 251.829 11.0496 246.369 12.1307 241.005C13.2799 235.229 14.9299 229.564 17.062 224.074C19.2999 218.284 21.998 212.683 25.1304 207.323C25.1894 207.236 25.2157 207.13 25.2045 207.026C25.1699 206.786 24.8511 206.715 24.6127 206.944C24.5656 206.989 24.5251 207.04 24.4923 207.096C24.1047 207.762 23.7242 208.431 23.3508 209.101C20.3339 214.49 17.7516 220.111 15.6284 225.91C13.6061 231.418 12.0679 237.092 11.0311 242.866C10.06 248.224 9.64011 253.666 9.77817 259.109Z" fill="white"/>
<path d="M132.426 252.022C132.459 255.8 132.736 259.571 133.255 263.313C133.273 263.444 133.293 263.576 133.311 263.707L168.7 263.509C168.804 263.379 168.907 263.247 169.006 263.113C169.336 262.671 169.646 262.216 169.93 261.745C171.296 259.478 171.922 256.824 171.295 254.993L171.284 254.964C171.149 254.563 170.935 254.193 170.656 253.875C169.227 252.267 166.338 252.535 163.715 253.833C166.067 251.259 167.94 248.012 168.082 245.113C168.222 242.286 166.743 240.266 165.139 238.549C165.086 238.493 165.034 238.437 164.981 238.382C164.955 238.354 164.928 238.327 164.903 238.299C163.651 236.991 162.192 235.701 160.08 235.857C157.764 236.029 155.196 237.968 153.395 240.228C151.595 242.486 150.398 245.052 149.185 247.556C147.971 250.058 146.657 252.624 144.708 254.763C147.348 251.425 149.476 247.628 150.262 243.936C151.048 240.243 150.356 236.696 148.004 234.957C147.289 234.445 146.463 234.112 145.594 233.985C145.492 233.968 145.389 233.954 145.284 233.942C143.107 233.694 140.507 234.447 138.295 236.247C135.927 238.28 134.201 240.958 133.329 243.954C132.489 246.743 132.399 249.427 132.426 252.022Z" fill="#E6D8E1"/>
<path d="M155.58 263.583L156.257 263.579C156.472 263.445 156.688 263.312 156.905 263.181C157.039 263.096 157.175 263.015 157.311 262.932C159.555 261.561 161.814 260.247 164.087 258.988C166.358 257.729 168.64 256.527 170.933 255.383C170.994 255.357 171.043 255.31 171.073 255.251C171.103 255.192 171.111 255.124 171.096 255.059C171.094 255.051 171.09 255.043 171.085 255.036C171.053 254.975 170.981 254.951 170.877 255.002C170.596 255.143 170.313 255.284 170.031 255.428C167.732 256.591 165.442 257.812 163.162 259.092C160.883 260.37 158.618 261.705 156.365 263.097C156.318 263.126 156.271 263.156 156.223 263.185C156.008 263.317 155.795 263.45 155.58 263.583Z" fill="white"/>
<path d="M146.856 263.632L147.274 263.629C147.369 263.497 147.461 263.365 147.556 263.233C149.773 260.125 151.99 257.017 154.207 253.908C157.836 248.819 161.465 243.731 165.093 238.642C165.114 238.615 165.13 238.583 165.14 238.55C165.171 238.437 165.088 238.371 164.982 238.383C164.937 238.389 164.894 238.405 164.856 238.429C164.818 238.453 164.786 238.486 164.761 238.523C162.726 241.377 160.691 244.23 158.657 247.082C155.046 252.145 151.436 257.208 147.826 262.27C147.596 262.591 147.367 262.914 147.137 263.236C147.043 263.368 146.948 263.5 146.856 263.632Z" fill="white"/>
<path d="M137.533 261.202C137.554 261.907 137.601 262.601 137.662 263.288C137.674 263.42 137.686 263.551 137.697 263.683L138.136 263.68C138.123 263.549 138.11 263.417 138.098 263.286C138.005 262.293 137.939 261.289 137.93 260.257C137.919 257.398 138.197 254.544 138.762 251.741C139.363 248.723 140.225 245.763 141.339 242.894C142.509 239.868 143.919 236.941 145.556 234.14C145.586 234.094 145.6 234.039 145.594 233.985C145.576 233.86 145.41 233.822 145.285 233.942C145.261 233.965 145.239 233.992 145.222 234.022C145.02 234.37 144.821 234.719 144.626 235.069C143.049 237.885 141.7 240.823 140.59 243.853C139.533 246.732 138.73 249.696 138.188 252.714C137.68 255.514 137.461 258.358 137.533 261.202Z" fill="white"/>
<path d="M336.76 178.37H403.083C404.917 178.368 406.675 177.639 407.972 176.343C409.269 175.046 409.998 173.289 410 171.456V91.8207C409.998 89.9876 409.269 88.2303 407.972 86.9341C406.675 85.6379 404.917 84.9088 403.083 84.9067H336.76C334.926 84.9088 333.168 85.6379 331.872 86.9341C330.575 88.2303 329.846 89.9876 329.843 91.8207V171.456C329.846 173.289 330.575 175.046 331.872 176.343C333.168 177.639 334.926 178.368 336.76 178.37ZM403.083 85.7891C404.683 85.7909 406.217 86.4269 407.348 87.5577C408.479 88.6884 409.116 90.2216 409.117 91.8207V171.456C409.116 173.055 408.479 174.588 407.348 175.719C406.217 176.85 404.683 177.486 403.083 177.488H336.76C335.16 177.486 333.627 176.85 332.495 175.719C331.364 174.588 330.728 173.055 330.726 171.456V91.8207C330.728 90.2216 331.364 88.6884 332.495 87.5577C333.627 86.4269 335.16 85.7909 336.76 85.7891H403.083Z" fill="#3F3D56"/>
<path d="M354.418 91.4532H385.425C386.887 91.4515 388.29 90.87 389.324 89.8362C390.358 88.8024 390.94 87.4007 390.941 85.9387V84.7576C390.94 83.2956 390.358 81.8939 389.324 80.8601C388.29 79.8263 386.887 79.2448 385.425 79.2432H354.418C352.955 79.2448 351.553 79.8263 350.519 80.8601C349.484 81.8939 348.903 83.2956 348.901 84.7576V85.9387C348.903 87.4007 349.484 88.8024 350.519 89.8362C351.553 90.87 352.955 91.4515 354.418 91.4532Z" fill="#E7DAE2"/>
<path d="M339.508 134.777H400.337C400.75 134.777 401.158 134.696 401.54 134.539C401.921 134.381 402.268 134.15 402.56 133.859C402.852 133.567 403.083 133.221 403.241 132.84C403.399 132.459 403.48 132.051 403.48 131.638C403.48 131.226 403.399 130.818 403.241 130.437C403.083 130.055 402.852 129.709 402.56 129.418C402.268 129.126 401.921 128.895 401.54 128.738C401.158 128.58 400.75 128.5 400.337 128.5H339.508C338.676 128.501 337.879 128.832 337.291 129.421C336.703 130.009 336.372 130.807 336.372 131.638C336.372 132.47 336.703 133.268 337.291 133.856C337.879 134.445 338.676 134.776 339.508 134.777Z" fill="#803B6A"/>
<path d="M339.508 148.115H400.337C400.75 148.115 401.158 148.034 401.54 147.877C401.921 147.719 402.268 147.488 402.56 147.197C402.852 146.905 403.083 146.559 403.241 146.178C403.399 145.797 403.48 145.389 403.48 144.976C403.48 144.564 403.399 144.155 403.241 143.774C403.083 143.393 402.852 143.047 402.56 142.756C402.268 142.464 401.921 142.233 401.54 142.076C401.158 141.918 400.75 141.837 400.337 141.838H339.508C338.676 141.839 337.879 142.17 337.291 142.758C336.703 143.347 336.372 144.145 336.372 144.976C336.372 145.808 336.703 146.606 337.291 147.194C337.879 147.783 338.676 148.114 339.508 148.115Z" fill="#803B6A"/>
<path d="M355.794 121.439H384.05C384.463 121.439 384.871 121.358 385.253 121.201C385.634 121.043 385.981 120.812 386.272 120.521C386.564 120.229 386.796 119.883 386.954 119.502C387.112 119.121 387.193 118.713 387.193 118.3C387.193 117.888 387.112 117.48 386.954 117.099C386.796 116.718 386.564 116.371 386.272 116.08C385.981 115.789 385.634 115.557 385.253 115.4C384.871 115.242 384.463 115.162 384.05 115.162H355.794C355.381 115.162 354.973 115.242 354.591 115.4C354.21 115.557 353.864 115.789 353.572 116.08C353.28 116.371 353.048 116.718 352.89 117.099C352.732 117.48 352.651 117.888 352.651 118.3C352.651 118.713 352.732 119.121 352.89 119.502C353.048 119.883 353.28 120.229 353.572 120.521C353.864 120.812 354.21 121.043 354.591 121.201C354.973 121.358 355.381 121.439 355.794 121.439Z" fill="#803B6A"/>
<path d="M195.873 99.127H262.197C264.03 99.1249 265.788 98.3958 267.085 97.0996C268.382 95.8035 269.111 94.0461 269.113 92.213V12.5775C269.111 10.7445 268.382 8.9871 267.085 7.69093C265.788 6.39476 264.03 5.66565 262.197 5.66357H195.873C194.04 5.66565 192.282 6.39476 190.985 7.69093C189.688 8.9871 188.959 10.7445 188.957 12.5775V92.213C188.959 94.0461 189.688 95.8035 190.985 97.0996C192.282 98.3958 194.04 99.1249 195.873 99.127ZM262.197 6.54589C263.796 6.54768 265.33 7.18373 266.461 8.3145C267.593 9.44527 268.229 10.9784 268.231 12.5775V92.213C268.229 93.8122 267.593 95.3453 266.461 96.4761C265.33 97.6068 263.796 98.2429 262.197 98.2447H195.873C194.274 98.2429 192.74 97.6068 191.609 96.4761C190.478 95.3453 189.841 93.8122 189.839 92.213V12.5775C189.841 10.9784 190.478 9.44526 191.609 8.3145C192.74 7.18373 194.274 6.54768 195.873 6.54589H262.197Z" fill="#3F3D56"/>
<path d="M213.531 12.21H244.538C246.001 12.2084 247.403 11.6268 248.437 10.593C249.471 9.55923 250.053 8.15757 250.055 6.69555V5.51446C250.053 4.05244 249.471 2.65077 248.437 1.61696C247.403 0.583159 246.001 0.00164404 244.538 0H213.531C212.068 0.00164404 210.666 0.583159 209.632 1.61696C208.598 2.65077 208.016 4.05244 208.014 5.51446V6.69555C208.016 8.15757 208.598 9.55923 209.632 10.593C210.666 11.6268 212.068 12.2084 213.531 12.21Z" fill="#FCE5D6"/>
<path d="M198.62 55.534H259.449C259.861 55.5345 260.27 55.4537 260.651 55.2962C261.032 55.1387 261.379 54.9076 261.671 54.6161C261.963 54.3246 262.194 53.9785 262.352 53.5975C262.51 53.2165 262.592 52.8081 262.592 52.3957C262.592 51.9832 262.51 51.5748 262.352 51.1938C262.194 50.8128 261.963 50.4667 261.671 50.1752C261.379 49.8837 261.032 49.6526 260.651 49.4951C260.27 49.3376 259.861 49.2568 259.449 49.2573H198.62C198.207 49.2568 197.798 49.3376 197.417 49.4951C197.036 49.6526 196.689 49.8837 196.397 50.1752C196.105 50.4667 195.874 50.8128 195.716 51.1938C195.558 51.5748 195.476 51.9832 195.476 52.3957C195.476 52.8081 195.558 53.2165 195.716 53.5975C195.874 53.9785 196.105 54.3246 196.397 54.6161C196.689 54.9076 197.036 55.1387 197.417 55.2962C197.798 55.4537 198.207 55.5345 198.62 55.534Z" fill="#EF7E31"/>
<path d="M198.619 68.8719H259.448C259.861 68.8719 260.269 68.7907 260.65 68.633C261.031 68.4753 261.377 68.2441 261.668 67.9527C261.96 67.6613 262.191 67.3153 262.349 66.9345C262.507 66.5538 262.588 66.1457 262.588 65.7336C262.588 65.3214 262.507 64.9133 262.349 64.5326C262.191 64.1518 261.96 63.8058 261.668 63.5144C261.377 63.223 261.031 62.9918 260.65 62.8341C260.269 62.6764 259.861 62.5952 259.448 62.5952H198.619C198.207 62.5952 197.799 62.6764 197.418 62.8341C197.037 62.9918 196.691 63.223 196.399 63.5144C196.108 63.8058 195.877 64.1518 195.719 64.5326C195.561 64.9133 195.48 65.3214 195.48 65.7336C195.48 66.1457 195.561 66.5538 195.719 66.9345C195.877 67.3153 196.108 67.6613 196.399 67.9527C196.691 68.2441 197.037 68.4753 197.418 68.633C197.799 68.7907 198.207 68.8719 198.619 68.8719Z" fill="#EF7E31"/>
<path d="M214.905 42.1956H243.161C243.574 42.1961 243.983 42.1153 244.364 41.9578C244.745 41.8003 245.092 41.5692 245.384 41.2777C245.676 40.9863 245.907 40.6401 246.065 40.2591C246.223 39.8781 246.305 39.4697 246.305 39.0573C246.305 38.6448 246.223 38.2364 246.065 37.8554C245.907 37.4744 245.676 37.1283 245.384 36.8368C245.092 36.5454 244.745 36.3143 244.364 36.1568C243.983 35.9993 243.574 35.9185 243.161 35.9189H214.905C214.073 35.9189 213.274 36.2496 212.685 36.8381C212.097 37.4267 211.766 38.2249 211.766 39.0573C211.766 39.8896 212.097 40.6879 212.685 41.2764C213.274 41.865 214.073 42.1956 214.905 42.1956Z" fill="#EF7E31"/>
<path d="M60.5615 169.303L118.798 201.028C120.409 201.904 122.302 202.104 124.061 201.587C125.82 201.069 127.302 199.874 128.181 198.266L166.304 128.341C167.18 126.73 167.381 124.838 166.862 123.08C166.344 121.321 165.15 119.84 163.54 118.961L105.304 87.2357C103.693 86.3604 101.8 86.1596 100.041 86.6775C98.282 87.1954 96.8002 88.3896 95.9209 89.9981L57.7981 159.924C56.9224 161.534 56.7215 163.426 57.2396 165.184C57.7577 166.943 58.9524 168.424 60.5615 169.303ZM163.118 119.736C164.522 120.503 165.564 121.795 166.016 123.329C166.468 124.863 166.293 126.513 165.529 127.918L127.406 197.844C126.639 199.247 125.346 200.289 123.812 200.741C122.277 201.192 120.626 201.017 119.22 200.254L60.9839 168.528C59.5801 167.761 58.5378 166.469 58.0858 164.935C57.6339 163.401 57.8091 161.751 58.5731 160.346L96.6959 90.4204C97.463 89.0171 98.7557 87.9752 100.29 87.5234C101.825 87.0716 103.476 87.2468 104.882 88.0105L163.118 119.736Z" fill="#3F3D56"/>
<path d="M117.675 101.43L144.901 116.263C146.186 116.961 147.696 117.121 149.099 116.708C150.502 116.295 151.684 115.342 152.385 114.059L152.951 113.022C153.649 111.738 153.809 110.229 153.396 108.826C152.983 107.424 152.03 106.242 150.747 105.541L123.52 90.7092C122.235 90.0111 120.725 89.8509 119.322 90.264C117.919 90.677 116.738 91.6295 116.036 92.9125L115.471 93.9496C114.772 95.2341 114.612 96.7431 115.025 98.1456C115.439 99.5481 116.391 100.729 117.675 101.43Z" fill="#E6D8E1"/>
<path d="M83.8424 132.339L137.255 161.437C137.617 161.634 138.014 161.758 138.424 161.801C138.834 161.845 139.248 161.808 139.644 161.691C140.039 161.575 140.408 161.382 140.729 161.123C141.05 160.864 141.316 160.545 141.514 160.183C141.711 159.821 141.835 159.424 141.879 159.014C141.923 158.604 141.885 158.19 141.769 157.794C141.652 157.399 141.459 157.03 141.2 156.71C140.941 156.389 140.621 156.122 140.259 155.925L86.8472 126.828C86.116 126.43 85.2565 126.338 84.4578 126.573C83.659 126.808 82.9865 127.351 82.588 128.082C82.1896 128.813 82.0979 129.672 82.3331 130.47C82.5684 131.269 83.1113 131.941 83.8424 132.339Z" fill="#E6D8E1"/>
<path d="M77.4576 144.051L130.87 173.148C131.232 173.345 131.629 173.469 132.039 173.513C132.449 173.557 132.864 173.519 133.259 173.403C133.655 173.286 134.023 173.093 134.344 172.834C134.665 172.575 134.932 172.256 135.129 171.894C135.326 171.532 135.45 171.135 135.494 170.725C135.538 170.315 135.5 169.901 135.384 169.506C135.267 169.11 135.074 168.742 134.815 168.421C134.556 168.1 134.237 167.834 133.875 167.637L80.4624 138.539C80.1004 138.342 79.703 138.218 79.2931 138.174C78.8831 138.131 78.4685 138.168 78.073 138.285C77.6775 138.401 77.3088 138.594 76.988 138.853C76.6672 139.112 76.4005 139.431 76.2033 139.793C76.006 140.155 75.8819 140.552 75.8382 140.962C75.7944 141.372 75.8319 141.786 75.9483 142.182C76.0648 142.577 76.2581 142.946 76.517 143.266C76.776 143.587 77.0956 143.854 77.4576 144.051Z" fill="#E6D8E1"/>
<path d="M104.528 128.418L129.339 141.935C129.701 142.132 130.098 142.256 130.508 142.3C130.918 142.343 131.332 142.306 131.728 142.189C132.123 142.073 132.492 141.88 132.813 141.621C133.134 141.362 133.4 141.043 133.598 140.681C133.795 140.319 133.919 139.922 133.963 139.512C134.006 139.102 133.969 138.688 133.853 138.292C133.736 137.897 133.543 137.528 133.284 137.208C133.025 136.887 132.705 136.62 132.343 136.423L107.532 122.907C107.17 122.71 106.773 122.586 106.363 122.542C105.953 122.498 105.539 122.536 105.143 122.652C104.748 122.769 104.379 122.962 104.058 123.221C103.737 123.48 103.471 123.799 103.273 124.161C103.076 124.523 102.952 124.92 102.908 125.33C102.865 125.74 102.902 126.154 103.018 126.549C103.135 126.945 103.328 127.313 103.587 127.634C103.846 127.955 104.166 128.221 104.528 128.418Z" fill="#E6D8E1"/>
<path d="M286.777 72.1181L317.797 90.1216L317.354 90.8846L286.333 72.8811L286.777 72.1181Z" fill="#3F3D56"/>
<path d="M285.459 76.9501L281.077 69.3198L289.879 69.3406L285.459 76.9501Z" fill="#3F3D56"/>
<path d="M187.189 152.101C187.257 152.119 187.328 152.121 187.396 152.106L318.403 123.829C318.517 123.804 318.617 123.735 318.68 123.637C318.744 123.538 318.765 123.419 318.74 123.305C318.716 123.191 318.647 123.091 318.549 123.027C318.45 122.964 318.331 122.942 318.217 122.966L187.21 151.243C187.113 151.264 187.026 151.317 186.963 151.393C186.9 151.47 186.864 151.565 186.862 151.664C186.86 151.763 186.891 151.86 186.95 151.939C187.009 152.018 187.094 152.075 187.189 152.101Z" fill="#3F3D56"/>
<path d="M189.492 155.703L181.112 153.011L187.632 147.102L189.492 155.703Z" fill="#3F3D56"/>
<path d="M71.9547 177.173C72.5753 176.864 73.1205 176.423 73.5521 175.881C73.9838 175.339 74.2912 174.709 74.4528 174.035C74.6145 173.361 74.6264 172.66 74.4877 171.981C74.349 171.303 74.0631 170.662 73.6501 170.106L77.1953 135.458H69.5338L66.7164 169.29C65.8272 170.045 65.2462 171.101 65.0834 172.256C64.9206 173.411 65.1873 174.585 65.833 175.557C66.4787 176.529 67.4585 177.23 68.5868 177.528C69.715 177.825 70.9134 177.699 71.9547 177.173V177.173Z" fill="#A0616A"/>
<path d="M78.9886 116.336C73.0022 116.336 68.1492 111.484 68.1492 105.5C68.1492 99.5162 73.0022 94.665 78.9886 94.665C84.9751 94.665 89.8281 99.5162 89.8281 105.5C89.8281 111.484 84.9751 116.336 78.9886 116.336Z" fill="#A0616A"/>
<path d="M81.4543 155.589L97.6318 152.058C98.057 151.964 98.4398 151.734 98.7215 151.402C99.0032 151.07 99.1683 150.655 99.1915 150.221C99.3783 146.612 99.5126 137.277 96.7318 128.563C96.1948 126.892 95.3279 125.346 94.1826 124.016C93.0372 122.686 91.6367 121.599 90.0637 120.819C88.4908 120.04 86.7774 119.583 85.025 119.478C83.2726 119.372 81.5167 119.618 79.8613 120.202C78.1144 120.816 76.517 121.792 75.1739 123.066C73.8308 124.34 72.7724 125.883 72.0681 127.595C71.3638 129.307 71.0294 131.148 71.0871 132.998C71.1447 134.848 71.5929 136.665 72.4024 138.33C75.9899 145.694 78.2494 151.026 79.1178 154.18C79.2527 154.67 79.5702 155.088 80.0049 155.351C80.4396 155.613 80.9584 155.698 81.4543 155.589Z" fill="#803B6A"/>
<path d="M96.6951 258.526L102.106 258.526L104.68 237.664L96.6943 237.665L96.6951 258.526Z" fill="#A0616A"/>
<path d="M105.971 256.98H95.5363V263.548H112.541C112.541 261.806 111.849 260.136 110.617 258.904C109.385 257.672 107.713 256.98 105.971 256.98Z" fill="#2F2E41"/>
<path d="M42.5925 251.516L47.3337 254.122L59.6445 237.081L52.6468 233.235L42.5925 251.516Z" fill="#A0616A"/>
<path d="M51.4654 254.629L42.3215 249.604L39.1563 255.359L54.0575 263.548C54.8969 262.022 55.0954 260.224 54.6093 258.552C54.1232 256.879 52.9923 255.468 51.4654 254.629Z" fill="#2F2E41"/>
<path d="M96.5965 246.941L104.926 246.3C105.392 246.266 105.831 246.067 106.165 245.74C106.499 245.413 106.706 244.979 106.75 244.514C107.937 232.137 113.146 169.417 99.0594 150.106L99.02 150.052L98.957 150.029C98.831 149.983 86.2686 145.505 79.0611 153.711C78.8349 153.972 78.6807 154.287 78.6136 154.626C78.5466 154.965 78.5691 155.315 78.679 155.642L78.9539 156.467C79.0324 156.7 79.0535 156.95 79.0154 157.193C78.9773 157.437 78.8812 157.668 78.7351 157.866C76.7349 160.569 70.0028 170.98 67.3569 191.451C67.3401 191.581 67.3066 191.709 67.2571 191.831L47.7221 239.801C47.6223 240.046 47.5725 240.308 47.5757 240.573C47.5788 240.837 47.6347 241.098 47.7402 241.341C47.8457 241.583 47.9986 241.802 48.19 241.985C48.3813 242.168 48.6072 242.31 48.8545 242.404L55.0013 244.745C55.449 244.913 55.9421 244.915 56.391 244.751C56.8399 244.586 57.2148 244.266 57.4475 243.848L85.6478 192.704C85.7601 192.501 85.9339 192.338 86.1444 192.239C86.3548 192.14 86.5911 192.11 86.8196 192.154C87.0481 192.197 87.2571 192.311 87.4167 192.48C87.5762 192.649 87.6782 192.865 87.7081 193.095L94.4747 245.217C94.5367 245.695 94.7705 246.134 95.1326 246.452C95.4946 246.771 95.9601 246.947 96.4423 246.947C96.4933 246.947 96.5447 246.945 96.5965 246.941Z" fill="#2F2E41"/>
<path d="M121.129 118.087C121.074 118.325 121.039 118.567 121.023 118.81L102.065 129.743L97.4565 127.091L92.544 133.52L100.245 139.007C100.867 139.45 101.617 139.68 102.38 139.661C103.144 139.642 103.881 139.377 104.481 138.904L124.031 123.487C124.913 123.813 125.874 123.864 126.785 123.631C127.697 123.398 128.516 122.894 129.133 122.184C129.751 121.475 130.138 120.594 130.243 119.66C130.347 118.725 130.165 117.781 129.72 116.953C129.275 116.124 128.588 115.451 127.75 115.022C126.913 114.594 125.965 114.43 125.032 114.553C124.1 114.676 123.227 115.08 122.529 115.711C121.832 116.343 121.343 117.171 121.129 118.087V118.087Z" fill="#A0616A"/>
<path d="M101.803 128.65C101.746 128.371 101.63 128.107 101.461 127.876C101.293 127.646 101.077 127.455 100.827 127.316L92.1275 122.453C90.9716 121.561 89.5092 121.164 88.0608 121.348C86.6125 121.533 85.2963 122.284 84.401 123.437C83.5057 124.59 83.1043 126.05 83.2847 127.499C83.4651 128.947 84.2127 130.265 85.3635 131.163L92.3 138.363C92.4979 138.569 92.7379 138.729 93.0035 138.834C93.2691 138.938 93.554 138.984 93.839 138.968C94.124 138.953 94.4022 138.876 94.6548 138.743C94.9074 138.61 95.1284 138.425 95.3027 138.199L101.43 130.261C101.604 130.035 101.728 129.774 101.793 129.496C101.857 129.218 101.861 128.93 101.803 128.65Z" fill="#803B6A"/>
<path d="M79.2841 143.642C79.5061 143.463 79.6867 143.237 79.8136 142.982C79.9406 142.727 80.0109 142.447 80.0198 142.161L80.332 132.203C80.5916 130.766 80.2709 129.286 79.4402 128.086C78.6095 126.885 77.3365 126.063 75.9004 125.8C74.4643 125.536 72.9822 125.853 71.7792 126.68C70.5761 127.507 69.7501 128.777 69.4824 130.212L66.2826 139.682C66.1913 139.952 66.1593 140.239 66.1889 140.523C66.2185 140.807 66.3088 141.081 66.4539 141.326C66.599 141.572 66.7953 141.783 67.0295 141.946C67.2638 142.109 67.5304 142.22 67.8112 142.271L77.6819 144.052C77.9628 144.103 78.2513 144.093 78.5278 144.022C78.8044 143.951 79.0623 143.822 79.2841 143.642Z" fill="#803B6A"/>
<path d="M80.7035 103.008C83.4895 104.914 87.1475 106.873 89.993 104.844C91.8614 103.511 92.45 101.043 91.6924 98.877C90.3299 94.9822 86.5865 93.2675 83.0068 91.9532C78.3533 90.2446 73.2862 88.8853 68.4822 90.1089C63.6781 91.3326 59.4325 95.982 60.2997 100.861C60.9971 104.785 64.6998 108.05 64.1741 112C63.6451 115.976 59.1722 118.069 55.2233 118.779C51.2744 119.49 46.8556 119.718 44.0177 122.553C40.3974 126.17 41.3014 132.635 44.708 136.454C48.1145 140.273 53.2551 142.004 58.2363 143.181C64.8362 144.74 71.9745 145.559 78.2427 142.972C84.5109 140.384 89.3888 133.419 87.573 126.887C86.806 124.128 84.9992 121.797 83.253 119.527C81.5068 117.257 79.7386 114.883 79.0726 112.098C78.5175 109.777 78.9283 107.083 80.468 105.342C80.748 105.037 80.9242 104.652 80.9714 104.241C81.0185 103.829 80.9341 103.414 80.7303 103.054L80.7035 103.008Z" fill="#2F2E41"/>
<path d="M1.19183 264H169.338C169.455 264 169.567 263.954 169.65 263.871C169.733 263.788 169.779 263.676 169.779 263.559C169.779 263.442 169.733 263.33 169.65 263.247C169.567 263.164 169.455 263.118 169.338 263.118H1.19183C1.07478 263.118 0.962509 263.164 0.879745 263.247C0.796982 263.33 0.750504 263.442 0.750504 263.559C0.750504 263.676 0.796982 263.788 0.879745 263.871C0.962509 263.954 1.07478 264 1.19183 264Z" fill="#3F3D56"/>
</g>
<defs>
<clipPath id="clip0_2996_2380">
<rect width="410" height="264" fill="white" transform="matrix(-1 0 0 1 410 0)"/>
</clipPath>
</defs>
</svg>
