<svg width="36" height="36" viewBox="0 0 36 36" fill="none" xmlns="http://www.w3.org/2000/svg">
<rect x="1" y="1" width="34" height="34" rx="7" stroke="black" stroke-width="2"/>
<mask id="path-2-inside-1_2075_445" fill="white">
<path d="M28.5654 14.9386C29.2501 17.3015 29.1229 19.8256 28.2043 22.1077C27.2856 24.3897 25.6286 26.298 23.4978 27.5275C21.3671 28.7571 18.8858 29.2369 16.4503 28.8903C14.0148 28.5437 11.7658 27.3907 10.0626 25.6156C8.35947 23.8405 7.3005 21.5458 7.05494 19.098C6.80938 16.6503 7.39141 14.1909 8.708 12.1128C10.0246 10.0348 11.9998 8.45804 14.3179 7.63458C16.636 6.81111 19.1632 6.78846 21.4957 7.57024L20.6142 10.2002C18.8699 9.61557 16.9799 9.63251 15.2464 10.2483C13.5128 10.8641 12.0357 12.0433 11.0511 13.5973C10.0665 15.1514 9.63121 16.9906 9.81485 18.8211C9.99849 20.6517 10.7904 22.3678 12.0641 23.6953C13.3378 25.0228 15.0197 25.885 16.841 26.1442C18.6624 26.4034 20.5181 26.0445 22.1115 25.1251C23.7049 24.2056 24.9442 22.7785 25.6312 21.0719C26.3181 19.3652 26.4132 17.4776 25.9012 15.7106L28.5654 14.9386Z"/>
</mask>
<path d="M28.5654 14.9386C29.2501 17.3015 29.1229 19.8256 28.2043 22.1077C27.2856 24.3897 25.6286 26.298 23.4978 27.5275C21.3671 28.7571 18.8858 29.2369 16.4503 28.8903C14.0148 28.5437 11.7658 27.3907 10.0626 25.6156C8.35947 23.8405 7.3005 21.5458 7.05494 19.098C6.80938 16.6503 7.39141 14.1909 8.708 12.1128C10.0246 10.0348 11.9998 8.45804 14.3179 7.63458C16.636 6.81111 19.1632 6.78846 21.4957 7.57024L20.6142 10.2002C18.8699 9.61557 16.9799 9.63251 15.2464 10.2483C13.5128 10.8641 12.0357 12.0433 11.0511 13.5973C10.0665 15.1514 9.63121 16.9906 9.81485 18.8211C9.99849 20.6517 10.7904 22.3678 12.0641 23.6953C13.3378 25.0228 15.0197 25.885 16.841 26.1442C18.6624 26.4034 20.5181 26.0445 22.1115 25.1251C23.7049 24.2056 24.9442 22.7785 25.6312 21.0719C26.3181 19.3652 26.4132 17.4776 25.9012 15.7106L28.5654 14.9386Z" stroke="black" stroke-width="4" stroke-linejoin="round" mask="url(#path-2-inside-1_2075_445)"/>
<circle cx="27" cy="9" r="2" fill="black"/>
</svg>
