<svg width="201" height="48" viewBox="0 0 201 48" fill="none" xmlns="http://www.w3.org/2000/svg">
<path d="M1.0647 0.5H184.173L200.392 24L184.173 47.5H1.0647L1.06473 25.5L1.0647 0.5Z" stroke="white"/>
<path d="M3.47131 3H182.529L197 24L182.529 45H3.47131L3.47134 25L3.47131 3Z" fill="white"/>
<path d="M44.1519 24.256C44.5573 24.32 44.9253 24.4853 45.2559 24.752C45.5973 25.0187 45.8639 25.3493 46.0559 25.744C46.2586 26.1387 46.3599 26.56 46.3599 27.008C46.3599 27.5733 46.2159 28.0853 45.9279 28.544C45.6399 28.992 45.2186 29.3493 44.6639 29.616C44.1199 29.872 43.4746 30 42.7279 30H38.5679V18.848H42.5679C43.3253 18.848 43.9706 18.976 44.5039 19.232C45.0373 19.4773 45.4373 19.8133 45.7039 20.24C45.9706 20.6667 46.1039 21.1467 46.1039 21.68C46.1039 22.3413 45.9226 22.8907 45.5599 23.328C45.2079 23.7547 44.7386 24.064 44.1519 24.256ZM40.0239 23.664H42.4719C43.1546 23.664 43.6826 23.504 44.0559 23.184C44.4293 22.864 44.6159 22.4213 44.6159 21.856C44.6159 21.2907 44.4293 20.848 44.0559 20.528C43.6826 20.208 43.1439 20.048 42.4399 20.048H40.0239V23.664ZM42.5999 28.8C43.3253 28.8 43.8906 28.6293 44.2959 28.288C44.7013 27.9467 44.9039 27.472 44.9039 26.864C44.9039 26.2453 44.6906 25.76 44.2639 25.408C43.8373 25.0453 43.2666 24.864 42.5519 24.864H40.0239V28.8H42.5999ZM49.8044 18.848V25.904C49.8044 26.896 50.0444 27.632 50.5244 28.112C51.0151 28.592 51.6924 28.832 52.5564 28.832C53.4098 28.832 54.0764 28.592 54.5564 28.112C55.0471 27.632 55.2924 26.896 55.2924 25.904V18.848H56.7484V25.888C56.7484 26.816 56.5618 27.6 56.1884 28.24C55.8151 28.8693 55.3084 29.3387 54.6684 29.648C54.0391 29.9573 53.3298 30.112 52.5404 30.112C51.7511 30.112 51.0364 29.9573 50.3964 29.648C49.7671 29.3387 49.2658 28.8693 48.8924 28.24C48.5298 27.6 48.3484 26.816 48.3484 25.888V18.848H49.8044ZM66.9853 18.848L63.3533 25.792V30H61.8973V25.792L58.2493 18.848H59.8653L62.6173 24.496L65.3693 18.848H66.9853ZM79.3787 27.52H74.5147L73.6187 30H72.0827L76.1147 18.912H77.7947L81.8107 30H80.2747L79.3787 27.52ZM78.9627 26.336L76.9467 20.704L74.9307 26.336H78.9627ZM91.0239 22.112C91.0239 23.04 90.7039 23.8133 90.0639 24.432C89.4346 25.04 88.4693 25.344 87.1679 25.344H85.0239V30H83.5679V18.848H87.1679C88.4266 18.848 89.3813 19.152 90.0319 19.76C90.6933 20.368 91.0239 21.152 91.0239 22.112ZM87.1679 24.144C87.9786 24.144 88.5759 23.968 88.9599 23.616C89.3439 23.264 89.5359 22.7627 89.5359 22.112C89.5359 20.736 88.7466 20.048 87.1679 20.048H85.0239V24.144H87.1679ZM99.4256 27.52H94.5616L93.6656 30H92.1296L96.1616 18.912H97.8416L101.858 30H100.322L99.4256 27.52ZM99.0096 26.336L96.9936 20.704L94.9776 26.336H99.0096ZM109.487 30L106.831 25.44H105.071V30H103.615V18.848H107.215C108.057 18.848 108.767 18.992 109.343 19.28C109.929 19.568 110.367 19.9573 110.655 20.448C110.943 20.9387 111.087 21.4987 111.087 22.128C111.087 22.896 110.863 23.5733 110.415 24.16C109.977 24.7467 109.316 25.136 108.431 25.328L111.231 30H109.487ZM105.071 24.272H107.215C108.004 24.272 108.596 24.08 108.991 23.696C109.385 23.3013 109.583 22.7787 109.583 22.128C109.583 21.4667 109.385 20.9547 108.991 20.592C108.607 20.2293 108.015 20.048 107.215 20.048H105.071V24.272ZM120.213 18.848V20.032H117.173V30H115.717V20.032H112.661V18.848H120.213ZM133.317 18.928V30H131.861V21.744L128.181 30H127.157L123.461 21.728V30H122.005V18.928H123.573L127.669 28.08L131.765 18.928H133.317ZM137.243 20.032V23.76H141.307V24.96H137.243V28.8H141.787V30H135.787V18.832H141.787V20.032H137.243ZM152.758 30H151.302L145.446 21.12V30H143.99V18.832H145.446L151.302 27.696V18.832H152.758V30ZM162.104 18.848V20.032H159.064V30H157.608V20.032H154.552V18.848H162.104Z" fill="#3A3434"/>
</svg>
