<svg width="201" height="48" viewBox="0 0 201 48" fill="none" xmlns="http://www.w3.org/2000/svg">
<path d="M0.60753 24L16.8272 0.5H199.935V24V47.5H16.8272L0.60753 24Z" stroke="#803B6A"/>
<path d="M18.4713 3H197.529V24V45H18.4713L4 24L18.4713 3Z" fill="#803B6A"/>
<path d="M72.0816 24.256C72.487 24.32 72.855 24.4853 73.1856 24.752C73.527 25.0187 73.7936 25.3493 73.9856 25.744C74.1883 26.1387 74.2896 26.56 74.2896 27.008C74.2896 27.5733 74.1456 28.0853 73.8576 28.544C73.5696 28.992 73.1483 29.3493 72.5936 29.616C72.0496 29.872 71.4043 30 70.6576 30H66.4976V18.848H70.4976C71.255 18.848 71.9003 18.976 72.4336 19.232C72.967 19.4773 73.367 19.8133 73.6336 20.24C73.9003 20.6667 74.0336 21.1467 74.0336 21.68C74.0336 22.3413 73.8523 22.8907 73.4896 23.328C73.1376 23.7547 72.6683 24.064 72.0816 24.256ZM67.9536 23.664H70.4016C71.0843 23.664 71.6123 23.504 71.9856 23.184C72.359 22.864 72.5456 22.4213 72.5456 21.856C72.5456 21.2907 72.359 20.848 71.9856 20.528C71.6123 20.208 71.0736 20.048 70.3696 20.048H67.9536V23.664ZM70.5296 28.8C71.255 28.8 71.8203 28.6293 72.2256 28.288C72.631 27.9467 72.8336 27.472 72.8336 26.864C72.8336 26.2453 72.6203 25.76 72.1936 25.408C71.767 25.0453 71.1963 24.864 70.4816 24.864H67.9536V28.8H70.5296ZM77.7341 18.848V25.904C77.7341 26.896 77.9741 27.632 78.4541 28.112C78.9448 28.592 79.6221 28.832 80.4861 28.832C81.3395 28.832 82.0061 28.592 82.4861 28.112C82.9768 27.632 83.2221 26.896 83.2221 25.904V18.848H84.6781V25.888C84.6781 26.816 84.4915 27.6 84.1181 28.24C83.7448 28.8693 83.2381 29.3387 82.5981 29.648C81.9688 29.9573 81.2595 30.112 80.4701 30.112C79.6808 30.112 78.9661 29.9573 78.3261 29.648C77.6968 29.3387 77.1955 28.8693 76.8221 28.24C76.4595 27.6 76.2781 26.816 76.2781 25.888V18.848H77.7341ZM94.915 18.848L91.283 25.792V30H89.827V25.792L86.179 18.848H87.795L90.547 24.496L93.299 18.848H94.915ZM102.172 28.816H106.076V30H100.716V18.848H102.172V28.816ZM114.215 27.52H109.351L108.455 30H106.919L110.951 18.912H112.631L116.647 30H115.111L114.215 27.52ZM113.799 26.336L111.783 20.704L109.767 26.336H113.799ZM127.172 30H125.716L119.86 21.12V30H118.404V18.832H119.86L125.716 27.696V18.832H127.172V30ZM133.126 18.848C134.342 18.848 135.393 19.0773 136.278 19.536C137.174 19.984 137.857 20.6293 138.326 21.472C138.806 22.3147 139.046 23.3067 139.046 24.448C139.046 25.5893 138.806 26.5813 138.326 27.424C137.857 28.256 137.174 28.896 136.278 29.344C135.393 29.7813 134.342 30 133.126 30H129.654V18.848H133.126ZM133.126 28.8C134.566 28.8 135.665 28.4213 136.422 27.664C137.179 26.896 137.558 25.824 137.558 24.448C137.558 23.0613 137.174 21.9787 136.406 21.2C135.649 20.4213 134.555 20.032 133.126 20.032H131.11V28.8H133.126Z" fill="white"/>
</svg>
