<svg width="201" height="48" viewBox="0 0 201 48" fill="none" xmlns="http://www.w3.org/2000/svg">
<path d="M0.60753 24L16.8272 0.5H199.935V24V47.5H16.8272L0.60753 24Z" stroke="#803B6A"/>
<path d="M18.4713 3H197.529V24V45H18.4713L4 24L18.4713 3Z" fill="#803B6A"/>
<path d="M29.0708 24.416C29.0708 23.328 29.3161 22.352 29.8068 21.488C30.2975 20.6133 30.9641 19.9307 31.8068 19.44C32.6601 18.9493 33.6041 18.704 34.6388 18.704C35.8548 18.704 36.9161 18.9973 37.8228 19.584C38.7295 20.1707 39.3908 21.0027 39.8068 22.08H38.0628C37.7535 21.408 37.3055 20.8907 36.7188 20.528C36.1428 20.1653 35.4495 19.984 34.6388 19.984C33.8601 19.984 33.1615 20.1653 32.5428 20.528C31.9241 20.8907 31.4388 21.408 31.0868 22.08C30.7348 22.7413 30.5588 23.52 30.5588 24.416C30.5588 25.3013 30.7348 26.08 31.0868 26.752C31.4388 27.4133 31.9241 27.9253 32.5428 28.288C33.1615 28.6507 33.8601 28.832 34.6388 28.832C35.4495 28.832 36.1428 28.656 36.7188 28.304C37.3055 27.9413 37.7535 27.424 38.0628 26.752H39.8068C39.3908 27.8187 38.7295 28.6453 37.8228 29.232C36.9161 29.808 35.8548 30.096 34.6388 30.096C33.6041 30.096 32.6601 29.856 31.8068 29.376C30.9641 28.8853 30.2975 28.208 29.8068 27.344C29.3161 26.48 29.0708 25.504 29.0708 24.416ZM50.5662 18.848V30H49.1102V24.944H43.4302V30H41.9742V18.848H43.4302V23.744H49.1102V18.848H50.5662ZM58.1083 30.112C57.0736 30.112 56.1296 29.872 55.2763 29.392C54.423 28.9013 53.7456 28.224 53.2443 27.36C52.7536 26.4853 52.5083 25.504 52.5083 24.416C52.5083 23.328 52.7536 22.352 53.2443 21.488C53.7456 20.6133 54.423 19.936 55.2763 19.456C56.1296 18.9653 57.0736 18.72 58.1083 18.72C59.1536 18.72 60.103 18.9653 60.9563 19.456C61.8096 19.936 62.4816 20.608 62.9723 21.472C63.463 22.336 63.7083 23.3173 63.7083 24.416C63.7083 25.5147 63.463 26.496 62.9723 27.36C62.4816 28.224 61.8096 28.9013 60.9563 29.392C60.103 29.872 59.1536 30.112 58.1083 30.112ZM58.1083 28.848C58.887 28.848 59.5856 28.6667 60.2043 28.304C60.8336 27.9413 61.3243 27.424 61.6763 26.752C62.039 26.08 62.2203 25.3013 62.2203 24.416C62.2203 23.52 62.039 22.7413 61.6763 22.08C61.3243 21.408 60.839 20.8907 60.2203 20.528C59.6016 20.1653 58.8976 19.984 58.1083 19.984C57.319 19.984 56.615 20.1653 55.9963 20.528C55.3776 20.8907 54.887 21.408 54.5243 22.08C54.1723 22.7413 53.9963 23.52 53.9963 24.416C53.9963 25.3013 54.1723 26.08 54.5243 26.752C54.887 27.424 55.3776 27.9413 55.9963 28.304C56.6256 28.6667 57.3296 28.848 58.1083 28.848ZM70.6864 30.112C69.6518 30.112 68.7078 29.872 67.8544 29.392C67.0011 28.9013 66.3238 28.224 65.8224 27.36C65.3318 26.4853 65.0864 25.504 65.0864 24.416C65.0864 23.328 65.3318 22.352 65.8224 21.488C66.3238 20.6133 67.0011 19.936 67.8544 19.456C68.7078 18.9653 69.6518 18.72 70.6864 18.72C71.7318 18.72 72.6811 18.9653 73.5344 19.456C74.3878 19.936 75.0598 20.608 75.5504 21.472C76.0411 22.336 76.2864 23.3173 76.2864 24.416C76.2864 25.5147 76.0411 26.496 75.5504 27.36C75.0598 28.224 74.3878 28.9013 73.5344 29.392C72.6811 29.872 71.7318 30.112 70.6864 30.112ZM70.6864 28.848C71.4651 28.848 72.1638 28.6667 72.7824 28.304C73.4118 27.9413 73.9024 27.424 74.2544 26.752C74.6171 26.08 74.7984 25.3013 74.7984 24.416C74.7984 23.52 74.6171 22.7413 74.2544 22.08C73.9024 21.408 73.4171 20.8907 72.7984 20.528C72.1798 20.1653 71.4758 19.984 70.6864 19.984C69.8971 19.984 69.1931 20.1653 68.5744 20.528C67.9558 20.8907 67.4651 21.408 67.1024 22.08C66.7504 22.7413 66.5744 23.52 66.5744 24.416C66.5744 25.3013 66.7504 26.08 67.1024 26.752C67.4651 27.424 67.9558 27.9413 68.5744 28.304C69.2038 28.6667 69.9078 28.848 70.6864 28.848ZM81.7446 30.112C81.0086 30.112 80.3472 29.984 79.7606 29.728C79.1846 29.4613 78.7312 29.0987 78.4006 28.64C78.0699 28.1707 77.8992 27.632 77.8886 27.024H79.4406C79.4939 27.5467 79.7072 27.9893 80.0806 28.352C80.4646 28.704 81.0192 28.88 81.7446 28.88C82.4379 28.88 82.9819 28.7093 83.3766 28.368C83.7819 28.016 83.9846 27.568 83.9846 27.024C83.9846 26.5973 83.8672 26.2507 83.6326 25.984C83.3979 25.7173 83.1046 25.5147 82.7526 25.376C82.4006 25.2373 81.9259 25.088 81.3286 24.928C80.5926 24.736 80.0006 24.544 79.5526 24.352C79.1152 24.16 78.7366 23.8613 78.4166 23.456C78.1072 23.04 77.9526 22.4853 77.9526 21.792C77.9526 21.184 78.1072 20.6453 78.4166 20.176C78.7259 19.7067 79.1579 19.344 79.7126 19.088C80.2779 18.832 80.9232 18.704 81.6486 18.704C82.6939 18.704 83.5472 18.9653 84.2086 19.488C84.8806 20.0107 85.2592 20.704 85.3446 21.568H83.7446C83.6912 21.1413 83.4672 20.768 83.0726 20.448C82.6779 20.1173 82.1552 19.952 81.5046 19.952C80.8966 19.952 80.4006 20.112 80.0166 20.432C79.6326 20.7413 79.4406 21.1787 79.4406 21.744C79.4406 22.1493 79.5526 22.48 79.7766 22.736C80.0112 22.992 80.2939 23.1893 80.6246 23.328C80.9659 23.456 81.4406 23.6053 82.0486 23.776C82.7846 23.9787 83.3766 24.1813 83.8246 24.384C84.2726 24.576 84.6566 24.88 84.9766 25.296C85.2966 25.7013 85.4566 26.256 85.4566 26.96C85.4566 27.504 85.3126 28.016 85.0246 28.496C84.7366 28.976 84.3099 29.3653 83.7446 29.664C83.1792 29.9627 82.5126 30.112 81.7446 30.112ZM89.0552 20.032V23.76H93.1192V24.96H89.0552V28.8H93.5992V30H87.5992V18.832H93.5992V20.032H89.0552ZM107.524 22.112C107.524 23.04 107.204 23.8133 106.564 24.432C105.935 25.04 104.969 25.344 103.668 25.344H101.524V30H100.068V18.848H103.668C104.927 18.848 105.881 19.152 106.532 19.76C107.193 20.368 107.524 21.152 107.524 22.112ZM103.668 24.144C104.479 24.144 105.076 23.968 105.46 23.616C105.844 23.264 106.036 22.7627 106.036 22.112C106.036 20.736 105.247 20.048 103.668 20.048H101.524V24.144H103.668ZM115.206 30L112.55 25.44H110.79V30H109.334V18.848H112.934C113.776 18.848 114.486 18.992 115.062 19.28C115.648 19.568 116.086 19.9573 116.374 20.448C116.662 20.9387 116.806 21.4987 116.806 22.128C116.806 22.896 116.582 23.5733 116.134 24.16C115.696 24.7467 115.035 25.136 114.15 25.328L116.95 30H115.206ZM110.79 24.272H112.934C113.723 24.272 114.315 24.08 114.71 23.696C115.104 23.3013 115.302 22.7787 115.302 22.128C115.302 21.4667 115.104 20.9547 114.71 20.592C114.326 20.2293 113.734 20.048 112.934 20.048H110.79V24.272ZM124.124 30.112C123.089 30.112 122.145 29.872 121.292 29.392C120.439 28.9013 119.761 28.224 119.26 27.36C118.769 26.4853 118.524 25.504 118.524 24.416C118.524 23.328 118.769 22.352 119.26 21.488C119.761 20.6133 120.439 19.936 121.292 19.456C122.145 18.9653 123.089 18.72 124.124 18.72C125.169 18.72 126.119 18.9653 126.972 19.456C127.825 19.936 128.497 20.608 128.988 21.472C129.479 22.336 129.724 23.3173 129.724 24.416C129.724 25.5147 129.479 26.496 128.988 27.36C128.497 28.224 127.825 28.9013 126.972 29.392C126.119 29.872 125.169 30.112 124.124 30.112ZM124.124 28.848C124.903 28.848 125.601 28.6667 126.22 28.304C126.849 27.9413 127.34 27.424 127.692 26.752C128.055 26.08 128.236 25.3013 128.236 24.416C128.236 23.52 128.055 22.7413 127.692 22.08C127.34 21.408 126.855 20.8907 126.236 20.528C125.617 20.1653 124.913 19.984 124.124 19.984C123.335 19.984 122.631 20.1653 122.012 20.528C121.393 20.8907 120.903 21.408 120.54 22.08C120.188 22.7413 120.012 23.52 120.012 24.416C120.012 25.3013 120.188 26.08 120.54 26.752C120.903 27.424 121.393 27.9413 122.012 28.304C122.641 28.6667 123.345 28.848 124.124 28.848ZM139.102 22.112C139.102 23.04 138.782 23.8133 138.142 24.432C137.513 25.04 136.547 25.344 135.246 25.344H133.102V30H131.646V18.848H135.246C136.505 18.848 137.459 19.152 138.11 19.76C138.771 20.368 139.102 21.152 139.102 22.112ZM135.246 24.144C136.057 24.144 136.654 23.968 137.038 23.616C137.422 23.264 137.614 22.7627 137.614 22.112C137.614 20.736 136.825 20.048 135.246 20.048H133.102V24.144H135.246ZM142.368 20.032V23.76H146.432V24.96H142.368V28.8H146.912V30H140.912V18.832H146.912V20.032H142.368ZM154.987 30L152.331 25.44H150.571V30H149.115V18.848H152.715C153.557 18.848 154.267 18.992 154.843 19.28C155.429 19.568 155.867 19.9573 156.155 20.448C156.443 20.9387 156.587 21.4987 156.587 22.128C156.587 22.896 156.363 23.5733 155.915 24.16C155.477 24.7467 154.816 25.136 153.931 25.328L156.731 30H154.987ZM150.571 24.272H152.715C153.504 24.272 154.096 24.08 154.491 23.696C154.885 23.3013 155.083 22.7787 155.083 22.128C155.083 21.4667 154.885 20.9547 154.491 20.592C154.107 20.2293 153.515 20.048 152.715 20.048H150.571V24.272ZM165.713 18.848V20.032H162.673V30H161.217V20.032H158.161V18.848H165.713ZM175.313 18.848L171.681 25.792V30H170.225V25.792L166.577 18.848H168.193L170.945 24.496L173.697 18.848H175.313Z" fill="white"/>
</svg>
