<svg width="32" height="42" viewBox="0 0 32 42" fill="none" xmlns="http://www.w3.org/2000/svg">
<path d="M16 13C17.6569 13 19 11.6569 19 10C19 8.34315 17.6569 7 16 7C14.3431 7 13 8.34315 13 10C13 11.6569 14.3431 13 16 13Z" stroke="white" stroke-width="2" stroke-linecap="round" stroke-linejoin="round"/>
<path d="M16 2C13.8783 2 11.8434 2.84285 10.3431 4.34315C8.84285 5.84344 8 7.87827 8 10C8 11.892 8.402 13.13 9.5 14.5L16 22L22.5 14.5C23.598 13.13 24 11.892 24 10C24 7.87827 23.1571 5.84344 21.6569 4.34315C20.1566 2.84285 18.1217 2 16 2V2Z" stroke="white" stroke-width="2" stroke-linecap="round" stroke-linejoin="round"/>
<path d="M31 38C31 38.001 30.9999 38.0031 30.9991 38.0071C30.9983 38.0113 30.9962 38.0197 30.9909 38.0326C30.9802 38.059 30.9555 38.1063 30.9011 38.1727C30.7875 38.3116 30.5787 38.4922 30.2338 38.6961C29.5429 39.1045 28.4765 39.5069 27.0712 39.8583C24.2758 40.5571 20.3611 41 16 41C11.6389 41 7.72415 40.5571 4.92883 39.8583C3.52347 39.5069 2.45712 39.1045 1.76619 38.6961C1.42128 38.4922 1.21254 38.3116 1.09889 38.1727C1.04449 38.1063 1.01981 38.059 1.00908 38.0326C1.00382 38.0197 1.00173 38.0113 1.00088 38.0071C1.00005 38.0031 1 38.001 1 38C1 37.999 1.00005 37.9969 1.00088 37.9929C1.00173 37.9887 1.00382 37.9803 1.00908 37.9674C1.01981 37.941 1.04449 37.8937 1.09889 37.8273C1.21254 37.6884 1.42128 37.5078 1.76619 37.3039C2.45712 36.8955 3.52347 36.4931 4.92883 36.1417C7.72415 35.4429 11.6389 35 16 35C20.3611 35 24.2758 35.4429 27.0712 36.1417C28.4765 36.4931 29.5429 36.8955 30.2338 37.3039C30.5787 37.5078 30.7875 37.6884 30.9011 37.8273C30.9555 37.8937 30.9802 37.941 30.9909 37.9674C30.9962 37.9803 30.9983 37.9887 30.9991 37.9929C30.9999 37.9969 31 37.999 31 38Z" stroke="white" stroke-width="2"/>
</svg>
