<svg width="58" height="58" viewBox="0 0 58 58" fill="none" xmlns="http://www.w3.org/2000/svg">
<rect width="58" height="58" fill="#E67818"/>
<path d="M36.5781 31.2705C33.8438 31.2705 31.3242 30.8164 29.0195 29.9082C26.7148 29 24.8919 27.7693 23.5508 26.2162C22.2096 24.663 21.5391 22.9717 21.5391 21.1422C21.5391 19.3126 22.2096 17.6147 23.5508 16.0484C24.8919 14.4821 26.7148 13.2514 29.0195 12.3564C31.3242 11.4613 33.8438 11.0138 36.5781 11.0138C37.3073 11.0138 38.1016 11.0533 38.9609 11.1323C41.7734 12.7644 44.0716 14.9559 45.8555 17.7068C47.6393 20.4577 48.6875 23.5048 49 26.848C47.6198 28.1905 45.8359 29.2632 43.6484 30.0661C41.4609 30.869 39.1042 31.2705 36.5781 31.2705ZM16.5 21.1224C16.5 23.8865 17.3984 26.4268 19.1953 28.7433C20.9922 31.0599 23.401 32.8894 26.4219 34.232L24.0391 41.4186L36.5781 36.3248C41.0052 36.3248 45.0026 35.3113 48.5703 33.2843C47.5286 37.8384 45.1914 41.5962 41.5586 44.5577C37.9258 47.5192 33.7526 49 29.0391 49C26.3307 49 23.7396 48.4669 21.2656 47.4008C18.7917 46.3346 16.6562 44.8934 14.8594 43.077C13.0625 41.2606 11.6367 39.102 10.582 36.6012C9.52734 34.1004 9 31.4811 9 28.7433C9 23.9786 10.4648 19.7601 13.3945 16.0879C16.3242 12.4156 20.0286 10.053 24.5078 9C22.0339 10.4215 20.0807 12.1918 18.6484 14.311C17.2161 16.4301 16.5 18.7006 16.5 21.1224Z" fill="black"/>
</svg>
