<svg width="1412" height="331" viewBox="0 0 1412 331" fill="none" xmlns="http://www.w3.org/2000/svg">
<path opacity="0.05" d="M33.198 228.017L32.4682 228.701L32.472 228.705L33.198 228.017ZM33.198 34.8325L32.472 34.1447L32.4682 34.1488L33.198 34.8325ZM223.832 34.8325L223.102 35.5162L223.106 35.5202L223.832 34.8325ZM223.832 228.017L223.106 227.33L223.102 227.334L223.832 228.017ZM191.027 47.9545L190.208 48.5293L190.211 48.5339L191.027 47.9545ZM66.003 47.9545L65.1847 47.3797L65.1833 47.3817L66.003 47.9545ZM66.003 214.896L65.1833 215.468L65.188 215.475L66.003 214.896ZM128.697 261.645C87.0852 261.645 55.5508 250.158 33.924 227.33L32.472 228.705C54.5852 252.047 86.7168 263.645 128.697 263.645V261.645ZM33.9278 227.334C12.5223 204.485 1.7575 172.561 1.7575 131.425H-0.2425C-0.2425 172.909 10.6197 205.38 32.4682 228.701L33.9278 227.334ZM1.7575 131.425C1.7575 90.2889 12.5223 58.3647 33.9278 35.5162L32.4682 34.1488C10.6197 57.4703 -0.2425 89.9411 -0.2425 131.425H1.7575ZM33.924 35.5202C55.5508 12.6919 87.0852 1.20499 128.697 1.20499V-0.795013C86.7168 -0.795013 54.5852 10.8031 32.472 34.1448L33.924 35.5202ZM128.697 1.20499C170.31 1.20499 201.719 12.6921 223.102 35.5162L224.561 34.1488C202.69 10.8029 170.676 -0.795013 128.697 -0.795013V1.20499ZM223.106 35.5202C244.752 58.3691 255.637 90.2917 255.637 131.425H257.637C257.637 89.9382 246.651 57.4659 224.557 34.1448L223.106 35.5202ZM255.637 131.425C255.637 172.558 244.752 204.481 223.106 227.33L224.557 228.705C246.651 205.384 257.637 172.912 257.637 131.425H255.637ZM223.102 227.334C201.719 250.158 170.31 261.645 128.697 261.645V263.645C170.676 263.645 202.69 252.047 224.561 228.701L223.102 227.334ZM128.333 246.149C156.074 246.149 177.294 235.94 191.842 215.475L190.211 214.316C176.085 234.189 155.509 244.149 128.333 244.149V246.149ZM191.842 215.475C206.341 195.078 213.532 167.024 213.532 131.425H211.532C211.532 166.782 204.386 194.375 190.211 214.316L191.842 215.475ZM213.532 131.425C213.532 95.8259 206.341 67.7724 191.842 47.3751L190.211 48.5339C204.386 68.4746 211.532 96.0681 211.532 131.425H213.532ZM191.845 47.3797C177.3 26.6712 156.079 16.3365 128.333 16.3365V18.3365C155.504 18.3365 176.079 28.4137 190.208 48.5293L191.845 47.3797ZM128.333 16.3365C100.826 16.3365 79.728 26.6739 65.1847 47.3797L66.8213 48.5293C80.952 28.411 101.408 18.3365 128.333 18.3365V16.3365ZM65.1833 47.3817C50.9305 67.7779 43.862 95.8288 43.862 131.425H45.862C45.862 96.0652 52.8875 68.4691 66.8227 48.5273L65.1833 47.3817ZM43.862 131.425C43.862 167.021 50.9305 195.072 65.1833 215.468L66.8227 214.323C52.8875 194.381 45.862 166.785 45.862 131.425H43.862ZM65.188 215.475C79.7333 235.937 100.83 246.149 128.333 246.149V244.149C101.403 244.149 80.9467 234.192 66.8181 214.316L65.188 215.475ZM548.769 87.685H549.769V86.685H548.769V87.685ZM548.769 98.62V99.62H549.769V98.62H548.769ZM532.002 101.171L531.601 100.255L532.002 101.171ZM524.348 109.555L523.393 109.257L523.391 109.264L523.388 109.272L524.348 109.555ZM480.243 259V260H480.991L481.202 259.283L480.243 259ZM447.803 259L446.837 259.26L447.036 260H447.803V259ZM411.353 123.406L412.318 123.146L411.407 119.756L410.395 123.118L411.353 123.406ZM370.529 259V260H371.272L371.486 259.288L370.529 259ZM337.724 259L336.761 259.271L336.966 260H337.724V259ZM298.358 119.032L299.32 118.761L299.314 118.738L299.306 118.716L298.358 119.032ZM295.441 110.648L294.478 110.916L294.487 110.949L294.499 110.981L295.441 110.648ZM289.974 101.536L289.349 102.317L289.374 102.337L289.401 102.355L289.974 101.536ZM274.301 98.62H273.301V99.62H274.301V98.62ZM274.301 87.685V86.685H273.301V87.685H274.301ZM353.397 87.685H354.397V86.685H353.397V87.685ZM353.397 98.62V99.62H354.397V98.62H353.397ZM332.985 110.648L333.953 110.399L333.945 110.365L333.934 110.332L332.985 110.648ZM362.145 224.008L361.177 224.257L362.085 227.788L363.105 224.288L362.145 224.008ZM401.876 87.685V86.685H401.125L400.915 87.4052L401.876 87.685ZM432.129 87.685L433.091 87.4116L432.884 86.685H432.129V87.685ZM471.495 226.195L470.533 226.468L471.534 229.991L472.462 226.448L471.495 226.195ZM501.384 112.106L502.351 112.36L502.354 112.349L501.384 112.106ZM498.104 100.807L497.625 101.685L498.104 100.807ZM482.43 98.62H481.43V99.62H482.43V98.62ZM482.43 87.685V86.685H481.43V87.685H482.43ZM547.769 87.685V98.62H549.769V87.685H547.769ZM548.769 97.62H544.031V99.62H548.769V97.62ZM544.031 97.62C539.758 97.62 535.612 98.5006 531.601 100.255L532.403 102.088C536.168 100.44 540.041 99.62 544.031 99.62V97.62ZM531.601 100.255C527.461 102.067 524.698 105.079 523.393 109.257L525.302 109.853C526.427 106.255 528.768 103.678 532.403 102.088L531.601 100.255ZM523.388 109.272L479.284 258.717L481.202 259.283L525.307 109.838L523.388 109.272ZM480.243 258H447.803V260H480.243V258ZM448.768 258.74L412.318 123.146L410.387 123.666L446.837 259.26L448.768 258.74ZM410.395 123.118L369.571 258.712L371.486 259.288L412.31 123.694L410.395 123.118ZM370.529 258H337.724V260H370.529V258ZM338.686 258.729L299.32 118.761L297.395 119.303L336.761 259.271L338.686 258.729ZM299.306 118.716C298.817 117.248 297.842 114.446 296.384 110.316L294.499 110.981C295.957 115.113 296.926 117.9 297.409 119.348L299.306 118.716ZM296.405 110.381C295.159 105.896 293.245 102.605 290.547 100.717L289.401 102.355C291.563 103.869 293.294 106.653 294.478 110.916L296.405 110.381ZM290.599 100.755C287.941 98.6288 284.416 97.62 280.133 97.62V99.62C284.111 99.62 287.147 100.555 289.349 102.317L290.599 100.755ZM280.133 97.62H274.301V99.62H280.133V97.62ZM275.301 98.62V87.685H273.301V98.62H275.301ZM274.301 88.685H353.397V86.685H274.301V88.685ZM352.397 87.685V98.62H354.397V87.685H352.397ZM353.397 97.62H347.565V99.62H353.397V97.62ZM347.565 97.62C342.514 97.62 338.559 98.3841 335.836 100.044C333.033 101.754 331.621 104.364 331.621 107.732H333.621C333.621 105.026 334.699 103.08 336.877 101.752C339.136 100.375 342.653 99.62 347.565 99.62V97.62ZM331.621 107.732C331.621 109 331.746 110.092 332.036 110.965L333.934 110.332C333.739 109.747 333.621 108.895 333.621 107.732H331.621ZM332.017 110.898L361.177 224.257L363.113 223.759L333.953 110.399L332.017 110.898ZM363.105 224.288L402.836 87.9648L400.915 87.4052L361.185 223.728L363.105 224.288ZM401.876 88.685H432.129V86.685H401.876V88.685ZM431.167 87.9584L470.533 226.468L472.457 225.922L433.091 87.4116L431.167 87.9584ZM472.462 226.448L502.351 112.36L500.417 111.853L470.528 225.942L472.462 226.448ZM502.354 112.349C502.837 110.418 503.113 108.967 503.113 108.097H501.113C501.113 108.685 500.903 109.907 500.414 111.864L502.354 112.349ZM503.113 108.097C503.113 104.381 501.62 101.586 498.582 99.9291L497.625 101.685C499.933 102.944 501.113 105.009 501.113 108.097H503.113ZM498.582 99.9291C495.727 98.3718 492.272 97.62 488.262 97.62V99.62C492.028 99.62 495.134 100.326 497.625 101.685L498.582 99.9291ZM488.262 97.62H482.43V99.62H488.262V97.62ZM483.43 98.62V87.685H481.43V98.62H483.43ZM482.43 88.685H548.769V86.685H482.43V88.685ZM783.607 248.065H784.607V247.065H783.607V248.065ZM783.607 259V260H784.607V259H783.607ZM689.566 259H688.566V260H689.566V259ZM689.566 248.065V247.065H688.566V248.065H689.566ZM705.239 110.648L704.518 111.342L704.525 111.349L704.532 111.356L705.239 110.648ZM656.032 107.368L655.551 106.491L655.539 106.498L656.032 107.368ZM655.303 248.065H656.303V247.065H655.303V248.065ZM655.303 259V260H656.303V259H655.303ZM561.262 259H560.262V260H561.262V259ZM561.262 248.065V247.065H560.262V248.065H561.262ZM583.132 245.149L582.661 244.267L582.648 244.274L582.636 244.281L583.132 245.149ZM570.01 113.564L569.054 113.859L569.364 114.868L570.355 114.503L570.01 113.564ZM567.094 104.087L566.77 103.141L565.853 103.455L566.138 104.382L567.094 104.087ZM620.311 85.8625V84.8625H620.144L619.987 84.9164L620.311 85.8625ZM630.517 85.8625H631.517V84.8625H630.517V85.8625ZM630.517 114.293H629.517V117.716L631.359 114.832L630.517 114.293ZM655.667 92.788L656.114 93.6824L656.122 93.6786L656.13 93.6746L655.667 92.788ZM739.867 97.5265L740.502 96.7541L739.867 97.5265ZM761.372 245.149L760.876 246.017L760.889 246.024L760.902 246.031L761.372 245.149ZM782.607 248.065V259H784.607V248.065H782.607ZM783.607 258H689.566V260H783.607V258ZM690.566 259V248.065H688.566V259H690.566ZM689.566 249.065H695.762V247.065H689.566V249.065ZM695.762 249.065C701.455 249.065 706.141 248.077 709.745 246.017L708.753 244.281C705.553 246.109 701.247 247.065 695.762 247.065V249.065ZM709.745 246.017C713.479 243.884 715.352 240.502 715.352 236.036H713.352C713.352 239.833 711.823 242.526 708.753 244.281L709.745 246.017ZM715.352 236.036V138.35H713.352V236.036H715.352ZM715.352 138.35C715.352 125.81 712.278 116.273 705.946 109.941L704.532 111.356C710.35 117.174 713.352 126.105 713.352 138.35H715.352ZM705.96 109.955C699.644 103.387 690.602 100.171 678.995 100.171V102.171C690.231 102.171 698.684 105.274 704.518 111.342L705.96 109.955ZM678.995 100.171C671.034 100.171 663.215 102.288 655.551 106.491L656.513 108.245C663.914 104.186 671.404 102.171 678.995 102.171V100.171ZM655.539 106.498C648.068 110.732 641.872 117.191 636.938 125.826L638.675 126.818C643.461 118.443 649.416 112.266 656.525 108.238L655.539 106.498ZM636.938 125.826C631.974 134.514 629.517 145.022 629.517 157.304H631.517C631.517 145.287 633.92 135.14 638.675 126.818L636.938 125.826ZM629.517 157.304V236.036H631.517V157.304H629.517ZM629.517 236.036C629.517 240.502 631.39 243.884 635.124 246.017L636.116 244.281C633.046 242.526 631.517 239.833 631.517 236.036H629.517ZM635.124 246.017C638.728 248.077 643.413 249.065 649.106 249.065V247.065C643.621 247.065 639.316 246.109 636.116 244.281L635.124 246.017ZM649.106 249.065H655.303V247.065H649.106V249.065ZM654.303 248.065V259H656.303V248.065H654.303ZM655.303 258H561.262V260H655.303V258ZM562.262 259V248.065H560.262V259H562.262ZM561.262 249.065H568.916V247.065H561.262V249.065ZM568.916 249.065C575.078 249.065 580.014 248.083 583.628 246.017L582.636 244.281C579.446 246.103 574.905 247.065 568.916 247.065V249.065ZM583.602 246.031C585.558 244.988 587.071 243.626 588.09 241.927C589.109 240.229 589.599 238.253 589.599 236.036H587.599C587.599 237.951 587.178 239.559 586.375 240.898C585.571 242.237 584.351 243.366 582.661 244.267L583.602 246.031ZM589.599 236.036V119.761H587.599V236.036H589.599ZM589.599 119.761C589.599 116.691 588.831 114.205 587.119 112.493C585.408 110.781 582.921 110.013 579.851 110.013V112.013C582.613 112.013 584.501 112.703 585.705 113.907C586.909 115.111 587.599 116.999 587.599 119.761H589.599ZM579.851 110.013C577.707 110.013 574.272 110.928 569.664 112.626L570.355 114.503C574.981 112.799 578.107 112.013 579.851 112.013V110.013ZM570.965 113.27L568.049 103.793L566.138 104.382L569.054 113.859L570.965 113.27ZM567.418 105.034L620.635 86.8085L619.987 84.9164L566.77 103.141L567.418 105.034ZM620.311 86.8625H630.517V84.8625H620.311V86.8625ZM629.517 85.8625V114.293H631.517V85.8625H629.517ZM631.359 114.832C636.833 106.264 645.065 99.2072 656.114 93.6824L655.22 91.8936C643.913 97.5468 635.378 104.827 629.674 113.755L631.359 114.832ZM656.13 93.6746C667.159 87.9202 679.149 85.04 692.117 85.04V83.04C678.841 83.04 666.531 85.9918 655.205 91.9014L656.13 93.6746ZM692.117 85.04C712.89 85.04 728.544 89.511 739.232 98.2989L740.502 96.7541C729.32 87.56 713.14 83.04 692.117 83.04V85.04ZM739.232 98.2989C749.915 107.083 755.269 118.939 755.269 133.976H757.269C757.269 118.396 751.688 105.952 740.502 96.7541L739.232 98.2989ZM755.269 133.976V236.036H757.269V133.976H755.269ZM755.269 236.036C755.269 240.502 757.142 243.884 760.876 246.017L761.868 244.281C758.798 242.526 757.269 239.833 757.269 236.036H755.269ZM760.902 246.031C764.744 248.08 769.785 249.065 775.952 249.065V247.065C769.97 247.065 765.291 246.106 761.843 244.267L760.902 246.031ZM775.952 249.065H783.607V247.065H775.952V249.065ZM1093.12 87.685H1094.12V86.685H1093.12V87.685ZM1093.12 98.62V99.62H1094.12V98.62H1093.12ZM1073.81 102.629L1073.21 101.823L1073.2 101.833L1073.19 101.843L1073.81 102.629ZM1064.69 116.48L1065.62 116.858L1065.62 116.858L1064.69 116.48ZM992.522 293.263L991.596 292.885L991.596 292.885L992.522 293.263ZM914.519 324.61L915.066 323.773L915.055 323.766L915.043 323.758L914.519 324.61ZM922.538 299.46L923.119 298.646L923.106 298.636L923.093 298.627L922.538 299.46ZM927.641 304.562L928.452 303.977L928.441 303.963L928.43 303.949L927.641 304.562ZM960.446 303.833L959.793 303.077L959.783 303.085L959.773 303.094L960.446 303.833ZM973.933 283.057L974.863 283.424L974.864 283.421L973.933 283.057ZM983.774 257.906L984.705 258.271L984.861 257.873L984.681 257.485L983.774 257.906ZM914.519 108.826L913.612 109.247L913.612 109.247L914.519 108.826ZM890.462 98.62H889.462V99.62H890.462V98.62ZM890.462 87.685V86.685H889.462V87.685H890.462ZM975.391 87.685H976.391V86.685H975.391V87.685ZM975.391 98.62V99.62H976.391V98.62H975.391ZM956.437 101.536L957.061 102.317L956.437 101.536ZM954.614 108.826L955.537 108.442L955.537 108.441L954.614 108.826ZM999.812 217.447L998.889 217.831L999.838 220.113L1000.74 217.813L999.812 217.447ZM1042.09 109.919L1043.02 110.285L1043.05 110.225L1043.06 110.162L1042.09 109.919ZM1042.82 107.003L1043.79 107.246L1043.82 107.127V107.003H1042.82ZM1038.45 100.807L1037.97 101.685L1037.99 101.693L1038 101.701L1038.45 100.807ZM1022.05 98.62H1021.05V99.62H1022.05V98.62ZM1022.05 87.685V86.685H1021.05V87.685H1022.05ZM1092.12 87.685V98.62H1094.12V87.685H1092.12ZM1093.12 97.62H1088.02V99.62H1093.12V97.62ZM1088.02 97.62C1082.04 97.62 1077.07 98.9921 1073.21 101.823L1074.4 103.436C1077.83 100.921 1082.34 99.62 1088.02 99.62V97.62ZM1073.19 101.843C1069.59 104.671 1066.47 109.473 1063.77 116.103L1065.62 116.858C1068.26 110.366 1071.22 105.934 1074.42 103.416L1073.19 101.843ZM1063.77 116.103L991.596 292.885L993.448 293.641L1065.62 116.858L1063.77 116.103ZM991.596 292.885C986.547 305.268 979.695 314.483 971.075 320.605C962.462 326.724 952.01 329.807 939.67 329.807V331.807C952.358 331.807 963.23 328.632 972.234 322.236C981.232 315.844 988.291 306.287 993.448 293.641L991.596 292.885ZM939.67 329.807C929.343 329.807 921.17 327.764 915.066 323.773L913.972 325.447C920.504 329.718 929.098 331.807 939.67 331.807V329.807ZM915.043 323.758C908.894 319.974 906.042 315.631 906.042 310.759H904.042C904.042 316.579 907.508 321.47 913.995 325.462L915.043 323.758ZM906.042 310.759C906.042 306.646 907.013 303.748 908.777 301.877C910.531 300.017 913.231 299.001 917.071 299.001V297.001C912.891 297.001 909.577 298.112 907.322 300.505C905.076 302.886 904.042 306.367 904.042 310.759H906.042ZM917.071 299.001C919.109 299.001 920.726 299.453 921.983 300.292L923.093 298.627C921.434 297.522 919.406 297.001 917.071 297.001V299.001ZM921.957 300.273C923.558 301.417 925.192 303.043 926.852 305.176L928.43 303.949C926.688 301.708 924.92 299.932 923.119 298.646L921.957 300.273ZM926.83 305.148C930.114 309.695 934.029 312.124 938.576 312.124V310.124C934.861 310.124 931.486 308.178 928.452 303.977L926.83 305.148ZM938.576 312.124C947.987 312.124 955.542 309.643 961.119 304.573L959.773 303.094C954.658 307.744 947.633 310.124 938.576 310.124V312.124ZM961.1 304.59C966.607 299.834 971.181 292.751 974.863 283.424L973.003 282.69C969.394 291.831 964.977 298.599 959.793 303.077L961.1 304.59ZM974.864 283.421L984.705 258.271L982.843 257.542L973.001 282.693L974.864 283.421ZM984.681 257.485L915.426 108.405L913.612 109.247L982.867 258.328L984.681 257.485ZM915.426 108.405C913.768 104.833 911.355 102.117 908.181 100.303C905.017 98.4952 901.16 97.62 896.659 97.62V99.62C900.906 99.62 904.399 100.446 907.189 102.04C909.968 103.628 912.111 106.015 913.612 109.247L915.426 108.405ZM896.659 97.62H890.462V99.62H896.659V97.62ZM891.462 98.62V87.685H889.462V98.62H891.462ZM890.462 88.685H975.391V86.685H890.462V88.685ZM974.391 87.685V98.62H976.391V87.685H974.391ZM975.391 97.62H968.83V99.62H975.391V97.62ZM968.83 97.62C962.943 97.62 958.519 98.5898 955.812 100.755L957.061 102.317C959.215 100.594 963.052 99.62 968.83 99.62V97.62ZM955.812 100.755C954.468 101.83 953.557 103.099 953.188 104.574C952.82 106.047 953.023 107.606 953.691 109.211L955.537 108.441C954.991 107.129 954.889 106.016 955.129 105.059C955.368 104.104 955.975 103.186 957.061 102.317L955.812 100.755ZM953.691 109.21L998.889 217.831L1000.74 217.063L955.537 108.442L953.691 109.21ZM1000.74 217.813L1043.02 110.285L1041.16 109.554L998.882 217.081L1000.74 217.813ZM1043.06 110.162L1043.79 107.246L1041.85 106.761L1041.12 109.677L1043.06 110.162ZM1043.82 107.003C1043.82 105.473 1043.4 104.084 1042.55 102.873C1041.7 101.672 1040.46 100.695 1038.9 99.9126L1038 101.701C1039.35 102.377 1040.3 103.162 1040.91 104.026C1041.52 104.88 1041.82 105.861 1041.82 107.003H1043.82ZM1038.93 99.9291C1036.07 98.3718 1032.62 97.62 1028.61 97.62V99.62C1032.37 99.62 1035.48 100.326 1037.97 101.685L1038.93 99.9291ZM1028.61 97.62H1022.05V99.62H1028.61V97.62ZM1023.05 98.62V87.685H1021.05V98.62H1023.05ZM1022.05 88.685H1093.12V86.685H1022.05V88.685ZM1132.87 239.681L1132.19 240.415L1132.19 240.42L1132.87 239.681ZM1132.87 107.368L1133.54 108.107L1133.55 108.101L1132.87 107.368ZM1275.39 107.368L1274.71 108.101L1274.71 108.106L1275.39 107.368ZM1275.39 239.681L1276.06 240.42L1276.07 240.415L1275.39 239.681ZM1244.04 227.653L1244.83 228.263L1244.04 227.653ZM1244.04 119.396L1243.25 120.006L1244.04 119.396ZM1164.21 119.396L1165.01 120.006L1164.21 119.396ZM1164.21 227.653L1163.42 228.263L1164.21 227.653ZM1204.31 261.645C1173.61 261.645 1150.07 254.031 1133.54 238.943L1132.19 240.42C1149.2 255.95 1173.29 263.645 1204.31 263.645V261.645ZM1133.55 238.948C1117.03 223.631 1108.72 201.814 1108.72 173.342H1106.72C1106.72 202.219 1115.17 224.628 1132.19 240.415L1133.55 238.948ZM1108.72 173.342C1108.72 144.871 1117.03 123.179 1133.54 108.106L1132.19 106.63C1115.17 122.175 1106.72 144.466 1106.72 173.342H1108.72ZM1133.55 108.101C1150.07 92.7732 1173.61 85.04 1204.31 85.04V83.04C1173.28 83.04 1149.19 90.8588 1132.19 106.635L1133.55 108.101ZM1204.31 85.04C1234.76 85.04 1258.18 92.772 1274.71 108.101L1276.07 106.635C1259.06 90.86 1235.09 83.04 1204.31 83.04V85.04ZM1274.71 108.106C1291.22 123.179 1299.54 144.871 1299.54 173.342H1301.54C1301.54 144.466 1293.09 122.175 1276.06 106.63L1274.71 108.106ZM1299.54 173.342C1299.54 201.814 1291.22 223.631 1274.71 238.948L1276.07 240.415C1293.09 224.628 1301.54 202.219 1301.54 173.342H1299.54ZM1274.71 238.943C1258.18 254.032 1234.76 261.645 1204.31 261.645V263.645C1235.09 263.645 1259.05 255.949 1276.06 240.42L1274.71 238.943ZM1204.31 247.607C1221.37 247.607 1234.91 241.159 1244.83 228.263L1243.25 227.043C1233.73 239.419 1220.78 245.607 1204.31 245.607V247.607ZM1244.83 228.263C1254.74 215.386 1259.62 197.033 1259.62 173.342H1257.62C1257.62 196.794 1252.78 214.648 1243.25 227.043L1244.83 228.263ZM1259.62 173.342C1259.62 149.892 1254.74 131.662 1244.83 118.787L1243.25 120.006C1252.78 132.403 1257.62 150.137 1257.62 173.342H1259.62ZM1244.83 118.787C1234.91 105.89 1221.37 99.4425 1204.31 99.4425V101.442C1220.78 101.442 1233.73 107.631 1243.25 120.006L1244.83 118.787ZM1204.31 99.4425C1187.01 99.4425 1173.34 105.886 1163.42 118.787L1165.01 120.006C1174.52 107.635 1187.58 101.442 1204.31 101.442V99.4425ZM1163.42 118.787C1153.52 131.662 1148.63 149.892 1148.63 173.342H1150.63C1150.63 150.137 1155.47 132.403 1165.01 120.006L1163.42 118.787ZM1148.63 173.342C1148.63 197.033 1153.52 215.386 1163.42 228.263L1165.01 227.043C1155.47 214.648 1150.63 196.794 1150.63 173.342H1148.63ZM1163.42 228.263C1173.34 241.163 1187.01 247.607 1204.31 247.607V245.607C1187.58 245.607 1174.52 239.415 1165.01 227.043L1163.42 228.263ZM1529.08 244.42H1530.08V242.992L1528.74 243.48L1529.08 244.42ZM1529.08 252.074L1529.71 252.853L1530.08 252.553V252.074H1529.08ZM1472.58 255.72L1471.91 256.461L1471.92 256.469L1471.93 256.476L1472.58 255.72ZM1464.93 232.392H1465.93V228.837L1464.08 231.87L1464.93 232.392ZM1439.78 254.262L1440.23 255.156L1440.23 255.152L1439.78 254.262ZM1355.21 249.523L1354.58 250.296L1354.59 250.304L1355.21 249.523ZM1320.22 113.564L1319.26 113.824L1319.54 114.881L1320.57 114.503L1320.22 113.564ZM1317.67 104.087L1317.34 103.142L1316.46 103.446L1316.7 104.347L1317.67 104.087ZM1370.52 85.8625V84.8625H1370.36L1370.2 84.9171L1370.52 85.8625ZM1380.73 85.8625H1381.73V84.8625H1380.73V85.8625ZM1389.84 236.401L1389.12 237.094L1389.13 237.108L1389.15 237.122L1389.84 236.401ZM1457.64 220.728L1458.5 221.235L1458.51 221.224L1457.64 220.728ZM1446.34 113.564L1445.38 113.859L1445.69 114.868L1446.68 114.503L1446.34 113.564ZM1443.42 104.087L1443.11 103.139L1442.18 103.448L1442.47 104.382L1443.42 104.087ZM1498.1 85.8625V84.8625H1497.94L1497.78 84.9138L1498.1 85.8625ZM1506.85 85.8625H1507.85V84.8625H1506.85V85.8625ZM1515.59 248.336C1519.4 248.336 1524.02 247.324 1529.42 245.36L1528.74 243.48C1523.45 245.404 1519.08 246.336 1515.59 246.336V248.336ZM1528.08 244.42V252.074H1530.08V244.42H1528.08ZM1528.45 251.296C1519.94 258.157 1508.28 261.645 1493.36 261.645V263.645C1508.58 263.645 1520.73 260.086 1529.71 252.853L1528.45 251.296ZM1493.36 261.645C1485.04 261.645 1478.37 259.392 1473.24 254.963L1471.93 256.476C1477.49 261.281 1484.67 263.645 1493.36 263.645V261.645ZM1473.25 254.978C1468.42 250.604 1465.93 244.108 1465.93 235.307H1463.93C1463.93 244.49 1466.54 251.601 1471.91 256.461L1473.25 254.978ZM1465.93 235.307V232.392H1463.93V235.307H1465.93ZM1464.08 231.87C1458.85 240.426 1450.62 247.602 1439.32 253.371L1440.23 255.152C1451.78 249.257 1460.32 241.854 1465.78 232.913L1464.08 231.87ZM1439.33 253.367C1428.3 258.882 1416.18 261.645 1402.96 261.645V263.645C1416.47 263.645 1428.9 260.819 1440.23 255.156L1439.33 253.367ZM1402.96 261.645C1382.19 261.645 1366.53 257.293 1355.84 248.742L1354.59 250.304C1365.77 259.249 1381.95 263.645 1402.96 263.645V261.645ZM1355.85 248.751C1345.17 239.966 1339.81 228.111 1339.81 213.073H1337.81C1337.81 228.653 1343.39 241.098 1354.58 250.295L1355.85 248.751ZM1339.81 213.073V119.761H1337.81V213.073H1339.81ZM1339.81 119.761C1339.81 116.701 1339.08 114.221 1337.44 112.508C1335.79 110.787 1333.39 110.013 1330.43 110.013V112.013C1333.06 112.013 1334.85 112.697 1335.99 113.892C1337.15 115.095 1337.81 116.989 1337.81 119.761H1339.81ZM1330.43 110.013C1328.05 110.013 1324.5 110.923 1319.88 112.626L1320.57 114.503C1325.18 112.804 1328.43 112.013 1330.43 112.013V110.013ZM1321.19 113.305L1318.64 103.828L1316.7 104.347L1319.26 113.824L1321.19 113.305ZM1318 105.033L1370.85 86.8079L1370.2 84.9171L1317.34 103.142L1318 105.033ZM1370.52 86.8625H1380.73V84.8625H1370.52V86.8625ZM1379.73 85.8625V208.335H1381.73V85.8625H1379.73ZM1379.73 208.335C1379.73 220.878 1382.8 230.525 1389.12 237.094L1390.56 235.708C1384.73 229.641 1381.73 220.577 1381.73 208.335H1379.73ZM1389.15 237.122C1395.7 243.422 1404.72 246.513 1416.09 246.513V244.513C1405.09 244.513 1396.62 241.53 1390.53 235.68L1389.15 237.122ZM1416.09 246.513C1424.05 246.513 1431.87 244.397 1439.53 240.194L1438.57 238.44C1431.17 242.499 1423.68 244.513 1416.09 244.513V246.513ZM1439.53 240.194C1447.24 235.966 1453.56 229.633 1458.5 221.235L1456.78 220.22C1452 228.346 1445.93 234.406 1438.57 238.44L1439.53 240.194ZM1458.51 221.224C1463.47 212.535 1465.93 202.028 1465.93 189.745H1463.93C1463.93 201.762 1461.53 211.91 1456.77 220.231L1458.51 221.224ZM1465.93 189.745V119.761H1463.93V189.745H1465.93ZM1465.93 119.761C1465.93 116.691 1465.16 114.205 1463.45 112.493C1461.74 110.781 1459.25 110.013 1456.18 110.013V112.013C1458.94 112.013 1460.83 112.703 1462.03 113.907C1463.24 115.111 1463.93 116.999 1463.93 119.761H1465.93ZM1456.18 110.013C1454.04 110.013 1450.6 110.928 1445.99 112.626L1446.68 114.503C1451.31 112.799 1454.44 112.013 1456.18 112.013V110.013ZM1447.29 113.27L1444.38 103.793L1442.47 104.382L1445.38 113.859L1447.29 113.27ZM1443.74 105.036L1498.41 86.8112L1497.78 84.9138L1443.11 103.139L1443.74 105.036ZM1498.1 86.8625H1506.85V84.8625H1498.1V86.8625ZM1505.85 85.8625V235.672H1507.85V85.8625H1505.85ZM1505.85 235.672C1505.85 239.656 1506.59 242.827 1508.23 245.02C1509.92 247.267 1512.43 248.336 1515.59 248.336V246.336C1512.92 246.336 1511.06 245.461 1509.83 243.82C1508.56 242.125 1507.85 239.464 1507.85 235.672H1505.85ZM1687.98 88.414L1687.5 89.2919L1687.52 89.3046L1687.55 89.3161L1687.98 88.414ZM1668.29 112.471L1667.54 113.13L1667.56 113.155L1667.59 113.178L1668.29 112.471ZM1663.19 108.097L1663.69 107.229L1663.19 108.097ZM1639.13 113.929L1639.77 114.7L1639.77 114.697L1639.13 113.929ZM1624.92 133.976L1624 133.57L1624.92 133.976ZM1618.36 164.23L1617.36 164.187L1617.36 164.209V164.23H1618.36ZM1623.46 245.149L1622.92 245.99L1622.95 246.012L1622.99 246.031L1623.46 245.149ZM1644.97 248.065H1645.97V247.065H1644.97V248.065ZM1644.97 259V260H1645.97V259H1644.97ZM1549.1 259H1548.1V260H1549.1V259ZM1549.1 248.065V247.065H1548.1V248.065H1549.1ZM1570.97 245.149L1570.5 244.267L1570.49 244.274L1570.48 244.281L1570.97 245.149ZM1557.85 113.564L1556.88 113.824L1557.17 114.881L1558.2 114.503L1557.85 113.564ZM1555.3 104.087L1554.98 103.139L1554.09 103.439L1554.33 104.347L1555.3 104.087ZM1609.61 85.8625V84.8625H1609.45L1609.29 84.9144L1609.61 85.8625ZM1618.36 85.8625H1619.36V84.8625H1618.36V85.8625ZM1618.36 122.312H1617.36L1619.31 122.611L1618.36 122.312ZM1638.04 94.6105L1638.62 95.4228L1638.63 95.4179L1638.64 95.4129L1638.04 94.6105ZM1668.29 85.04C1675.95 85.04 1682.33 86.4752 1687.5 89.2919L1688.46 87.5361C1682.93 84.5208 1676.19 83.04 1668.29 83.04V85.04ZM1687.55 89.3161C1690.2 90.5878 1692.14 92.236 1693.42 94.2376C1694.7 96.2381 1695.36 98.6562 1695.36 101.536H1697.36C1697.36 98.3408 1696.62 95.5344 1695.11 93.1609C1693.59 90.7885 1691.34 88.9131 1688.41 87.5119L1687.55 89.3161ZM1695.36 101.536C1695.36 106.957 1693.95 110.917 1691.28 113.586L1692.69 115.001C1695.86 111.838 1697.36 107.293 1697.36 101.536H1695.36ZM1691.28 113.586C1688.84 116.022 1685.36 117.303 1680.69 117.303V119.303C1685.73 119.303 1689.78 117.911 1692.69 115.001L1691.28 113.586ZM1680.69 117.303C1677.87 117.303 1675.75 116.83 1674.26 115.977L1673.27 117.713C1675.17 118.804 1677.68 119.303 1680.69 119.303V117.303ZM1674.26 115.977C1672.66 115.063 1670.91 113.668 1669 111.764L1667.59 113.178C1669.57 115.162 1671.46 116.683 1673.27 117.713L1674.26 115.977ZM1669.05 111.812C1667.29 109.81 1665.51 108.27 1663.69 107.229L1662.69 108.965C1664.27 109.868 1665.89 111.244 1667.54 113.13L1669.05 111.812ZM1663.69 107.229C1661.79 106.145 1659.42 105.639 1656.63 105.639V107.639C1659.19 107.639 1661.19 108.105 1662.69 108.965L1663.69 107.229ZM1656.63 105.639C1650.5 105.639 1644.45 108.197 1638.49 113.161L1639.77 114.697C1645.48 109.941 1651.09 107.639 1656.63 107.639V105.639ZM1638.5 113.158C1632.76 117.9 1627.94 124.724 1624 133.57L1625.83 134.383C1629.68 125.733 1634.33 119.192 1639.77 114.7L1638.5 113.158ZM1624 133.57C1620.06 142.453 1617.85 152.665 1617.36 164.187L1619.36 164.273C1619.84 152.953 1622 142.996 1625.83 134.383L1624 133.57ZM1617.36 164.23V235.672H1619.36V164.23H1617.36ZM1617.36 235.672C1617.36 240.134 1619.22 243.614 1622.92 245.99L1624 244.308C1620.89 242.31 1619.36 239.472 1619.36 235.672H1617.36ZM1622.99 246.031C1626.83 248.08 1631.87 249.065 1638.04 249.065V247.065C1632.06 247.065 1627.38 246.106 1623.93 244.267L1622.99 246.031ZM1638.04 249.065H1644.97V247.065H1638.04V249.065ZM1643.97 248.065V259H1645.97V248.065H1643.97ZM1644.97 258H1549.1V260H1644.97V258ZM1550.1 259V248.065H1548.1V259H1550.1ZM1549.1 249.065H1557.12V247.065H1549.1V249.065ZM1557.12 249.065C1563.05 249.065 1567.86 248.08 1571.47 246.017L1570.48 244.281C1567.28 246.106 1562.86 247.065 1557.12 247.065V249.065ZM1571.44 246.031C1573.4 244.988 1574.91 243.626 1575.93 241.927C1576.95 240.229 1577.44 238.253 1577.44 236.036H1575.44C1575.44 237.951 1575.02 239.559 1574.22 240.898C1573.41 242.237 1572.19 243.366 1570.5 244.267L1571.44 246.031ZM1577.44 236.036V119.761H1575.44V236.036H1577.44ZM1577.44 119.761C1577.44 116.701 1576.71 114.221 1575.07 112.508C1573.42 110.787 1571.02 110.013 1568.06 110.013V112.013C1570.69 112.013 1572.48 112.697 1573.62 113.892C1574.77 115.095 1575.44 116.989 1575.44 119.761H1577.44ZM1568.06 110.013C1565.68 110.013 1562.13 110.923 1557.5 112.626L1558.2 114.503C1562.81 112.804 1566.06 112.013 1568.06 112.013V110.013ZM1558.82 113.305L1556.26 103.828L1554.33 104.347L1556.88 113.824L1558.82 113.305ZM1555.62 105.036L1609.93 86.8105L1609.29 84.9144L1554.98 103.139L1555.62 105.036ZM1609.61 86.8625H1618.36V84.8625H1609.61V86.8625ZM1617.36 85.8625V122.312H1619.36V85.8625H1617.36ZM1619.31 122.611C1622.9 111.143 1629.33 102.094 1638.62 95.4228L1637.46 93.7982C1627.8 100.735 1621.11 110.154 1617.4 122.014L1619.31 122.611ZM1638.64 95.4129C1647.96 88.4801 1657.84 85.04 1668.29 85.04V83.04C1657.36 83.04 1647.07 86.6469 1637.44 93.808L1638.64 95.4129Z" fill="black"/>
</svg>
