<svg width="75" height="20" viewBox="0 0 75 20" fill="none" xmlns="http://www.w3.org/2000/svg">
<path d="M27.9499 4.09015H23.8134C23.6765 4.09006 23.544 4.13898 23.4399 4.2281C23.3358 4.31722 23.2668 4.44067 23.2455 4.57621L21.5725 15.2047C21.5648 15.254 21.5679 15.3044 21.5815 15.3524C21.5951 15.4005 21.6189 15.4449 21.6514 15.4828C21.6838 15.5207 21.724 15.5512 21.7693 15.572C21.8146 15.5928 21.8638 15.6036 21.9136 15.6035H23.8884C24.0254 15.6035 24.158 15.5545 24.2621 15.4653C24.3663 15.3761 24.4352 15.2525 24.4564 15.1168L24.9076 12.2501C24.9288 12.1146 24.9976 11.9911 25.1016 11.9019C25.2056 11.8126 25.338 11.7636 25.4749 11.7635H26.7844C29.5092 11.7635 31.0818 10.4423 31.4925 7.82409C31.6775 6.67863 31.5003 5.77863 30.965 5.14833C30.3771 4.45621 29.3344 4.09015 27.9499 4.09015ZM28.4271 7.97197C28.2009 9.45924 27.0668 9.45924 25.9703 9.45924H25.3461L25.784 6.68166C25.7968 6.6004 25.8381 6.52639 25.9006 6.47295C25.963 6.41951 26.0424 6.39015 26.1245 6.39015H26.4106C27.1576 6.39015 27.8622 6.39015 28.2263 6.81682C28.4435 7.07136 28.51 7.44954 28.4271 7.97197ZM40.3146 7.92409H38.3338C38.2517 7.92409 38.1723 7.95345 38.1098 8.00689C38.0474 8.06033 38.0061 8.13434 37.9933 8.2156L37.9056 8.77075L37.7671 8.56954C37.3382 7.94591 36.382 7.73742 35.4275 7.73742C33.2386 7.73742 31.3691 9.39863 31.005 11.7289C30.8156 12.8914 31.0848 14.0029 31.7429 14.778C32.3465 15.4908 33.2102 15.7877 34.2378 15.7877C36.0015 15.7877 36.9796 14.6514 36.9796 14.6514L36.8912 15.2029C36.8834 15.2522 36.8863 15.3026 36.8997 15.3507C36.9132 15.3988 36.9369 15.4434 36.9692 15.4814C37.0015 15.5194 37.0416 15.55 37.0869 15.5709C37.1321 15.5919 37.1813 15.6028 37.2312 15.6029H39.0154C39.1525 15.6029 39.285 15.5539 39.3892 15.4647C39.4933 15.3755 39.5622 15.2519 39.5834 15.1162L40.6539 8.32288C40.6618 8.27368 40.659 8.22335 40.6455 8.17537C40.6321 8.12739 40.6084 8.08291 40.5762 8.04499C40.5439 8.00707 40.5038 7.97662 40.4587 7.95575C40.4135 7.93487 40.3644 7.92407 40.3146 7.92409ZM37.5535 11.7871C37.3624 12.9211 36.4642 13.6823 35.3187 13.6823C34.7435 13.6823 34.2838 13.4974 33.9886 13.1471C33.6959 12.7992 33.5846 12.3041 33.6777 11.7526C33.8562 10.6283 34.7695 9.84227 35.8975 9.84227C36.46 9.84227 36.9173 10.0295 37.2185 10.3829C37.5203 10.7398 37.64 11.238 37.5535 11.7871ZM50.8642 7.92409H48.8737C48.7798 7.92424 48.6874 7.94733 48.6045 7.99137C48.5215 8.03541 48.4505 8.09907 48.3977 8.17681L45.6523 12.2289L44.4886 8.335C44.4529 8.21623 44.38 8.11215 44.2806 8.03814C44.1813 7.96414 44.0608 7.92415 43.937 7.92409H41.981C41.9261 7.92394 41.8719 7.93694 41.823 7.962C41.7741 7.98705 41.7319 8.02345 41.6999 8.06815C41.6679 8.11285 41.647 8.16457 41.639 8.219C41.631 8.27342 41.636 8.32898 41.6537 8.38106L43.8463 14.8283L41.785 17.7441C41.7484 17.7958 41.7266 17.8566 41.7222 17.9198C41.7177 17.9831 41.7308 18.0463 41.7598 18.1027C41.7889 18.159 41.8328 18.2062 41.8869 18.2392C41.9409 18.2721 42.003 18.2896 42.0662 18.2895H44.0543C44.1472 18.2897 44.2386 18.2672 44.3209 18.2242C44.4032 18.1811 44.4738 18.1187 44.5267 18.0423L51.1473 8.46651C51.1832 8.4147 51.2042 8.35404 51.2082 8.2911C51.2121 8.22817 51.1987 8.16535 51.1696 8.10947C51.1404 8.05358 51.0965 8.00676 51.0427 7.97409C50.9889 7.94141 50.9272 7.92412 50.8642 7.92409Z" fill="#253B80"/>
<path d="M57.4539 4.08996H53.3168C53.18 4.09002 53.0477 4.13901 52.9437 4.22811C52.8397 4.31721 52.7708 4.44058 52.7495 4.57602L51.0765 15.2045C51.0687 15.2537 51.0717 15.3041 51.0852 15.3521C51.0987 15.4 51.1224 15.4445 51.1547 15.4824C51.187 15.5203 51.2272 15.5507 51.2723 15.5716C51.3175 15.5925 51.3667 15.6033 51.4164 15.6033H53.5394C53.6352 15.6032 53.7278 15.5688 53.8005 15.5063C53.8732 15.4439 53.9213 15.3575 53.9362 15.2627L54.411 12.25C54.4322 12.1144 54.501 11.9909 54.605 11.9017C54.709 11.8124 54.8414 11.7634 54.9783 11.7633H56.2872C59.0126 11.7633 60.5846 10.4421 60.9959 7.8239C61.1815 6.67845 61.0031 5.77845 60.4678 5.14814C59.8805 4.45602 58.8384 4.08996 57.4539 4.08996ZM57.9311 7.97178C57.7055 9.45905 56.5715 9.45905 55.4743 9.45905H54.8507L55.2892 6.68148C55.3018 6.60021 55.343 6.52614 55.4053 6.47267C55.4677 6.4192 55.5471 6.38986 55.6291 6.38996H55.9152C56.6616 6.38996 57.3668 6.38996 57.7309 6.81663C57.9481 7.07117 58.014 7.44935 57.9311 7.97178ZM69.818 7.9239H67.8384C67.7563 7.92367 67.6768 7.95297 67.6145 8.00646C67.5521 8.05996 67.5109 8.1341 67.4985 8.21542L67.4108 8.77057L67.2717 8.56936C66.8428 7.94572 65.8872 7.73723 64.9327 7.73723C62.7438 7.73723 60.8749 9.39845 60.5108 11.7287C60.3221 12.8912 60.59 14.0027 61.2481 14.7778C61.8529 15.4906 62.7154 15.7875 63.743 15.7875C65.5067 15.7875 66.4848 14.6512 66.4848 14.6512L66.3965 15.2027C66.3886 15.2521 66.3915 15.3026 66.405 15.3508C66.4185 15.399 66.4424 15.4436 66.4748 15.4817C66.5072 15.5197 66.5475 15.5502 66.5929 15.5711C66.6383 15.592 66.6877 15.6028 66.7376 15.6027H68.5213C68.6582 15.6026 68.7906 15.5535 68.8946 15.4643C68.9986 15.3751 69.0674 15.2516 69.0886 15.116L70.1598 8.32269C70.1674 8.27333 70.1642 8.22292 70.1505 8.1749C70.1368 8.12688 70.1129 8.0824 70.0805 8.04452C70.048 8.00663 70.0077 7.97623 69.9624 7.95541C69.9171 7.93459 69.8679 7.92384 69.818 7.9239ZM67.0569 11.7869C66.867 12.9209 65.9676 13.6821 64.8221 13.6821C64.2481 13.6821 63.7872 13.4972 63.492 13.1469C63.1993 12.7991 63.0892 12.3039 63.1811 11.7524C63.3608 10.6281 64.2729 9.84208 65.4009 9.84208C65.9634 9.84208 66.4207 10.0294 66.7219 10.3827C67.0249 10.7397 67.1446 11.2378 67.0569 11.7869ZM72.1533 4.38148L70.4555 15.2045C70.4477 15.2537 70.4507 15.3041 70.4642 15.3521C70.4777 15.4 70.5014 15.4445 70.5338 15.4824C70.5661 15.5203 70.6062 15.5507 70.6514 15.5716C70.6965 15.5925 70.7457 15.6033 70.7955 15.6033H72.5023C72.786 15.6033 73.0267 15.3972 73.0702 15.1166L74.7444 4.48875C74.7522 4.43949 74.7492 4.38912 74.7357 4.34111C74.7222 4.29311 74.6985 4.2486 74.6662 4.21065C74.6339 4.1727 74.5938 4.14221 74.5486 4.12127C74.5035 4.10033 74.4543 4.08944 74.4045 4.08936H72.4932C72.4112 4.08965 72.3319 4.1192 72.2696 4.17273C72.2073 4.22626 72.1661 4.30026 72.1533 4.38148Z" fill="#179BD7"/>
<path d="M4.39365 17.6694L4.70998 15.6561L4.00534 15.6397H0.640625L2.97893 0.783338C2.98589 0.737945 3.0089 0.69657 3.04376 0.666755C3.07863 0.63694 3.12302 0.620671 3.16885 0.620913H8.84224C10.7257 0.620913 12.0255 1.01364 12.7041 1.78879C13.0223 2.15243 13.2249 2.53243 13.3229 2.95061C13.4257 3.3894 13.4275 3.91364 13.3271 4.55303L13.3199 4.5997V5.0094L13.638 5.19C13.8809 5.3133 14.0992 5.48009 14.2822 5.68213C14.5543 5.99303 14.7303 6.38819 14.8047 6.85667C14.8816 7.33849 14.8561 7.91182 14.7303 8.56091C14.5852 9.30758 14.3505 9.95788 14.0336 10.49C13.7539 10.9667 13.3779 11.3796 12.9297 11.7021C12.5088 12.0015 12.0086 12.2288 11.443 12.3742C10.8951 12.5173 10.2703 12.5894 9.58498 12.5894H9.14345C8.82772 12.5894 8.52107 12.7033 8.28034 12.9076C8.03996 13.114 7.88049 13.3992 7.83034 13.7124L7.79708 13.8936L7.23821 17.4421L7.2128 17.5724C7.20615 17.6136 7.19466 17.6342 7.17772 17.6482C7.16132 17.6616 7.14085 17.6691 7.11966 17.6694H4.39365Z" fill="#253B80"/>
<path d="M13.9415 4.64679C13.9246 4.75527 13.9052 4.86618 13.8834 4.98012C13.1353 8.82921 10.5756 10.1589 7.30643 10.1589H5.64191C5.24211 10.1589 4.90522 10.4498 4.84292 10.845L3.9907 16.2607L3.74937 17.7959C3.73976 17.8568 3.74343 17.919 3.76013 17.9784C3.77683 18.0377 3.80617 18.0927 3.84612 18.1396C3.88607 18.1865 3.93569 18.2241 3.99155 18.25C4.04742 18.2758 4.10821 18.2892 4.16973 18.2892H7.12195C7.47155 18.2892 7.76852 18.0347 7.82356 17.6892L7.8526 17.5389L8.40844 14.0044L8.44413 13.8104C8.49856 13.4638 8.79614 13.2092 9.14574 13.2092H9.58727C12.4476 13.2092 14.6867 12.0456 15.3411 8.67831C15.6145 7.27164 15.473 6.09709 14.7496 5.27103C14.5203 5.01549 14.2465 4.80396 13.9415 4.64679Z" fill="#179BD7"/>
<path d="M13.1577 4.33425C12.9188 4.265 12.6758 4.21095 12.4301 4.17243C11.9446 4.09767 11.4539 4.0618 10.9628 4.06516H6.51599C6.34676 4.06503 6.18307 4.12556 6.0545 4.23583C5.92593 4.34609 5.84097 4.49881 5.81498 4.66637L4.86901 10.67L4.8418 10.8452C4.87127 10.654 4.96803 10.4798 5.11458 10.354C5.26113 10.2281 5.44779 10.159 5.64079 10.1591H7.30531C10.5745 10.1591 13.1341 8.82879 13.8823 4.98031C13.9047 4.86637 13.9235 4.75546 13.9404 4.64698C13.743 4.54324 13.5372 4.45626 13.3253 4.38698C13.2697 4.3685 13.2138 4.35092 13.1577 4.33425Z" fill="#222D65"/>
<path d="M5.81486 4.66606C5.84063 4.49845 5.92555 4.34567 6.05418 4.23546C6.18281 4.12525 6.34663 4.06493 6.51587 4.06545H10.9626C11.4895 4.06545 11.9812 4.1 12.43 4.17273C12.7337 4.22055 13.0332 4.29208 13.3258 4.38667C13.5465 4.46 13.7516 4.54667 13.9409 4.64667C14.1635 3.22424 13.9391 2.25576 13.1715 1.37879C12.3253 0.413333 10.7981 0 8.8439 0H3.17051C2.77132 0 2.43079 0.290909 2.3691 0.686667L0.00599378 15.6958C-0.00501317 15.7654 -0.000825402 15.8367 0.018269 15.9046C0.0373634 15.9725 0.0709113 16.0355 0.116605 16.0891C0.162299 16.1428 0.219054 16.1859 0.282966 16.2155C0.346879 16.2451 0.416431 16.2605 0.486841 16.2606H3.98946L4.8689 10.6697L5.81486 4.66606Z" fill="#253B80"/>
</svg>
