<svg width="134" height="40" viewBox="0 0 134 40" fill="none" xmlns="http://www.w3.org/2000/svg">
<path d="M1.64837 20L17.7467 0.5H133.5V20V39.5H17.7467L1.64837 20Z" stroke="#803B6A"/>
<path d="M4.64248 20L18.7638 2.5H131.5V19.1429V37.5H18.7638L4.64248 20Z" stroke="#803B6A"/>
<path d="M39.688 24.816H43.592V26H38.232V14.848H39.688V24.816ZM50.8342 26.112C49.7996 26.112 48.8556 25.872 48.0022 25.392C47.1489 24.9013 46.4716 24.224 45.9702 23.36C45.4796 22.4853 45.2342 21.504 45.2342 20.416C45.2342 19.328 45.4796 18.352 45.9702 17.488C46.4716 16.6133 47.1489 15.936 48.0022 15.456C48.8556 14.9653 49.7996 14.72 50.8342 14.72C51.8796 14.72 52.8289 14.9653 53.6823 15.456C54.5356 15.936 55.2076 16.608 55.6983 17.472C56.1889 18.336 56.4343 19.3173 56.4343 20.416C56.4343 21.5147 56.1889 22.496 55.6983 23.36C55.2076 24.224 54.5356 24.9013 53.6823 25.392C52.8289 25.872 51.8796 26.112 50.8342 26.112ZM50.8342 24.848C51.6129 24.848 52.3116 24.6667 52.9303 24.304C53.5596 23.9413 54.0503 23.424 54.4023 22.752C54.7649 22.08 54.9463 21.3013 54.9463 20.416C54.9463 19.52 54.7649 18.7413 54.4023 18.08C54.0503 17.408 53.5649 16.8907 52.9463 16.528C52.3276 16.1653 51.6236 15.984 50.8342 15.984C50.0449 15.984 49.3409 16.1653 48.7222 16.528C48.1036 16.8907 47.6129 17.408 47.2503 18.08C46.8983 18.7413 46.7222 19.52 46.7222 20.416C46.7222 21.3013 46.8983 22.08 47.2503 22.752C47.6129 23.424 48.1036 23.9413 48.7222 24.304C49.3516 24.6667 50.0556 24.848 50.8342 24.848ZM67.4444 18.08C67.135 17.4293 66.687 16.928 66.1004 16.576C65.5137 16.2133 64.831 16.032 64.0524 16.032C63.2737 16.032 62.5697 16.2133 61.9404 16.576C61.3217 16.928 60.831 17.44 60.4684 18.112C60.1164 18.7733 59.9404 19.5413 59.9404 20.416C59.9404 21.2907 60.1164 22.0587 60.4684 22.72C60.831 23.3813 61.3217 23.8933 61.9404 24.256C62.5697 24.608 63.2737 24.784 64.0524 24.784C65.1404 24.784 66.0364 24.4587 66.7404 23.808C67.4444 23.1573 67.855 22.2773 67.9724 21.168H63.5244V19.984H69.5244V21.104C69.439 22.0213 69.151 22.864 68.6604 23.632C68.1697 24.3893 67.5244 24.992 66.7244 25.44C65.9244 25.8773 65.0337 26.096 64.0524 26.096C63.0177 26.096 62.0737 25.856 61.2204 25.376C60.367 24.8853 59.6897 24.208 59.1884 23.344C58.6977 22.48 58.4524 21.504 58.4524 20.416C58.4524 19.328 58.6977 18.352 59.1884 17.488C59.6897 16.6133 60.367 15.936 61.2204 15.456C62.0737 14.9653 63.0177 14.72 64.0524 14.72C65.2364 14.72 66.2817 15.0133 67.1884 15.6C68.1057 16.1867 68.7724 17.0133 69.1884 18.08H67.4444ZM73.5455 14.848V26H72.0895V14.848H73.5455ZM85.435 26H83.979L78.123 17.12V26H76.667V14.832H78.123L83.979 23.696V14.832H85.435V26Z" fill="#803B6A"/>
<path d="M105 19.1667C104.116 19.1667 103.268 18.8155 102.643 18.1904C102.018 17.5652 101.667 16.7174 101.667 15.8333C101.667 14.9493 102.018 14.1014 102.643 13.4763C103.268 12.8512 104.116 12.5 105 12.5C105.884 12.5 106.732 12.8512 107.357 13.4763C107.982 14.1014 108.333 14.9493 108.333 15.8333C108.333 16.7174 107.982 17.5652 107.357 18.1904C106.732 18.8155 105.884 19.1667 105 19.1667Z" stroke="#803B6A" stroke-width="1.3" stroke-linecap="round"/>
<path d="M98.3333 27.5V26.6666C98.3333 25.3405 98.86 24.0688 99.7977 23.1311C100.735 22.1934 102.007 21.6666 103.333 21.6666H106.667C107.993 21.6666 109.264 22.1934 110.202 23.1311C111.14 24.0688 111.667 25.3405 111.667 26.6666V27.5" stroke="#803B6A" stroke-width="1.3" stroke-linecap="round"/>
</svg>
