<svg width="201" height="48" viewBox="0 0 201 48" fill="none" xmlns="http://www.w3.org/2000/svg">
<path d="M1.0647 0.5H184.173L200.392 24L184.173 47.5H1.0647L1.06473 25.5L1.0647 0.5Z" stroke="black"/>
<path d="M3.97131 3.5H182.266L196.393 24L182.266 44.5H3.97131L3.97134 25L3.97131 3.5Z" stroke="black"/>
<path d="M56.143 30.112C55.407 30.112 54.7457 29.984 54.159 29.728C53.583 29.4613 53.1297 29.0987 52.799 28.64C52.4683 28.1707 52.2977 27.632 52.287 27.024H53.839C53.8923 27.5467 54.1057 27.9893 54.479 28.352C54.863 28.704 55.4177 28.88 56.143 28.88C56.8363 28.88 57.3803 28.7093 57.775 28.368C58.1803 28.016 58.383 27.568 58.383 27.024C58.383 26.5973 58.2657 26.2507 58.031 25.984C57.7963 25.7173 57.503 25.5147 57.151 25.376C56.799 25.2373 56.3243 25.088 55.727 24.928C54.991 24.736 54.399 24.544 53.951 24.352C53.5137 24.16 53.135 23.8613 52.815 23.456C52.5057 23.04 52.351 22.4853 52.351 21.792C52.351 21.184 52.5057 20.6453 52.815 20.176C53.1243 19.7067 53.5563 19.344 54.111 19.088C54.6763 18.832 55.3217 18.704 56.047 18.704C57.0923 18.704 57.9457 18.9653 58.607 19.488C59.279 20.0107 59.6577 20.704 59.743 21.568H58.143C58.0897 21.1413 57.8657 20.768 57.471 20.448C57.0763 20.1173 56.5537 19.952 55.903 19.952C55.295 19.952 54.799 20.112 54.415 20.432C54.031 20.7413 53.839 21.1787 53.839 21.744C53.839 22.1493 53.951 22.48 54.175 22.736C54.4097 22.992 54.6923 23.1893 55.023 23.328C55.3643 23.456 55.839 23.6053 56.447 23.776C57.183 23.9787 57.775 24.1813 58.223 24.384C58.671 24.576 59.055 24.88 59.375 25.296C59.695 25.7013 59.855 26.256 59.855 26.96C59.855 27.504 59.711 28.016 59.423 28.496C59.135 28.976 58.7083 29.3653 58.143 29.664C57.5777 29.9627 56.911 30.112 56.143 30.112ZM63.4536 20.032V23.76H67.5176V24.96H63.4536V28.8H67.9976V30H61.9976V18.832H67.9976V20.032H63.4536ZM71.6568 20.032V23.76H75.7208V24.96H71.6568V28.8H76.2008V30H70.2008V18.832H76.2008V20.032H71.6568ZM86.1415 18.848C87.3575 18.848 88.4082 19.0773 89.2935 19.536C90.1895 19.984 90.8722 20.6293 91.3415 21.472C91.8215 22.3147 92.0615 23.3067 92.0615 24.448C92.0615 25.5893 91.8215 26.5813 91.3415 27.424C90.8722 28.256 90.1895 28.896 89.2935 29.344C88.4082 29.7813 87.3575 30 86.1415 30H82.6695V18.848H86.1415ZM86.1415 28.8C87.5815 28.8 88.6802 28.4213 89.4375 27.664C90.1948 26.896 90.5735 25.824 90.5735 24.448C90.5735 23.0613 90.1895 21.9787 89.4215 21.2C88.6642 20.4213 87.5708 20.032 86.1415 20.032H84.1255V28.8H86.1415ZM95.438 20.032V23.76H99.502V24.96H95.438V28.8H99.982V30H93.982V18.832H99.982V20.032H95.438ZM109.049 18.848V20.032H106.009V30H104.553V20.032H101.497V18.848H109.049ZM117.433 27.52H112.569L111.673 30H110.137L114.169 18.912H115.849L119.865 30H118.329L117.433 27.52ZM117.017 26.336L115.001 20.704L112.985 26.336H117.017ZM123.079 18.848V30H121.623V18.848H123.079ZM127.016 28.816H130.92V30H125.56V18.848H127.016V28.816ZM136.002 30.112C135.266 30.112 134.605 29.984 134.018 29.728C133.442 29.4613 132.989 29.0987 132.658 28.64C132.328 28.1707 132.157 27.632 132.146 27.024H133.698C133.752 27.5467 133.965 27.9893 134.338 28.352C134.722 28.704 135.277 28.88 136.002 28.88C136.696 28.88 137.24 28.7093 137.634 28.368C138.04 28.016 138.242 27.568 138.242 27.024C138.242 26.5973 138.125 26.2507 137.89 25.984C137.656 25.7173 137.362 25.5147 137.01 25.376C136.658 25.2373 136.184 25.088 135.586 24.928C134.85 24.736 134.258 24.544 133.81 24.352C133.373 24.16 132.994 23.8613 132.674 23.456C132.365 23.04 132.21 22.4853 132.21 21.792C132.21 21.184 132.365 20.6453 132.674 20.176C132.984 19.7067 133.416 19.344 133.97 19.088C134.536 18.832 135.181 18.704 135.906 18.704C136.952 18.704 137.805 18.9653 138.466 19.488C139.138 20.0107 139.517 20.704 139.602 21.568H138.002C137.949 21.1413 137.725 20.768 137.33 20.448C136.936 20.1173 136.413 19.952 135.762 19.952C135.154 19.952 134.658 20.112 134.274 20.432C133.89 20.7413 133.698 21.1787 133.698 21.744C133.698 22.1493 133.81 22.48 134.034 22.736C134.269 22.992 134.552 23.1893 134.882 23.328C135.224 23.456 135.698 23.6053 136.306 23.776C137.042 23.9787 137.634 24.1813 138.082 24.384C138.53 24.576 138.914 24.88 139.234 25.296C139.554 25.7013 139.714 26.256 139.714 26.96C139.714 27.504 139.57 28.016 139.282 28.496C138.994 28.976 138.568 29.3653 138.002 29.664C137.437 29.9627 136.77 30.112 136.002 30.112Z" fill="black"/>
</svg>
