<svg width="56" height="56" viewBox="0 0 56 56" fill="none" xmlns="http://www.w3.org/2000/svg">
<path d="M38.5 28.0002L16.8 28.0002M38.5 28.0002L30.8 35.7002M38.5 28.0002L30.8 20.3002" stroke="black" stroke-width="1.4" stroke-linecap="round" stroke-linejoin="round"/>
<path d="M24.6562 55.0944C20.2824 54.5547 16.1043 52.964 12.4788 50.4585C8.85341 47.9529 5.88844 44.6069 3.83727 40.7064C1.7861 36.8059 0.709708 32.4667 0.700064 28.0597C0.69042 23.6528 1.74781 19.309 3.78189 15.3995C5.81597 11.49 8.76627 8.13105 12.3807 5.60966C15.9951 3.08826 20.1662 1.47937 24.5376 0.920447C28.909 0.361526 33.3508 0.869192 37.4833 2.40007C41.6159 3.93094 45.3164 6.43952 48.2687 9.71145" stroke="black" stroke-width="1.4" stroke-linecap="round"/>
</svg>
