<svg width="56" height="56" viewBox="0 0 56 56" fill="none" xmlns="http://www.w3.org/2000/svg">
<path d="M24.6929 54.7967C21.1739 54.3624 17.775 53.2393 14.69 51.4914C11.6051 49.7435 8.89464 47.4051 6.71342 44.6097C4.53221 41.8143 2.92295 38.6167 1.97752 35.1993C1.03209 31.782 0.769005 28.2119 1.20329 24.6929C1.63758 21.1739 2.76074 17.775 4.50863 14.69C6.25652 11.6051 8.59492 8.89464 11.3903 6.71342C14.1857 4.53221 17.3833 2.92295 20.8007 1.97752C24.218 1.03209 27.7881 0.769005 31.3071 1.20329C34.8261 1.63758 38.225 2.76074 41.31 4.50863C44.3949 6.25652 47.1054 8.59492 49.2866 11.3903C51.4678 14.1857 53.0771 17.3833 54.0225 20.8007C54.9679 24.218 55.231 27.7881 54.7967 31.3071C54.3624 34.8261 53.2393 38.225 51.4914 41.31C49.7435 44.3949 47.4051 47.1054 44.6097 49.2866C41.8143 51.4678 38.6167 53.0771 35.1993 54.0225C31.782 54.9679 28.2119 55.231 24.6929 54.7967L24.6929 54.7967Z" stroke="black" stroke-width="2" stroke-linecap="round"/>
<path d="M27.5724 34.6522C26.7448 34.55 25.9454 34.2859 25.2199 33.8748C24.4944 33.4637 23.8569 32.9138 23.3439 32.2564C22.8309 31.5989 22.4524 30.8469 22.2301 30.0432C22.0077 29.2395 21.9459 28.3998 22.048 27.5722C22.1501 26.7446 22.4143 25.9452 22.8254 25.2197C23.2365 24.4942 23.7864 23.8567 24.4438 23.3437C25.1013 22.8307 25.8533 22.4522 26.657 22.2299C27.4607 22.0075 28.3004 21.9457 29.128 22.0478C29.9556 22.15 30.755 22.4141 31.4805 22.8252C32.206 23.2363 32.8435 23.7862 33.3565 24.4436C33.8695 25.1011 34.2479 25.8531 34.4703 26.6568C34.6926 27.4605 34.7545 28.3002 34.6524 29.1278C34.5502 29.9554 34.2861 30.7548 33.875 31.4803C33.4639 32.2058 32.914 32.8433 32.2565 33.3563C31.5991 33.8693 30.8471 34.2478 30.0434 34.4701C29.2397 34.6925 28.4 34.7543 27.5724 34.6522L27.5724 34.6522Z" stroke="black" stroke-width="2" stroke-linecap="round"/>
<circle cx="28.35" cy="28.35" r="3.85" fill="black"/>
</svg>
